<?xml version="1.0" encoding="utf-8"?>
<!-- Generator: Adobe Illustrator 16.0.4, SVG Export Plug-In . SVG Version: 6.00 Build 0)  -->
<!DOCTYPE svg PUBLIC "-//W3C//DTD SVG 1.1//EN" "http://www.w3.org/Graphics/SVG/1.1/DTD/svg11.dtd">
<svg version="1.1" id="Logo" xmlns="http://www.w3.org/2000/svg" xmlns:xlink="http://www.w3.org/1999/xlink" x="0px" y="0px"
	 width="18px" height="18px" viewBox="0 0 18 18" enable-background="new 0 0 18 18" xml:space="preserve">
<g>
	<g id="Left_Hand">
		<path d="M8.091,9.265c0.011-0.197-0.21-0.224-0.238-0.208C7.717,9.132,7.749,9.075,7.749,9.075s0.155-0.193,0.209-0.488
			c0.054-0.294-0.21-0.306-0.361-0.155c-0.15,0.151-0.218,0.341-0.285,0.428c-0.037,0.048-0.147,0.235-0.19,0.317
			C6.924,9.556,7.09,9.126,7.09,9.126s0.193-0.254,0.241-0.364C7.378,8.65,7.505,8.451,7.505,8.451
			C7.711,8.21,7.77,8.044,7.749,7.982C7.554,7.409,7.052,8.268,7.052,8.268S6.521,8.913,6.514,8.938
			C6.498,8.994,6.461,9.12,6.437,9.145s-0.078,0.11-0.022,0.003c0.026-0.049,0.063-0.253,0.063-0.253
			C6.454,8.841,6.661,8.712,6.798,8.35c0.09-0.09,0.131-0.142,0.165-0.202c0.042-0.076,0.106-0.187,0.095-0.241
			C7.005,7.644,6.833,7.719,6.821,7.723C6.708,7.756,6.688,7.808,6.462,7.995c-0.36,0.297-0.487,0.568-0.614,0.852
			C5.722,9.129,5.547,9.683,5.547,9.683L5.437,9.86c-0.13,0.045-0.269,0.209-0.269,0.209C5.079,10.013,5.06,9.914,5.06,9.914
			C5.076,9.815,5.072,9.86,5.025,9.585s0.016-0.213,0-0.326C5.01,9.149,5.048,9,5.006,8.929C4.807,8.594,4.651,8.771,4.651,8.771
			c-0.057,0.172-0.054,0.33-0.054,0.33C4.468,9.3,4.486,9.73,4.486,9.73c-0.171,0.411,0.006,0.724,0.006,0.782
			c0,0.107,0.013,0.162,0.035,0.313c0.022,0.152,0.139,0.602,0.139,0.602c0.044,1.055-0.662,1.669-0.662,1.669
			s0.492,0.811,1.511,1.372c0.109,0.06,0.387-0.938,0.402-0.991c0.016-0.055,0.256-0.775,0.544-1.004
			c0.399-0.318,0.761-0.896,0.827-1.077c0.06-0.165,0.167-0.412,0.304-0.611S7.98,9.671,7.98,9.671
			C8.058,9.489,8.085,9.37,8.091,9.265z M7.138,9.263c0.021-0.057,0.201-0.331,0.23-0.363c0.01-0.011,0.216-0.638,0.526-0.481
			c0,0,0.108,0.127-0.072,0.441C7.795,8.907,7.801,8.959,7.7,9.01c0,0-0.102,0.044-0.197-0.051C7.451,8.906,7.41,8.903,7.41,8.903
			s0.045,0.104,0.162,0.163l0.116,0.019c0,0-0.001-0.007,0.004,0.072c0,0-0.112,0.365-0.2,0.393c0,0-0.087,0.015-0.307-0.166
			c0,0-0.019,0.022-0.038,0.022c0,0,0.004,0.023,0.051,0.069c0,0,0.045,0.064,0.262,0.14c0.055,0.02-0.019,0.105-0.046,0.209
			c0,0-0.104,0.307-0.211,0.34c0,0-0.184-0.314-0.344-0.391c0,0,0.063-0.213,0.112-0.262C7.018,9.464,7.112,9.332,7.138,9.263z
			 M7.101,8.262c0,0,0.06-0.079,0.084-0.12C7.198,8.12,7.331,7.913,7.491,7.829c0.16-0.084,0.224,0.14,0.213,0.18
			S7.531,8.405,7.318,8.405S7.09,8.262,7.101,8.262z M6.479,9.179c0.026-0.027,0.04-0.214,0.26-0.463c0,0,0.228-0.262,0.325-0.418
			c0,0-0.038,0.105,0.323,0.215C7.444,8.53,7.101,9.01,7.05,9.03c0,0-0.153-0.088-0.287-0.104c0,0-0.1-0.029-0.091-0.071
			c0,0-0.062,0.078,0.053,0.129c0,0,0.185,0.018,0.304,0.137c0.01,0.01-0.017,0.065-0.038,0.138C6.97,9.33,6.803,9.628,6.744,9.649
			S6.401,9.47,6.319,9.442C6.319,9.442,6.437,9.222,6.479,9.179z M7.818,9.975c0,0-0.078,0.059-0.302-0.072
			c0,0,0.062,0.15,0.264,0.171c0,0-0.132,0.314-0.152,0.387c-0.027,0.098-0.078,0.334-0.181,0.334c0,0-0.021-0.055-0.055-0.102
			c-0.056-0.077-0.079-0.234-0.162-0.242c0.063,0.086,0.12,0.261,0.12,0.34c0,0.139,0.076,0.102,0.008,0.29
			c-0.067,0.188-0.229,0.604-0.481,0.894c-0.222,0.255-0.254,0.314-0.494,0.418c-0.135,0.059-0.434,0.033-0.69-0.028l0.036,0.019
			c0,0,0.224,0.117,0.502,0.117c0,0,0.186-0.033-0.013,0.178c-0.009,0.01-0.281,0.537-0.329,0.705
			c-0.29,1.01-0.427,1.006-0.427,1.006c-0.624-0.303-1.376-1.28-1.376-1.28s0.532-0.527,0.642-1.47
			c0.004-0.041-0.06-0.231,0.147,0.076c0.175,0.262,0.311,0.38,0.349,0.41c0,0-0.396-0.567-0.42-0.592
			c-0.061-0.061-0.248-0.576-0.274-1.056c0,0-0.194-0.404-0.004-0.708c0,0,0-0.566,0.11-0.677c0,0-0.011-0.377,0.135-0.329
			s0.203,0.139,0.182,0.354C4.93,9.333,4.973,9.446,4.74,9.573c0,0,0.074,0.039,0.177,0.013c0.103-0.027,0.059,0.06,0.059,0.194
			s0.014,0.299-0.262,0.414c0,0-0.031,0.07-0.061,0.086c0.046-0.014,0.242-0.082,0.39-0.23c0,0,0.114,0.136,0.038,0.267
			c0,0-0.021,0.032-0.236,0.117c0,0-0.078,0.079-0.144,0.117c0,0,0.031,0.002,0.091-0.025c0.165-0.076,0.27-0.211,0.769-0.16
			c0,0,0.28,0.062,0.486,0.249c0.013,0.012,0.096,0.196,0.068-0.018c0,0-0.215-0.211-0.433-0.28
			c-0.112-0.036-0.283-0.051-0.471-0.028c0,0,0.063-0.073,0.116-0.113c0.082-0.062,0.169-0.102,0.34-0.149
			c0,0-0.038-0.051-0.148-0.013c0,0-0.147,0.032-0.211,0.061c-0.089,0.041-0.074,0.004-0.055-0.015
			c0.019-0.019,0.07-0.12,0.287-0.16c0,0,0.083-0.007,0.108-0.032c0,0-0.013-0.025-0.078-0.025s-0.128,0.057-0.05-0.07
			c0.006-0.01,0.047-0.053,0.062-0.092c0.033-0.088,0.152-0.482,0.181-0.527c0.024-0.038,0.15-0.391,0.209-0.49
			C6.076,8.49,6.272,8.152,6.499,8.013c0,0,0.121-0.124,0.161-0.141c0.04-0.018,0.209-0.239,0.325-0.079
			c0,0,0.031,0.047,0.013,0.144C6.978,8.034,6.83,8.265,6.716,8.294c0,0-0.137-0.04-0.213-0.191C6.505,8.106,6.514,8.13,6.462,8.158
			c0,0,0.011,0.038,0.228,0.192c0,0,0.083,0.135-0.253,0.456c0,0-0.39-0.091-0.375-0.217c0,0-0.003,0.057-0.045,0.057
			c0,0,0.084,0.126,0.38,0.24c0,0-0.038,0.214-0.287,0.541c0,0-0.256,0.033-0.338,0.059c0,0-0.081,0.04-0.081,0.058
			c0,0,0.125-0.053,0.199-0.041c0.074,0.014,0.215,0.009,0.084,0.034C5.883,9.556,5.793,9.613,5.748,9.646
			c0.101-0.02,0.193-0.022,0.193-0.022s0.118-0.091,0.376,0C6.575,9.715,6.61,9.721,6.803,9.888s0.063-0.091,0.407,0.511
			c0,0,0.001,0.003,0.004,0.009c0.012-0.002,0.029-0.014,0.036-0.063c0.013-0.082,0.141-0.302,0.226-0.445
			c0.04-0.067-0.03-0.063,0.15-0.329c0,0,0.174,0.118,0.285,0.08C7.966,9.63,7.795,9.933,7.818,9.975z M7.827,9.597
			c0,0-0.194-0.007-0.182-0.1c0,0-0.017-0.053,0.076-0.28c0.008-0.021,0.033-0.058,0.154-0.114C7.924,9.079,8.042,9.1,8.063,9.229
			C8.063,9.229,8.021,9.59,7.827,9.597z"/>
		<path d="M6.349,9.771c0,0,0.191,1.107,0.507,1.423C6.855,11.194,6.61,10.758,6.349,9.771z"/>
		<path d="M6.002,9.928c0,0,0.314,0.224,0.232,0.874c-0.037,0.294-0.102,0.79-0.376,1.162c0,0,0.312-0.119,0.443-1.132
			C6.333,10.596,6.361,10.118,6.002,9.928z"/>
	</g>
	<g id="Right_Hand">
		<path d="M9.891,9.667c0,0,0.25,0.915,0.386,1.114c0.136,0.2,0.244,0.447,0.304,0.611c0.066,0.181,0.427,0.759,0.827,1.077
			c0.288,0.229,0.528,0.95,0.544,1.004s0.293,1.051,0.402,0.991c1.019-0.562,1.511-1.371,1.511-1.371s-0.707-0.614-0.662-1.669
			c0,0,0.117-0.45,0.14-0.602c0.022-0.152,0.035-0.207,0.035-0.314c0-0.059,0.177-0.37,0.006-0.782c0,0,0.019-0.431-0.111-0.63
			c0,0,0.003-0.158-0.054-0.33c0,0-0.155-0.177-0.354,0.159c-0.042,0.07-0.004,0.22-0.019,0.329c-0.016,0.114,0.047,0.051,0,0.326
			s-0.05,0.231-0.035,0.33c0,0-0.019,0.098-0.108,0.154c0,0-0.139-0.164-0.269-0.209L12.323,9.68c0,0-0.175-0.555-0.301-0.837
			c-0.127-0.282-0.254-0.555-0.614-0.852c-0.227-0.187-0.246-0.239-0.358-0.272c-0.013-0.003-0.185-0.079-0.238,0.184
			c-0.011,0.055,0.053,0.165,0.095,0.241c0.034,0.061,0.074,0.112,0.165,0.202c0.137,0.362,0.344,0.491,0.32,0.545
			c0,0,0.038,0.204,0.063,0.253c0.056,0.107,0.002,0.021-0.022-0.003c-0.024-0.023-0.061-0.15-0.077-0.206
			c-0.007-0.025-0.538-0.671-0.538-0.671s-0.502-0.858-0.697-0.285c-0.021,0.062,0.038,0.228,0.244,0.469c0,0,0.127,0.2,0.174,0.311
			s0.241,0.364,0.241,0.364s0.166,0.43-0.032,0.051c-0.042-0.082-0.153-0.27-0.19-0.316c-0.067-0.087-0.135-0.277-0.285-0.428
			s-0.415-0.14-0.361,0.154c0.054,0.295,0.209,0.488,0.209,0.488s0.032,0.057-0.104-0.019C9.989,9.037,9.769,9.063,9.779,9.261
			C9.785,9.366,9.812,9.485,9.891,9.667z M10.901,9.509c0.048,0.048,0.112,0.262,0.112,0.262c-0.161,0.076-0.344,0.391-0.344,0.391
			c-0.107-0.034-0.211-0.34-0.211-0.34c-0.028-0.104-0.102-0.19-0.046-0.209c0.217-0.075,0.262-0.14,0.262-0.14
			c0.046-0.047,0.051-0.069,0.051-0.069c-0.019,0-0.038-0.023-0.038-0.023c-0.22,0.182-0.306,0.166-0.306,0.166
			c-0.089-0.027-0.201-0.393-0.201-0.393c0.005-0.078,0.004-0.071,0.004-0.071l0.116-0.02C10.415,9.004,10.461,8.9,10.461,8.9
			s-0.042,0.002-0.094,0.055C10.271,9.05,10.17,9.006,10.17,9.006c-0.102-0.051-0.096-0.103-0.123-0.149
			c-0.18-0.315-0.072-0.441-0.072-0.441c0.31-0.156,0.516,0.471,0.526,0.48c0.029,0.032,0.208,0.307,0.23,0.363
			C10.758,9.328,10.852,9.46,10.901,9.509z M10.553,8.401c-0.214,0-0.376-0.356-0.387-0.396s0.053-0.264,0.213-0.18
			c0.161,0.085,0.293,0.291,0.306,0.312c0.024,0.041,0.084,0.121,0.084,0.121C10.78,8.259,10.766,8.401,10.553,8.401z M11.551,9.438
			c-0.082,0.027-0.365,0.229-0.424,0.207c-0.06-0.021-0.226-0.318-0.247-0.391c-0.021-0.072-0.048-0.128-0.038-0.137
			c0.119-0.119,0.304-0.138,0.304-0.138c0.114-0.051,0.053-0.129,0.053-0.129c0.009,0.042-0.09,0.071-0.09,0.071
			c-0.134,0.016-0.288,0.104-0.288,0.104c-0.05-0.021-0.395-0.5-0.337-0.517c0.361-0.11,0.323-0.216,0.323-0.216
			c0.097,0.156,0.325,0.418,0.325,0.418c0.22,0.25,0.233,0.437,0.26,0.463C11.434,9.218,11.551,9.438,11.551,9.438z M9.959,9.646
			c0.111,0.038,0.285-0.08,0.285-0.08c0.18,0.266,0.11,0.262,0.15,0.329c0.085,0.144,0.213,0.363,0.226,0.445
			c0.007,0.05,0.024,0.062,0.036,0.063c0.002-0.006,0.004-0.008,0.004-0.008c0.344-0.602,0.215-0.345,0.407-0.512
			c0.192-0.166,0.228-0.173,0.486-0.264c0.257-0.091,0.375,0,0.375,0s0.093,0.003,0.193,0.023c-0.045-0.033-0.135-0.092-0.227-0.109
			c-0.131-0.025,0.01-0.021,0.084-0.034c0.074-0.013,0.199,0.04,0.199,0.04c0-0.017-0.081-0.057-0.081-0.057
			c-0.082-0.025-0.337-0.06-0.337-0.06c-0.25-0.327-0.288-0.54-0.288-0.54c0.296-0.114,0.38-0.241,0.38-0.241
			c-0.042,0-0.045-0.057-0.045-0.057c0.014,0.126-0.375,0.218-0.375,0.218c-0.336-0.321-0.253-0.457-0.253-0.457
			c0.217-0.154,0.229-0.191,0.229-0.191c-0.052-0.029-0.043-0.053-0.041-0.057C11.291,8.25,11.154,8.29,11.154,8.29
			c-0.114-0.029-0.262-0.26-0.281-0.357c-0.019-0.097,0.012-0.143,0.012-0.143c0.116-0.161,0.285,0.061,0.325,0.078
			c0.04,0.017,0.161,0.141,0.161,0.141c0.226,0.14,0.422,0.478,0.524,0.648c0.059,0.101,0.185,0.453,0.209,0.49
			c0.029,0.045,0.148,0.44,0.182,0.527c0.015,0.039,0.056,0.082,0.062,0.092c0.078,0.127,0.016,0.071-0.05,0.071
			S12.22,9.863,12.22,9.863c0.024,0.024,0.108,0.031,0.108,0.031c0.217,0.04,0.268,0.142,0.287,0.161
			c0.019,0.019,0.034,0.055-0.055,0.015c-0.064-0.029-0.211-0.062-0.211-0.062c-0.11-0.038-0.148,0.013-0.148,0.013
			c0.171,0.049,0.258,0.087,0.34,0.149c0.052,0.041,0.116,0.113,0.116,0.113c-0.188-0.021-0.358-0.008-0.471,0.028
			c-0.217,0.069-0.433,0.281-0.433,0.281c-0.027,0.213,0.055,0.028,0.068,0.017c0.206-0.187,0.487-0.249,0.487-0.249
			c0.498-0.051,0.604,0.085,0.769,0.16c0.06,0.028,0.091,0.025,0.091,0.025c-0.065-0.038-0.144-0.117-0.144-0.117
			c-0.215-0.084-0.237-0.117-0.237-0.117c-0.076-0.131,0.038-0.266,0.038-0.266c0.148,0.147,0.344,0.216,0.391,0.229
			c-0.031-0.016-0.061-0.086-0.061-0.086c-0.276-0.115-0.262-0.279-0.262-0.414s-0.044-0.221,0.06-0.194
			c0.103,0.027,0.177-0.013,0.177-0.013c-0.233-0.127-0.19-0.24-0.211-0.456c-0.021-0.215,0.035-0.307,0.182-0.354
			c0.147-0.048,0.135,0.329,0.135,0.329c0.11,0.11,0.11,0.677,0.11,0.677c0.19,0.305-0.004,0.709-0.004,0.709
			c-0.026,0.479-0.213,0.994-0.274,1.056c-0.024,0.023-0.42,0.591-0.42,0.591c0.038-0.029,0.173-0.148,0.349-0.41
			c0.207-0.308,0.143-0.117,0.148-0.075c0.11,0.941,0.642,1.47,0.642,1.47s-0.753,0.977-1.377,1.279c0,0-0.137,0.005-0.427-1.005
			c-0.048-0.169-0.32-0.695-0.329-0.706c-0.199-0.211-0.013-0.177-0.013-0.177c0.279,0,0.502-0.118,0.502-0.118l0.036-0.018
			c-0.257,0.061-0.556,0.086-0.69,0.028c-0.24-0.104-0.271-0.163-0.494-0.419c-0.252-0.289-0.414-0.705-0.481-0.894
			c-0.067-0.188,0.008-0.15,0.008-0.29c0-0.078,0.057-0.254,0.12-0.34c-0.083,0.009-0.106,0.165-0.162,0.242
			c-0.034,0.047-0.055,0.102-0.055,0.102c-0.104,0-0.154-0.236-0.182-0.334c-0.021-0.071-0.152-0.386-0.152-0.386
			c0.203-0.021,0.264-0.171,0.264-0.171c-0.224,0.131-0.302,0.071-0.302,0.071C10.075,9.929,9.904,9.627,9.959,9.646z M9.807,9.226
			c0.021-0.13,0.139-0.149,0.188-0.127c0.122,0.057,0.146,0.094,0.154,0.115c0.092,0.227,0.076,0.279,0.076,0.279
			c0.013,0.094-0.182,0.1-0.182,0.1C9.849,9.586,9.807,9.226,9.807,9.226z"/>
		<path d="M11.521,9.769c0,0-0.191,1.107-0.507,1.423C11.015,11.191,11.26,10.754,11.521,9.769z"/>
		<path d="M11.868,9.925c0,0-0.314,0.224-0.232,0.873c0.037,0.295,0.101,0.79,0.375,1.162c0,0-0.312-0.119-0.443-1.131
			C11.537,10.593,11.509,10.114,11.868,9.925z"/>
	</g>
	<path id="Outer_Circle_1_" d="M9,0.288c1.176,0,2.317,0.23,3.391,0.685C13.428,1.411,14.36,2.04,15.16,2.84
		c0.8,0.8,1.429,1.731,1.867,2.769C17.481,6.683,17.712,7.823,17.712,9s-0.23,2.317-0.685,3.392
		c-0.438,1.037-1.067,1.969-1.867,2.769c-0.8,0.8-1.732,1.429-2.769,1.867c-1.074,0.454-2.215,0.685-3.391,0.685
		s-2.317-0.23-3.391-0.685C4.571,16.589,3.64,15.96,2.84,15.16c-0.8-0.8-1.429-1.731-1.867-2.769C0.519,11.317,0.288,10.177,0.288,9
		s0.23-2.317,0.685-3.392C1.411,4.571,2.04,3.64,2.84,2.84c0.8-0.8,1.731-1.429,2.769-1.867C6.683,0.519,7.824,0.288,9,0.288 M9,0
		C4.029,0,0,4.029,0,9s4.029,9,9,9s9-4.029,9-9S13.971,0,9,0L9,0z"/>
	<path id="Inner_Circle_1_" d="M9,2.628c1.702,0,3.302,0.663,4.506,1.866C14.709,5.698,15.372,7.298,15.372,9
		s-0.663,3.302-1.866,4.506c-1.204,1.203-2.804,1.866-4.506,1.866s-3.302-0.663-4.506-1.866C3.291,12.302,2.628,10.702,2.628,9
		s0.663-3.302,1.866-4.506C5.698,3.291,7.298,2.628,9,2.628 M9,2.34C5.322,2.34,2.34,5.321,2.34,9S5.322,15.66,9,15.66
		s6.66-2.981,6.66-6.66S12.678,2.34,9,2.34L9,2.34z"/>
	<g id="Text">
		<path d="M3.52,13.427l0.022,0.023c0.028,0.035,0.053,0.064,0.075,0.088c0.021,0.022,0.047,0.049,0.08,0.08l0.026,0.021
			l-0.007,0.026c-0.055,0.066-0.096,0.122-0.125,0.167c-0.012,0.018-0.033,0.048-0.06,0.09c-0.028,0.041-0.044,0.065-0.047,0.071
			l-0.002,0.004l0.014,0.015c0.01,0.01,0.041,0.045,0.094,0.105c0.004,0.005,0.02,0.021,0.047,0.048
			c0.037,0.038,0.061,0.062,0.072,0.074c0,0,0.004-0.002,0.014-0.007s0.033-0.018,0.069-0.037c0.053-0.027,0.093-0.049,0.12-0.063
			s0.045-0.024,0.055-0.032c0.029-0.018,0.06-0.038,0.092-0.061l0.005-0.006l0.025,0.001c0.009,0.009,0.014,0.016,0.015,0.02
			c0.022,0.028,0.043,0.053,0.062,0.073c0.015,0.016,0.03,0.029,0.045,0.041c0.005,0.003,0.013,0.01,0.024,0.022L4.225,14.22
			c-0.043,0.007-0.087,0.019-0.132,0.035c-0.045,0.018-0.104,0.041-0.174,0.072l-0.014,0.007c-0.054,0.024-0.126,0.059-0.216,0.102
			c-0.09,0.044-0.18,0.087-0.271,0.132c-0.091,0.044-0.168,0.082-0.232,0.115s-0.098,0.05-0.098,0.051
			c-0.004,0.004-0.007,0.01-0.01,0.018s-0.008,0.032-0.017,0.075l-0.032,0.013c-0.012-0.014-0.035-0.039-0.069-0.077
			C2.923,14.72,2.9,14.694,2.893,14.686c-0.006-0.007-0.016-0.016-0.029-0.028c-0.011-0.01-0.026-0.024-0.046-0.042l0.007-0.026
			c0.042-0.059,0.085-0.119,0.127-0.182c0.043-0.062,0.085-0.126,0.127-0.191c0.042-0.066,0.083-0.133,0.123-0.199
			s0.076-0.127,0.107-0.18c0.037-0.064,0.066-0.115,0.087-0.153c0.021-0.038,0.038-0.071,0.051-0.099
			c0.013-0.028,0.022-0.053,0.029-0.073c0.006-0.021,0.011-0.046,0.015-0.072L3.52,13.427z M3.172,14.504l-0.005,0.003h0l0.11-0.053
			c0.074-0.035,0.138-0.066,0.192-0.092c0.054-0.026,0.093-0.046,0.119-0.06c-0.004-0.004-0.015-0.017-0.033-0.036
			c-0.019-0.021-0.041-0.045-0.067-0.073L3.41,14.11c-0.061,0.097-0.113,0.18-0.156,0.251C3.212,14.433,3.185,14.479,3.172,14.504z"
			/>
		<path d="M2.879,12.489l0.158,0.233c-0.005,0.034-0.015,0.066-0.029,0.097s-0.036,0.069-0.064,0.119
			c-0.003,0.006-0.005,0.01-0.006,0.012c-0.001,0.001-0.009,0.016-0.025,0.043c-0.045,0.078-0.072,0.125-0.081,0.14
			c-0.011,0.021-0.021,0.04-0.03,0.06c-0.01,0.02-0.018,0.041-0.025,0.066c-0.007,0.025-0.01,0.05-0.008,0.073
			c0.002,0.024,0.009,0.046,0.022,0.065C2.8,13.41,2.81,13.423,2.821,13.437s0.018,0.021,0.02,0.022l0.022-0.015
			c0.027-0.018,0.05-0.033,0.069-0.046c0.04-0.026,0.079-0.054,0.115-0.079c0.037-0.025,0.064-0.045,0.082-0.059
			c0.038-0.028,0.066-0.051,0.084-0.069c0.018-0.018,0.038-0.038,0.059-0.062l0.006-0.007l0.029-0.004
			c0.009,0.021,0.017,0.038,0.022,0.049c0.005,0.01,0.016,0.027,0.033,0.051c0.017,0.026,0.032,0.048,0.046,0.066
			c0.013,0.019,0.03,0.038,0.052,0.059l-0.016,0.029c-0.021,0.004-0.042,0.01-0.064,0.02c-0.021,0.009-0.053,0.024-0.093,0.048
			c-0.024,0.014-0.061,0.036-0.109,0.066s-0.1,0.063-0.154,0.101c-0.07,0.045-0.161,0.106-0.272,0.182
			c-0.062,0.043-0.119,0.081-0.169,0.117c-0.05,0.035-0.089,0.064-0.116,0.087c-0.015,0.015-0.027,0.028-0.036,0.043
			c-0.009,0.015-0.018,0.036-0.026,0.065l-0.037,0.005c-0.01-0.026-0.02-0.046-0.028-0.061s-0.021-0.032-0.036-0.055
			c-0.035-0.052-0.065-0.096-0.091-0.132c-0.025-0.035-0.048-0.065-0.068-0.09c-0.001-0.002-0.007-0.01-0.018-0.023
			c-0.022-0.027-0.044-0.055-0.064-0.081c-0.021-0.027-0.035-0.049-0.045-0.063c-0.05-0.074-0.065-0.146-0.045-0.217
			s0.063-0.127,0.128-0.171c0.046-0.031,0.093-0.053,0.141-0.064s0.094-0.016,0.14-0.011c0.045,0.004,0.088,0.014,0.128,0.029
			s0.063,0.025,0.069,0.03l0.001,0.001c0.001,0,0.002-0.01,0.002-0.027c0.002-0.021,0.007-0.045,0.016-0.068
			c0.008-0.023,0.021-0.049,0.036-0.078s0.038-0.068,0.066-0.118c0.041-0.071,0.073-0.128,0.095-0.17
			c0.021-0.042,0.037-0.075,0.045-0.101s0.013-0.046,0.014-0.061c0-0.014-0.002-0.039-0.007-0.073L2.879,12.489z M2.754,13.52
			c-0.002-0.005-0.006-0.013-0.012-0.024s-0.014-0.025-0.023-0.04c-0.033-0.049-0.07-0.084-0.11-0.104s-0.081-0.029-0.12-0.028
			c-0.04,0.002-0.076,0.01-0.11,0.023s-0.062,0.028-0.086,0.045c-0.062,0.042-0.103,0.089-0.12,0.14
			c-0.018,0.05-0.012,0.098,0.018,0.142c0.018,0.026,0.042,0.046,0.072,0.058c0.03,0.013,0.059,0.018,0.087,0.015
			c0.028-0.003,0.059-0.012,0.093-0.028s0.082-0.045,0.144-0.087L2.754,13.52z"/>
		<path d="M1.532,12.309c0.006,0.025,0.012,0.045,0.017,0.058c0.005,0.012,0.012,0.028,0.022,0.049
			c0.013,0.029,0.049,0.104,0.108,0.225c0.008,0.018,0.015,0.028,0.018,0.031c0.003,0.004,0.009,0.006,0.017,0.005
			c0.006-0.002,0.025-0.01,0.059-0.024s0.074-0.033,0.122-0.057c0.068-0.031,0.129-0.061,0.182-0.087
			c-0.031-0.062-0.059-0.12-0.084-0.17c-0.025-0.051-0.041-0.08-0.045-0.089c-0.014-0.021-0.027-0.037-0.039-0.045
			c-0.012-0.008-0.03-0.018-0.055-0.027l-0.026-0.009l0.014-0.04l0.203-0.08c0.011,0.032,0.021,0.059,0.028,0.08
			c0.008,0.021,0.02,0.051,0.037,0.088c0.006,0.016,0.025,0.057,0.058,0.121l0.048,0.104l0.047-0.023
			c0.03-0.014,0.053-0.024,0.069-0.032c0.05-0.024,0.098-0.049,0.146-0.073c0.047-0.024,0.076-0.039,0.085-0.044
			c0.008-0.006,0.011-0.011,0.011-0.015c-0.001-0.005-0.01-0.025-0.028-0.062C2.52,12.143,2.5,12.104,2.485,12.075
			c-0.014-0.026-0.026-0.047-0.036-0.063s-0.019-0.029-0.024-0.037c-0.01-0.011-0.021-0.02-0.033-0.025
			c-0.012-0.007-0.035-0.015-0.069-0.025l0.009-0.041l0.219-0.097c0.014,0.029,0.026,0.057,0.035,0.084
			c0.005,0.013,0.009,0.024,0.014,0.034c0.007,0.021,0.024,0.061,0.052,0.119s0.062,0.129,0.102,0.212
			c0.017,0.033,0.032,0.064,0.047,0.093s0.031,0.054,0.048,0.075l-0.02,0.03c-0.025,0.001-0.047,0.004-0.066,0.009
			c-0.019,0.006-0.043,0.015-0.074,0.026c-0.026,0.011-0.058,0.024-0.095,0.041s-0.078,0.035-0.122,0.056
			c-0.082,0.037-0.155,0.072-0.218,0.104c-0.141,0.068-0.247,0.121-0.318,0.157c-0.071,0.035-0.121,0.062-0.151,0.081
			c-0.03,0.018-0.051,0.032-0.064,0.044s-0.023,0.024-0.031,0.039l-0.033,0.002c-0.018-0.044-0.035-0.084-0.052-0.12
			c-0.016-0.035-0.042-0.091-0.079-0.166c-0.021-0.041-0.042-0.084-0.064-0.127c-0.011-0.023-0.021-0.043-0.031-0.059
			s-0.016-0.027-0.022-0.036c-0.003-0.005-0.006-0.008-0.007-0.011c-0.01-0.016-0.021-0.029-0.032-0.039s-0.036-0.023-0.075-0.044
			l0.01-0.039L1.532,12.309z"/>
		<path d="M2.159,10.69l0.01,0.03c0.01,0.043,0.021,0.081,0.031,0.112c0.01,0.029,0.022,0.063,0.039,0.105l0.014,0.031L2.235,10.99
			c-0.078,0.037-0.139,0.069-0.184,0.097c-0.019,0.012-0.05,0.031-0.093,0.057c-0.043,0.025-0.067,0.041-0.073,0.045L1.882,11.19
			l0.006,0.02c0.004,0.014,0.018,0.059,0.041,0.137c0.002,0.006,0.009,0.026,0.023,0.062c0.018,0.05,0.029,0.082,0.034,0.098
			c0,0,0.004,0,0.016,0s0.037-0.002,0.078-0.004c0.06-0.003,0.105-0.005,0.135-0.007c0.031-0.002,0.052-0.004,0.063-0.006
			c0.034-0.004,0.07-0.01,0.109-0.017l0.007-0.003l0.022,0.012c0.004,0.012,0.005,0.02,0.005,0.023
			c0.008,0.036,0.017,0.066,0.025,0.093c0.007,0.021,0.015,0.04,0.023,0.057c0.003,0.005,0.008,0.015,0.013,0.031l-0.022,0.021
			c-0.042-0.012-0.087-0.02-0.135-0.023c-0.048-0.004-0.111-0.007-0.188-0.009H2.123c-0.06-0.001-0.139,0-0.239,0.001
			s-0.2,0.003-0.3,0.004c-0.101,0.002-0.188,0.004-0.26,0.007c-0.073,0.002-0.109,0.004-0.11,0.004
			c-0.006,0.002-0.011,0.006-0.017,0.012s-0.021,0.025-0.047,0.061l-0.034-0.002c-0.006-0.018-0.016-0.051-0.031-0.099
			c-0.015-0.054-0.024-0.087-0.028-0.099c-0.003-0.008-0.008-0.021-0.014-0.037c-0.006-0.014-0.014-0.033-0.024-0.058l0.018-0.021
			c0.063-0.035,0.127-0.072,0.192-0.11s0.131-0.078,0.196-0.12c0.065-0.043,0.131-0.085,0.196-0.128
			c0.065-0.044,0.123-0.083,0.173-0.117c0.061-0.042,0.109-0.076,0.144-0.103c0.036-0.025,0.065-0.049,0.088-0.068
			c0.023-0.019,0.042-0.037,0.058-0.053c0.015-0.017,0.03-0.036,0.044-0.06L2.159,10.69z M1.388,11.519H1.382v0.001l0.122-0.002
			c0.082-0.001,0.153-0.001,0.213-0.002s0.104-0.002,0.132-0.003c-0.002-0.006-0.007-0.021-0.015-0.047
			c-0.008-0.026-0.018-0.059-0.03-0.095L1.77,11.263c-0.096,0.062-0.179,0.115-0.247,0.161S1.409,11.502,1.388,11.519z"/>
		<path d="M0.954,8.764L0.946,8.789C0.902,8.814,0.867,8.842,0.843,8.87C0.818,8.899,0.8,8.928,0.787,8.955
			C0.775,8.982,0.767,9.008,0.763,9.031C0.758,9.055,0.756,9.075,0.757,9.093c0.001,0.04,0.014,0.083,0.039,0.129
			s0.063,0.09,0.113,0.131c0.05,0.042,0.113,0.075,0.189,0.101C1.174,9.478,1.26,9.489,1.354,9.487
			C1.44,9.486,1.517,9.475,1.583,9.452C1.65,9.431,1.706,9.401,1.75,9.364c0.044-0.037,0.078-0.08,0.1-0.127
			s0.032-0.097,0.031-0.148c0-0.033-0.008-0.07-0.022-0.109C1.845,8.939,1.825,8.899,1.8,8.856S1.748,8.773,1.716,8.734
			C1.685,8.694,1.646,8.652,1.6,8.607l0.032-0.028C1.669,8.59,1.721,8.604,1.787,8.62s0.126,0.031,0.181,0.045l0.007,0.377
			c0,0.003,0,0.011,0.001,0.021S1.977,9.09,1.979,9.111c0.002,0.022,0.003,0.04,0.004,0.051c0.001,0.012,0.001,0.02,0.001,0.024
			c0.001,0.056,0,0.102-0.004,0.141C1.976,9.365,1.968,9.401,1.956,9.435C1.943,9.469,1.925,9.5,1.9,9.529
			C1.876,9.559,1.844,9.587,1.804,9.614C1.692,9.694,1.55,9.735,1.379,9.738C1.331,9.739,1.278,9.735,1.22,9.728
			S1.102,9.704,1.039,9.681s-0.122-0.06-0.177-0.107C0.808,9.525,0.766,9.464,0.736,9.392c-0.01-0.023-0.021-0.056-0.033-0.096
			S0.68,9.213,0.669,9.168S0.649,9.081,0.643,9.04C0.636,9,0.632,8.97,0.632,8.947C0.631,8.868,0.646,8.798,0.676,8.733
			C0.707,8.67,0.757,8.61,0.827,8.554l0.025,0.002L0.954,8.764z"/>
		<path d="M1.264,8.106l0.059-0.396c0.01-0.066,0.015-0.11,0.016-0.132L1.315,7.575C1.285,7.569,1.27,7.566,1.268,7.566
			C1.224,7.56,1.179,7.554,1.135,7.549C1.09,7.544,1.047,7.54,1.005,7.536C0.964,7.532,0.925,7.53,0.889,7.528
			c-0.036,0-0.068,0.001-0.098,0.006L0.78,7.507l0.001-0.013C0.786,7.482,0.79,7.471,0.792,7.458C0.796,7.446,0.8,7.423,0.805,7.39
			c0.005-0.032,0.008-0.056,0.009-0.07c0.001-0.016,0.001-0.036,0.001-0.063l0.029-0.012C0.878,7.26,0.947,7.278,1.051,7.302
			c0.104,0.022,0.222,0.044,0.354,0.063c0.129,0.02,0.226,0.034,0.291,0.042c0.064,0.01,0.124,0.017,0.177,0.022
			s0.098,0.009,0.134,0.009c0.036,0.001,0.07-0.002,0.103-0.007l0.022,0.021c-0.007,0.021-0.012,0.04-0.016,0.058
			C2.11,7.53,2.106,7.557,2.101,7.593C2.096,7.626,2.093,7.649,2.091,7.661c-0.001,0.013,0,0.032,0.001,0.061L2.062,7.727
			C2.031,7.713,2,7.701,1.97,7.692c-0.03-0.01-0.065-0.019-0.104-0.026C1.826,7.658,1.779,7.649,1.725,7.64
			C1.67,7.63,1.596,7.618,1.501,7.603l-0.04,0.266C1.46,7.876,1.453,7.927,1.441,8.019C1.432,8.09,1.427,8.127,1.426,8.131
			l0.157,0.023c0.062,0.009,0.115,0.017,0.16,0.021c0.044,0.005,0.08,0.009,0.108,0.01C1.88,8.188,1.904,8.188,1.923,8.187
			c0.02,0,0.046-0.002,0.08-0.006l0.014,0.027c-0.005,0.02-0.01,0.035-0.013,0.047C2,8.269,1.997,8.291,1.992,8.324
			C1.988,8.35,1.985,8.373,1.984,8.396S1.981,8.438,1.979,8.456L1.958,8.475C1.932,8.463,1.907,8.454,1.883,8.446
			C1.86,8.439,1.83,8.432,1.795,8.424c-0.123-0.026-0.286-0.056-0.49-0.086C1.119,8.31,0.983,8.292,0.898,8.283
			c-0.085-0.009-0.156-0.01-0.213-0.001L0.666,8.261C0.674,8.231,0.68,8.204,0.685,8.18s0.009-0.048,0.012-0.071
			c0.004-0.023,0.006-0.04,0.006-0.051c0-0.01,0.001-0.029,0.001-0.057l0.025-0.013c0.074,0.026,0.149,0.047,0.225,0.062
			C1.03,8.066,1.133,8.085,1.264,8.106z"/>
		<path d="M2.467,6.36L2.381,6.63C2.351,6.646,2.32,6.659,2.287,6.667C2.255,6.675,2.211,6.683,2.155,6.69
			C2.147,6.692,2.143,6.692,2.141,6.692C2.14,6.693,2.124,6.695,2.092,6.7c-0.089,0.013-0.143,0.021-0.16,0.023
			C1.91,6.728,1.888,6.731,1.867,6.736S1.824,6.748,1.8,6.759c-0.024,0.01-0.045,0.022-0.063,0.039
			c-0.018,0.016-0.03,0.035-0.038,0.058C1.695,6.87,1.691,6.886,1.688,6.902C1.684,6.919,1.682,6.93,1.682,6.932L1.708,6.94
			c0.03,0.01,0.056,0.019,0.078,0.025C1.832,6.98,1.876,6.994,1.919,7.007s0.075,0.022,0.097,0.028
			c0.046,0.012,0.081,0.02,0.106,0.023c0.025,0.003,0.054,0.006,0.086,0.008h0.01l0.021,0.021c-0.012,0.021-0.02,0.037-0.025,0.047
			c-0.005,0.011-0.012,0.03-0.021,0.058C2.184,7.222,2.176,7.247,2.17,7.269S2.159,7.316,2.156,7.346L2.124,7.352
			C2.108,7.337,2.089,7.324,2.069,7.312C2.048,7.302,2.017,7.287,1.973,7.271c-0.026-0.012-0.066-0.026-0.12-0.045
			C1.8,7.206,1.741,7.187,1.679,7.167C1.601,7.141,1.497,7.106,1.367,7.065C1.296,7.043,1.23,7.022,1.171,7.005
			c-0.059-0.018-0.106-0.029-0.14-0.037C1.01,6.965,0.992,6.964,0.975,6.967c-0.017,0.002-0.039,0.009-0.067,0.02L0.881,6.96
			c0.014-0.023,0.024-0.044,0.03-0.06c0.005-0.016,0.013-0.036,0.021-0.062C0.95,6.778,0.966,6.728,0.978,6.686S1,6.607,1.007,6.576
			C1.008,6.574,1.01,6.565,1.014,6.548c0.007-0.035,0.015-0.068,0.024-0.102C1.047,6.414,1.054,6.39,1.06,6.372
			c0.027-0.086,0.075-0.143,0.143-0.17C1.27,6.175,1.341,6.173,1.415,6.196c0.053,0.018,0.099,0.041,0.138,0.071
			S1.624,6.332,1.648,6.37c0.025,0.039,0.044,0.078,0.056,0.119s0.019,0.065,0.019,0.072L1.723,6.563
			c0.001,0,0.009-0.004,0.023-0.015c0.019-0.013,0.039-0.022,0.063-0.03s0.052-0.015,0.084-0.021
			C1.926,6.492,1.97,6.485,2.027,6.478c0.082-0.012,0.146-0.022,0.192-0.031s0.082-0.018,0.107-0.027S2.37,6.401,2.382,6.393
			c0.012-0.009,0.029-0.025,0.053-0.051L2.467,6.36z M1.58,6.9c0.002-0.005,0.006-0.013,0.012-0.024
			C1.598,6.864,1.604,6.85,1.608,6.833c0.019-0.057,0.023-0.107,0.014-0.151C1.613,6.638,1.596,6.601,1.57,6.57
			C1.544,6.54,1.516,6.517,1.484,6.498C1.452,6.48,1.423,6.467,1.396,6.458C1.323,6.436,1.262,6.433,1.211,6.45
			s-0.084,0.052-0.1,0.103c-0.01,0.03-0.01,0.062-0.001,0.093c0.009,0.031,0.023,0.057,0.043,0.077s0.046,0.039,0.08,0.055
			c0.034,0.017,0.086,0.036,0.157,0.06L1.58,6.9z"/>
		<path d="M2.496,6.283C2.47,6.265,2.442,6.245,2.413,6.226C2.383,6.207,2.34,6.183,2.282,6.153
			C2.222,6.124,2.157,6.093,2.087,6.061C2.018,6.028,1.932,5.989,1.831,5.944c-0.133-0.06-0.234-0.102-0.304-0.129
			C1.458,5.789,1.39,5.77,1.324,5.759L1.31,5.74c0.005-0.012,0.01-0.021,0.015-0.029c0.007-0.013,0.015-0.026,0.023-0.043
			c0.009-0.016,0.018-0.036,0.029-0.06c0.009-0.02,0.015-0.036,0.019-0.048s0.008-0.023,0.012-0.036
			c0.004-0.012,0.007-0.021,0.01-0.026L1.44,5.481C1.475,5.506,1.504,5.525,1.526,5.54C1.549,5.554,1.58,5.571,1.619,5.592
			c0.129,0.066,0.307,0.15,0.532,0.25c0.083,0.037,0.149,0.065,0.2,0.087c0.05,0.021,0.096,0.039,0.137,0.053
			c0.024,0.008,0.043,0.014,0.06,0.017c0.016,0.004,0.038,0.008,0.065,0.013l0.015,0.023L2.613,6.061
			C2.591,6.102,2.573,6.138,2.559,6.169C2.55,6.188,2.544,6.202,2.541,6.212C2.537,6.223,2.533,6.234,2.529,6.248
			c0,0.006-0.004,0.016-0.01,0.03L2.496,6.283z"/>
		<path d="M2.474,5.493c0.015,0.022,0.029,0.041,0.042,0.056c0.013,0.014,0.029,0.026,0.048,0.037
			c0.017,0.01,0.035,0.017,0.055,0.021c0.02,0.005,0.04,0.006,0.061,0.003c0.021-0.002,0.04-0.01,0.058-0.022
			c0.019-0.013,0.035-0.032,0.049-0.057c0.02-0.034,0.028-0.072,0.025-0.113C2.809,5.377,2.797,5.337,2.777,5.296
			c-0.02-0.04-0.045-0.076-0.075-0.109c-0.03-0.033-0.062-0.059-0.094-0.077C2.57,5.088,2.537,5.075,2.51,5.072
			S2.462,5.071,2.446,5.078C2.431,5.086,2.418,5.095,2.409,5.106S2.391,5.132,2.381,5.147C2.38,5.15,2.37,5.171,2.351,5.209
			C2.339,5.235,2.325,5.265,2.308,5.3C2.291,5.334,2.279,5.356,2.274,5.366c-0.018,0.031-0.04,0.062-0.065,0.09
			c-0.025,0.029-0.059,0.05-0.1,0.062C2.074,5.529,2.037,5.532,1.999,5.525C1.96,5.52,1.922,5.506,1.885,5.484
			C1.841,5.46,1.803,5.429,1.771,5.392C1.738,5.355,1.713,5.315,1.694,5.272C1.676,5.23,1.665,5.187,1.662,5.142
			c-0.003-0.046,0.001-0.089,0.015-0.13C1.683,4.993,1.691,4.97,1.702,4.943c0.011-0.027,0.024-0.056,0.039-0.085
			c0.014-0.029,0.028-0.055,0.04-0.076s0.021-0.04,0.03-0.056c0.021-0.036,0.04-0.067,0.058-0.091s0.041-0.045,0.068-0.062
			s0.061-0.023,0.1-0.021c0.039,0.004,0.082,0.02,0.13,0.047l0.016,0.009c0.01,0.007,0.021,0.015,0.033,0.021L2.183,4.688
			C2.175,4.698,2.171,4.706,2.169,4.709C2.16,4.726,2.152,4.739,2.146,4.751C2.141,4.764,2.125,4.797,2.099,4.852L2.071,4.849
			C2.064,4.845,2.06,4.842,2.059,4.841c-0.01-0.008-0.019-0.015-0.028-0.02C2.002,4.805,1.977,4.796,1.954,4.796
			S1.913,4.8,1.899,4.809C1.885,4.816,1.874,4.826,1.866,4.837c-0.008,0.01-0.016,0.021-0.021,0.031
			c-0.02,0.035-0.031,0.071-0.032,0.107C1.811,5.013,1.817,5.048,1.831,5.083C1.845,5.118,1.864,5.15,1.89,5.179
			C1.915,5.208,1.942,5.23,1.972,5.247C2.003,5.266,2.03,5.274,2.054,5.275s0.043-0.003,0.059-0.012
			C2.127,5.255,2.14,5.245,2.148,5.234c0.009-0.011,0.017-0.022,0.024-0.035c0.005-0.01,0.027-0.057,0.066-0.142
			c0.013-0.027,0.026-0.054,0.038-0.08s0.021-0.044,0.025-0.053C2.322,4.888,2.347,4.86,2.374,4.842s0.058-0.03,0.091-0.033
			c0.031-0.003,0.065,0,0.101,0.008c0.036,0.007,0.076,0.023,0.12,0.049C2.742,4.897,2.79,4.936,2.829,4.98
			c0.039,0.045,0.069,0.091,0.09,0.141C2.94,5.17,2.953,5.219,2.958,5.267c0.004,0.049,0.001,0.093-0.011,0.133
			C2.943,5.417,2.934,5.442,2.92,5.474s-0.027,0.06-0.042,0.087S2.849,5.617,2.833,5.648c-0.017,0.032-0.031,0.059-0.043,0.08
			c-0.02,0.036-0.041,0.063-0.061,0.084C2.708,5.833,2.683,5.847,2.652,5.855c-0.035,0.01-0.071,0.01-0.106,0
			C2.511,5.847,2.478,5.833,2.448,5.816C2.421,5.801,2.399,5.785,2.381,5.77S2.347,5.735,2.331,5.715
			C2.355,5.671,2.374,5.636,2.387,5.61s0.031-0.062,0.055-0.112L2.474,5.493z"/>
		<path d="M2.885,3.566c-0.054,0.058-0.091,0.098-0.11,0.12c-0.02,0.021-0.039,0.045-0.058,0.068
			C2.695,3.782,2.684,3.801,2.682,3.812L2.68,3.828c0.012,0.017,0.058,0.06,0.137,0.129S3,4.112,3.129,4.214
			c0.069,0.055,0.125,0.1,0.17,0.134s0.081,0.06,0.109,0.079c0.029,0.02,0.053,0.034,0.073,0.045
			c0.021,0.011,0.048,0.024,0.083,0.041l0.009,0.031C3.556,4.558,3.541,4.57,3.529,4.581C3.518,4.593,3.503,4.61,3.486,4.632
			c-0.02,0.025-0.034,0.045-0.043,0.06C3.433,4.706,3.422,4.726,3.41,4.749L3.38,4.747C3.359,4.72,3.332,4.688,3.296,4.653
			C3.262,4.619,3.223,4.583,3.18,4.546S3.096,4.475,3.058,4.443S2.979,4.38,2.936,4.346C2.891,4.31,2.847,4.275,2.803,4.242
			C2.759,4.21,2.716,4.178,2.674,4.147C2.633,4.116,2.598,4.091,2.569,4.071C2.541,4.051,2.521,4.039,2.512,4.034
			C2.507,4.032,2.504,4.03,2.502,4.03C2.5,4.031,2.497,4.036,2.49,4.044C2.439,4.107,2.401,4.162,2.375,4.207
			S2.333,4.308,2.326,4.374L2.286,4.372L2.158,4.19c0.019-0.023,0.036-0.044,0.051-0.062c0.028-0.034,0.063-0.076,0.104-0.126
			c0.041-0.05,0.09-0.11,0.146-0.183c0.065-0.081,0.114-0.145,0.146-0.188c0.033-0.043,0.057-0.076,0.072-0.1
			c0.008-0.012,0.014-0.021,0.017-0.028c0.003-0.006,0.005-0.013,0.007-0.019c0.001-0.007,0.002-0.014,0.001-0.023
			S2.701,3.437,2.698,3.413l0-0.029l0.051-0.008L2.885,3.566z"/>
		<path d="M3.871,4.167C3.854,4.141,3.835,4.113,3.814,4.085C3.793,4.056,3.761,4.019,3.717,3.971
			C3.671,3.922,3.622,3.87,3.567,3.815c-0.054-0.055-0.12-0.121-0.199-0.199C3.264,3.514,3.185,3.438,3.129,3.389
			c-0.055-0.05-0.112-0.091-0.169-0.125L2.952,3.241C2.961,3.232,2.969,3.225,2.977,3.22C2.987,3.21,3,3.2,3.013,3.188
			s0.03-0.027,0.048-0.046c0.015-0.016,0.027-0.028,0.035-0.038s0.016-0.02,0.023-0.029s0.014-0.017,0.019-0.021l0.027-0.008
			C3.189,3.08,3.21,3.108,3.226,3.13c0.016,0.021,0.039,0.049,0.069,0.082c0.097,0.107,0.234,0.248,0.41,0.421
			c0.064,0.063,0.117,0.114,0.157,0.151c0.04,0.038,0.077,0.07,0.11,0.098c0.02,0.017,0.036,0.028,0.05,0.037
			s0.033,0.02,0.057,0.034L4.084,3.98L4.06,3.999C4.024,4.03,3.995,4.058,3.971,4.082C3.956,4.097,3.945,4.108,3.938,4.116
			S3.923,4.134,3.915,4.146C3.912,4.151,3.905,4.159,3.895,4.17L3.871,4.167z"/>
		<path d="M4.96,3.229l-0.024,0.02C4.898,3.274,4.867,3.297,4.842,3.317c-0.023,0.02-0.051,0.044-0.084,0.074L4.733,3.416
			L4.708,3.407C4.646,3.349,4.593,3.303,4.551,3.271C4.533,3.257,4.504,3.235,4.465,3.204c-0.039-0.03-0.062-0.048-0.068-0.051
			L4.394,3.15L4.377,3.163C4.367,3.172,4.33,3.201,4.266,3.25C4.261,3.254,4.244,3.269,4.215,3.294
			c-0.04,0.035-0.066,0.057-0.079,0.067c0-0.001,0.002,0.004,0.006,0.015c0.004,0.01,0.015,0.033,0.032,0.071
			c0.024,0.055,0.042,0.096,0.055,0.124c0.013,0.027,0.022,0.047,0.028,0.057c0.016,0.03,0.034,0.062,0.055,0.096l0.005,0.006
			L4.314,3.755c-0.01,0.008-0.017,0.012-0.021,0.013c-0.03,0.021-0.056,0.039-0.077,0.058C4.2,3.839,4.185,3.853,4.172,3.867
			C4.169,3.872,4.162,3.88,4.148,3.89L4.121,3.878C4.117,3.834,4.108,3.789,4.095,3.743c-0.014-0.047-0.034-0.106-0.06-0.179
			L4.029,3.55c-0.021-0.056-0.05-0.13-0.087-0.223C3.905,3.235,3.867,3.142,3.83,3.049c-0.038-0.094-0.071-0.174-0.1-0.24
			S3.687,2.708,3.686,2.707C3.683,2.703,3.677,2.699,3.67,2.696C3.662,2.692,3.638,2.686,3.596,2.675l-0.01-0.033
			C3.6,2.63,3.626,2.608,3.667,2.577c0.045-0.033,0.072-0.054,0.081-0.062c0.007-0.005,0.017-0.015,0.03-0.026
			c0.011-0.011,0.026-0.025,0.045-0.043l0.026,0.009c0.055,0.046,0.112,0.093,0.172,0.14c0.059,0.047,0.12,0.094,0.183,0.14
			s0.126,0.092,0.19,0.137C4.458,2.916,4.515,2.956,4.565,2.99c0.062,0.042,0.11,0.074,0.147,0.098
			C4.75,3.111,4.781,3.13,4.808,3.146C4.834,3.16,4.858,3.171,4.879,3.18c0.021,0.008,0.044,0.015,0.071,0.02L4.96,3.229z
			 M3.909,2.808L3.907,2.802L3.906,2.803l0.046,0.113c0.03,0.076,0.057,0.142,0.079,0.197C4.053,3.169,4.07,3.21,4.082,3.235
			c0.004-0.003,0.017-0.014,0.039-0.03s0.047-0.037,0.077-0.062l0.088-0.072C4.193,3.004,4.114,2.946,4.046,2.899
			C3.978,2.852,3.933,2.821,3.909,2.808z"/>
		<path d="M5.167,1.57c0.024-0.009,0.042-0.017,0.054-0.021c0.012-0.005,0.028-0.014,0.048-0.025
			c0.015-0.008,0.03-0.018,0.046-0.028s0.04-0.027,0.071-0.049l0.026,0.018c-0.004,0.033-0.005,0.06-0.001,0.079
			c0.004,0.021,0.01,0.041,0.017,0.062c0.009,0.024,0.024,0.059,0.046,0.103C5.497,1.751,5.523,1.8,5.554,1.854
			C5.597,1.935,5.646,2.022,5.7,2.118c0.039,0.067,0.08,0.139,0.123,0.213C5.854,2.383,5.88,2.425,5.899,2.457
			c0.02,0.032,0.034,0.052,0.041,0.061C5.952,2.53,5.962,2.539,5.972,2.545s0.03,0.016,0.061,0.028L6.031,2.605
			C6.019,2.612,5.987,2.629,5.938,2.654C5.906,2.669,5.889,2.678,5.885,2.681C5.879,2.684,5.849,2.704,5.792,2.741L5.765,2.757
			C5.742,2.744,5.684,2.712,5.593,2.663c-0.091-0.05-0.171-0.094-0.24-0.131C5.284,2.495,5.214,2.458,5.145,2.421
			C5.075,2.383,5.024,2.355,4.991,2.339C4.981,2.334,4.949,2.317,4.893,2.287c-0.038-0.02-0.076-0.039-0.114-0.06H4.776
			c0.003,0.006,0.02,0.035,0.048,0.086s0.064,0.113,0.106,0.188L5.12,2.829c0.027,0.047,0.05,0.086,0.07,0.117
			c0.02,0.03,0.041,0.057,0.062,0.078L5.25,3.051C5.194,3.076,5.148,3.099,5.115,3.118C5.09,3.132,5.068,3.146,5.049,3.162
			L5.026,3.181L4.995,3.16C5,3.123,4.999,3.088,4.992,3.056C4.986,3.023,4.974,2.987,4.955,2.946
			C4.939,2.913,4.91,2.856,4.867,2.779c-0.043-0.077-0.095-0.17-0.156-0.277C4.665,2.419,4.624,2.349,4.589,2.288
			C4.56,2.239,4.534,2.198,4.513,2.163c-0.021-0.034-0.035-0.054-0.04-0.059C4.462,2.094,4.449,2.086,4.436,2.08
			C4.423,2.073,4.401,2.066,4.372,2.058l0.001-0.033c0.011-0.007,0.029-0.016,0.053-0.028c0.058-0.028,0.091-0.046,0.1-0.05
			c0.026-0.016,0.045-0.027,0.057-0.035s0.028-0.021,0.049-0.037c0.02,0.011,0.035,0.02,0.047,0.025
			c0.011,0.008,0.032,0.019,0.061,0.035c0.03,0.016,0.077,0.041,0.143,0.077C4.95,2.047,4.999,2.073,5.03,2.089l0.009,0.006
			C5.122,2.14,5.18,2.171,5.211,2.188c0.032,0.019,0.073,0.041,0.123,0.066c0.049,0.026,0.108,0.057,0.175,0.091
			C5.577,2.381,5.624,2.404,5.65,2.418C5.639,2.399,5.599,2.327,5.528,2.2L5.434,2.035C5.391,1.958,5.355,1.896,5.327,1.849
			C5.3,1.802,5.276,1.762,5.257,1.73C5.238,1.699,5.222,1.675,5.209,1.657C5.197,1.64,5.182,1.621,5.166,1.601L5.167,1.57z"/>
		<path d="M6.255,2.118C6.251,2.146,6.25,2.169,6.251,2.188c0.001,0.02,0.005,0.039,0.013,0.06C6.271,2.265,6.28,2.282,6.292,2.299
			s0.027,0.03,0.044,0.041c0.018,0.011,0.037,0.018,0.06,0.02s0.047-0.002,0.074-0.012c0.037-0.014,0.068-0.037,0.092-0.07
			c0.024-0.033,0.041-0.071,0.052-0.115s0.015-0.088,0.013-0.133C6.624,1.985,6.617,1.945,6.604,1.91
			C6.588,1.869,6.571,1.839,6.553,1.818C6.534,1.799,6.517,1.787,6.5,1.782C6.483,1.778,6.467,1.777,6.453,1.78
			s-0.03,0.007-0.047,0.014c-0.003,0.001-0.024,0.01-0.063,0.027C6.317,1.833,6.287,1.848,6.251,1.863S6.193,1.889,6.183,1.893
			C6.149,1.905,6.113,1.914,6.075,1.92s-0.077,0-0.116-0.017C5.925,1.89,5.895,1.868,5.869,1.838
			C5.844,1.809,5.824,1.773,5.809,1.733C5.791,1.687,5.782,1.638,5.78,1.589C5.779,1.54,5.785,1.493,5.798,1.449
			c0.013-0.045,0.033-0.086,0.06-0.122c0.027-0.037,0.058-0.066,0.095-0.09C5.969,1.227,5.99,1.215,6.016,1.201
			S6.07,1.175,6.1,1.161c0.03-0.013,0.057-0.024,0.08-0.033c0.023-0.01,0.042-0.018,0.059-0.023c0.04-0.015,0.074-0.025,0.103-0.032
			S6.4,1.063,6.433,1.069C6.465,1.073,6.495,1.09,6.522,1.117s0.051,0.067,0.07,0.118l0.007,0.018
			C6.602,1.266,6.605,1.278,6.61,1.29L6.548,1.313C6.536,1.317,6.528,1.32,6.524,1.321C6.507,1.328,6.492,1.334,6.48,1.34
			C6.468,1.345,6.434,1.36,6.379,1.386L6.36,1.366C6.357,1.358,6.355,1.354,6.355,1.352C6.353,1.339,6.35,1.328,6.347,1.319
			C6.335,1.288,6.32,1.265,6.304,1.25C6.287,1.235,6.27,1.227,6.254,1.225c-0.017-0.003-0.031-0.003-0.044,0
			S6.185,1.231,6.173,1.235C6.135,1.249,6.104,1.27,6.08,1.297C6.055,1.324,6.036,1.355,6.024,1.392
			c-0.012,0.035-0.017,0.072-0.017,0.11c0.001,0.038,0.008,0.073,0.02,0.105C6.04,1.642,6.055,1.666,6.072,1.682
			S6.107,1.707,6.125,1.71s0.033,0.004,0.046,0.001s0.027-0.007,0.041-0.012c0.01-0.004,0.058-0.026,0.142-0.067
			c0.027-0.012,0.054-0.023,0.08-0.036C6.46,1.583,6.478,1.575,6.487,1.571c0.04-0.014,0.076-0.02,0.109-0.017
			C6.629,1.558,6.66,1.569,6.688,1.588C6.713,1.606,6.737,1.63,6.76,1.658S6.803,1.726,6.82,1.773
			c0.022,0.061,0.034,0.12,0.035,0.179c0.001,0.06-0.006,0.115-0.021,0.166C6.82,2.17,6.798,2.216,6.771,2.256
			C6.743,2.296,6.712,2.327,6.678,2.35C6.663,2.361,6.64,2.374,6.609,2.39c-0.03,0.015-0.06,0.028-0.088,0.04
			S6.463,2.454,6.43,2.468S6.369,2.492,6.345,2.501c-0.039,0.015-0.072,0.022-0.1,0.025C6.216,2.529,6.188,2.523,6.159,2.511
			C6.125,2.495,6.098,2.473,6.077,2.442C6.056,2.413,6.04,2.382,6.028,2.35C6.017,2.32,6.01,2.294,6.006,2.271
			S6.001,2.222,6.002,2.196c0.047-0.018,0.083-0.032,0.11-0.044s0.064-0.028,0.114-0.052L6.255,2.118z"/>
		<path d="M8.862,0.82c-0.079,0-0.134,0-0.163,0c-0.03,0.001-0.06,0.002-0.09,0.004C8.575,0.827,8.553,0.831,8.544,0.838
			L8.531,0.847C8.526,0.867,8.525,0.93,8.528,1.035c0.002,0.105,0.01,0.24,0.021,0.403c0.006,0.088,0.012,0.16,0.017,0.216
			c0.005,0.056,0.01,0.101,0.016,0.134c0.005,0.034,0.011,0.062,0.017,0.085c0.005,0.022,0.014,0.052,0.026,0.089L8.608,1.989
			C8.586,1.985,8.567,1.983,8.551,1.982c-0.017-0.001-0.039,0-0.067,0.002C8.453,1.987,8.428,1.989,8.411,1.993
			C8.393,1.996,8.372,2.001,8.347,2.008l-0.02-0.024C8.333,1.95,8.338,1.909,8.34,1.859c0.002-0.049,0.002-0.103,0-0.159
			C8.338,1.644,8.336,1.591,8.333,1.542C8.33,1.492,8.327,1.44,8.323,1.386C8.318,1.328,8.313,1.272,8.309,1.218
			C8.303,1.163,8.298,1.11,8.292,1.059C8.287,1.008,8.281,0.965,8.277,0.93C8.272,0.896,8.269,0.873,8.265,0.862
			C8.264,0.857,8.263,0.854,8.261,0.854S8.254,0.853,8.243,0.853C8.162,0.859,8.096,0.868,8.045,0.879S7.942,0.916,7.89,0.956
			L7.863,0.925L7.91,0.708c0.03-0.003,0.057-0.004,0.08-0.004c0.045-0.003,0.1-0.006,0.164-0.009S8.296,0.687,8.388,0.68
			c0.104-0.007,0.183-0.014,0.237-0.019C8.68,0.655,8.721,0.65,8.748,0.646C8.762,0.644,8.773,0.642,8.78,0.64
			c0.006-0.002,0.013-0.005,0.019-0.008C8.804,0.628,8.81,0.623,8.816,0.616C8.823,0.61,8.833,0.598,8.848,0.58L8.87,0.56
			l0.041,0.032L8.862,0.82z"/>
		<path d="M10.143,1.551c-0.026,0.069-0.059,0.131-0.099,0.183c-0.039,0.053-0.082,0.096-0.128,0.13
			C9.87,1.897,9.823,1.924,9.777,1.94C9.748,1.951,9.711,1.96,9.667,1.967C9.622,1.974,9.575,1.979,9.527,1.983
			C9.479,1.987,9.435,1.989,9.395,1.99c-0.04,0.001-0.07,0.001-0.09-0.001C9.229,1.984,9.163,1.964,9.104,1.927
			C9.046,1.891,8.997,1.843,8.959,1.783c-0.038-0.06-0.065-0.126-0.081-0.2C8.863,1.509,8.857,1.432,8.863,1.351
			c0.003-0.053,0.013-0.107,0.027-0.166C8.905,1.127,8.929,1.069,8.96,1.012s0.072-0.11,0.124-0.159
			C9.135,0.804,9.196,0.767,9.269,0.74c0.019-0.007,0.037-0.014,0.055-0.019C9.341,0.716,9.36,0.711,9.382,0.706
			c0.021-0.004,0.048-0.009,0.08-0.014S9.537,0.681,9.59,0.672c0.049-0.008,0.097-0.011,0.145-0.007
			c0.074,0.005,0.14,0.025,0.2,0.062c0.06,0.037,0.11,0.085,0.15,0.145c0.04,0.06,0.069,0.128,0.088,0.204
			c0.018,0.076,0.024,0.157,0.019,0.243C10.186,1.403,10.169,1.48,10.143,1.551z M9.92,1.118C9.905,1.062,9.886,1.013,9.861,0.972
			C9.842,0.938,9.82,0.909,9.794,0.885s-0.052-0.044-0.079-0.06C9.688,0.81,9.662,0.798,9.636,0.79
			c-0.026-0.007-0.05-0.012-0.072-0.013C9.513,0.774,9.463,0.786,9.412,0.814c-0.05,0.028-0.097,0.07-0.14,0.125
			S9.195,1.058,9.167,1.13S9.124,1.277,9.119,1.356C9.113,1.438,9.12,1.512,9.139,1.577c0.019,0.066,0.046,0.122,0.083,0.168
			C9.257,1.79,9.297,1.825,9.34,1.85s0.087,0.038,0.13,0.041C9.524,1.895,9.58,1.882,9.64,1.853
			c0.059-0.028,0.108-0.068,0.147-0.121c0.051-0.065,0.087-0.134,0.109-0.203c0.021-0.07,0.035-0.139,0.039-0.207
			c0-0.006,0-0.016,0-0.027l0.001-0.023C9.94,1.225,9.934,1.174,9.92,1.118z"/>
		<path d="M11.017,2.065c-0.11,0.072-0.22,0.094-0.331,0.066c-0.081-0.021-0.153-0.071-0.216-0.152
			c-0.03-0.03-0.053-0.065-0.07-0.104l-0.015-0.024l-0.01-0.012l-0.037-0.066c-0.016-0.115-0.008-0.233,0.022-0.354
			c0.006-0.025,0.014-0.051,0.023-0.077c0.075-0.172,0.202-0.288,0.383-0.348c0.123-0.068,0.26-0.094,0.411-0.074l0.105,0.026
			l0.089,0.056l0.015,0.01l0.063,0.046l0.015,0.021l0.021,0.015l0.048,0.071l-0.004,0.039c-0.025,0.019-0.055,0.032-0.089,0.043
			l-0.025,0.012L11.391,1.27c-0.024,0.015-0.066,0.026-0.125,0.035l0.011-0.042c-0.068-0.105-0.167-0.175-0.297-0.207
			c-0.011-0.003-0.022-0.006-0.034-0.008c-0.15-0.032-0.265,0.066-0.343,0.296l-0.006,0.023c-0.064,0.255,0.01,0.45,0.224,0.586
			c0.024,0.019,0.048,0.031,0.073,0.038c0.047,0.012,0.096,0.004,0.148-0.024c0.007-0.016,0.013-0.036,0.02-0.062l0.015-0.06
			l0.006-0.009l0.006-0.023l0.009-0.025l-0.082-0.075l-0.034-0.009l-0.004-0.05l0.105-0.044l0.031-0.005
			c0.016-0.007,0.029-0.011,0.039-0.011c0,0,0.006-0.002,0.016-0.006c0.02-0.01,0.042-0.016,0.068-0.02l0.066-0.011l0.044-0.012
			l0.027-0.006l0.052,0.013c-0.021,0.032-0.038,0.062-0.051,0.091c-0.001,0.011-0.004,0.024-0.008,0.04s-0.009,0.031-0.015,0.049
			l-0.008,0.034c-0.003,0.013-0.01,0.03-0.022,0.052l-0.036,0.144l-0.01,0.026c-0.003,0.007-0.006,0.015-0.008,0.023
			c-0.004,0.018-0.008,0.038-0.01,0.062l-0.089,0.355c-0.064,0.053-0.147,0.084-0.249,0.094l-0.003-0.068
			c0.009-0.021,0.016-0.044,0.022-0.069l0.013-0.054l-0.002-0.01l0.006-0.04l0.009-0.021L11.017,2.065z"/>
		<path d="M12.365,1.558c-0.022-0.016-0.039-0.025-0.051-0.032c-0.012-0.006-0.028-0.014-0.049-0.022
			c-0.029-0.013-0.106-0.045-0.23-0.096C12.018,1.4,12.006,1.396,12,1.396c-0.005,0-0.01,0.003-0.015,0.009
			c-0.004,0.005-0.013,0.024-0.028,0.058c-0.015,0.032-0.033,0.073-0.054,0.123c-0.03,0.068-0.056,0.131-0.078,0.186
			c0.065,0.027,0.124,0.051,0.176,0.071s0.084,0.032,0.093,0.036c0.025,0.007,0.045,0.01,0.059,0.008s0.034-0.008,0.059-0.017
			l0.026-0.011l0.016,0.039l-0.098,0.194c-0.03-0.017-0.054-0.029-0.074-0.04s-0.049-0.024-0.087-0.041
			c-0.015-0.008-0.056-0.025-0.124-0.053l-0.104-0.045l-0.02,0.049c-0.013,0.03-0.023,0.054-0.03,0.07
			c-0.021,0.051-0.041,0.102-0.06,0.151c-0.02,0.05-0.031,0.079-0.034,0.09c-0.002,0.009-0.002,0.015,0.002,0.018
			c0.003,0.003,0.024,0.012,0.062,0.027c0.05,0.021,0.091,0.036,0.122,0.048c0.027,0.01,0.051,0.018,0.069,0.023
			c0.019,0.005,0.032,0.009,0.042,0.011c0.015,0.001,0.029,0.001,0.042-0.003s0.036-0.013,0.068-0.027l0.021,0.036l-0.099,0.219
			c-0.031-0.013-0.058-0.026-0.083-0.04c-0.012-0.006-0.023-0.012-0.033-0.017c-0.02-0.011-0.059-0.028-0.118-0.054
			c-0.059-0.025-0.131-0.056-0.217-0.091c-0.034-0.014-0.066-0.026-0.096-0.038s-0.059-0.02-0.086-0.023l-0.006-0.036
			c0.019-0.017,0.033-0.034,0.043-0.051s0.023-0.04,0.038-0.069c0.013-0.024,0.028-0.056,0.044-0.093
			c0.017-0.037,0.035-0.078,0.054-0.122c0.036-0.084,0.067-0.158,0.094-0.223c0.059-0.146,0.104-0.256,0.132-0.329
			c0.029-0.073,0.049-0.128,0.06-0.161c0.01-0.033,0.016-0.059,0.018-0.076c0.002-0.017,0.001-0.033-0.002-0.049l0.022-0.024
			c0.043,0.021,0.083,0.039,0.119,0.056c0.036,0.016,0.092,0.039,0.17,0.07c0.042,0.018,0.086,0.035,0.132,0.053
			c0.024,0.01,0.044,0.018,0.062,0.023c0.018,0.006,0.031,0.01,0.041,0.012c0.006,0.001,0.01,0.002,0.013,0.004
			c0.019,0.005,0.035,0.008,0.05,0.007c0.015,0,0.043-0.006,0.085-0.017l0.019,0.035L12.365,1.558z"/>
		<path d="M13.499,2.167c-0.065-0.045-0.11-0.076-0.135-0.093s-0.05-0.032-0.076-0.047c-0.03-0.018-0.051-0.026-0.062-0.026H13.21
			c-0.015,0.015-0.051,0.066-0.108,0.154c-0.058,0.089-0.127,0.204-0.209,0.346c-0.044,0.076-0.08,0.139-0.107,0.188
			s-0.048,0.089-0.063,0.12c-0.015,0.03-0.026,0.057-0.034,0.079c-0.008,0.021-0.018,0.051-0.029,0.088L12.63,2.988
			C12.614,2.973,12.6,2.96,12.587,2.95c-0.014-0.01-0.032-0.021-0.057-0.036c-0.027-0.016-0.048-0.026-0.064-0.034
			c-0.016-0.007-0.037-0.016-0.061-0.023l-0.003-0.031c0.024-0.023,0.051-0.056,0.08-0.096c0.03-0.039,0.06-0.083,0.09-0.131
			s0.059-0.093,0.084-0.135c0.025-0.042,0.051-0.087,0.079-0.135c0.029-0.05,0.056-0.099,0.083-0.146
			c0.026-0.049,0.052-0.096,0.076-0.141c0.024-0.046,0.044-0.084,0.06-0.115s0.025-0.052,0.027-0.062
			c0.002-0.005,0.003-0.008,0.003-0.01c-0.001-0.002-0.006-0.005-0.015-0.01c-0.07-0.041-0.13-0.071-0.178-0.091
			s-0.106-0.027-0.172-0.024l-0.004-0.04l0.162-0.153c0.026,0.016,0.049,0.029,0.068,0.042c0.038,0.023,0.085,0.052,0.14,0.085
			c0.055,0.034,0.123,0.073,0.202,0.119c0.09,0.053,0.159,0.092,0.207,0.119c0.048,0.025,0.084,0.045,0.109,0.057
			c0.013,0.006,0.023,0.01,0.03,0.013c0.006,0.002,0.013,0.003,0.02,0.004c0.007,0,0.014-0.001,0.023-0.003
			c0.009-0.001,0.024-0.006,0.047-0.012l0.03-0.005l0.015,0.05L13.499,2.167z"/>
		<path d="M13.711,2.8l0.31,0.252c0.052,0.043,0.087,0.07,0.105,0.082l0.015-0.018c0.021-0.023,0.031-0.036,0.032-0.037
			c0.028-0.034,0.056-0.07,0.083-0.105c0.027-0.036,0.053-0.07,0.077-0.104s0.046-0.066,0.065-0.097
			c0.02-0.03,0.035-0.06,0.046-0.087l0.029,0.005l0.01,0.008c0.008,0.01,0.016,0.019,0.025,0.027
			c0.009,0.01,0.027,0.024,0.053,0.045c0.025,0.021,0.044,0.036,0.057,0.045c0.012,0.008,0.03,0.02,0.054,0.032l-0.005,0.031
			c-0.031,0.022-0.083,0.071-0.155,0.149c-0.073,0.077-0.151,0.168-0.236,0.271c-0.083,0.101-0.144,0.177-0.185,0.228
			c-0.041,0.051-0.077,0.098-0.109,0.141c-0.032,0.042-0.058,0.079-0.076,0.11c-0.019,0.03-0.034,0.062-0.046,0.092l-0.03,0.009
			c-0.014-0.017-0.028-0.03-0.042-0.044c-0.014-0.013-0.035-0.03-0.062-0.054c-0.026-0.021-0.045-0.036-0.055-0.043
			s-0.027-0.017-0.052-0.029L13.63,3.68c0.027-0.02,0.053-0.04,0.077-0.062s0.049-0.047,0.076-0.076
			c0.026-0.03,0.058-0.066,0.094-0.107c0.036-0.042,0.084-0.1,0.146-0.174l-0.208-0.17c-0.006-0.005-0.046-0.036-0.119-0.094
			c-0.056-0.045-0.086-0.068-0.089-0.07L13.507,3.05c-0.04,0.049-0.073,0.091-0.1,0.127c-0.027,0.035-0.048,0.064-0.064,0.088
			c-0.016,0.023-0.028,0.043-0.037,0.061c-0.009,0.018-0.021,0.041-0.036,0.071l-0.031-0.002c-0.013-0.015-0.024-0.026-0.034-0.035
			c-0.009-0.009-0.027-0.024-0.053-0.046c-0.02-0.016-0.039-0.03-0.058-0.043c-0.018-0.013-0.035-0.023-0.05-0.034L13.04,3.208
			c0.023-0.017,0.044-0.033,0.062-0.05s0.04-0.038,0.064-0.064c0.086-0.092,0.194-0.218,0.325-0.377
			c0.119-0.146,0.204-0.253,0.255-0.321c0.051-0.068,0.087-0.13,0.109-0.184l0.028-0.005c0.021,0.021,0.041,0.041,0.06,0.058
			c0.019,0.017,0.037,0.032,0.055,0.047c0.018,0.016,0.032,0.025,0.041,0.031c0.009,0.006,0.025,0.016,0.048,0.03l-0.002,0.028
			c-0.06,0.05-0.116,0.104-0.169,0.161C13.865,2.618,13.797,2.698,13.711,2.8z"/>
		<path d="M15.183,3.665c-0.014-0.023-0.024-0.04-0.033-0.051s-0.02-0.023-0.035-0.04c-0.021-0.024-0.077-0.086-0.168-0.185
			c-0.014-0.014-0.022-0.021-0.027-0.024s-0.01-0.003-0.017,0.001c-0.006,0.003-0.022,0.017-0.049,0.04
			c-0.028,0.023-0.061,0.053-0.101,0.089c-0.056,0.051-0.105,0.096-0.149,0.137c0.048,0.051,0.091,0.098,0.13,0.139
			s0.062,0.064,0.069,0.071c0.021,0.017,0.037,0.027,0.05,0.032c0.013,0.004,0.033,0.007,0.061,0.01l0.027,0.001l-0.001,0.042
			l-0.171,0.135c-0.02-0.026-0.037-0.049-0.05-0.067c-0.013-0.018-0.034-0.042-0.061-0.073c-0.011-0.014-0.041-0.047-0.09-0.1
			l-0.076-0.085l-0.038,0.036c-0.025,0.021-0.043,0.039-0.057,0.051c-0.041,0.038-0.08,0.075-0.118,0.112s-0.061,0.06-0.069,0.067
			c-0.006,0.007-0.008,0.013-0.006,0.017c0.002,0.004,0.017,0.021,0.045,0.052c0.037,0.039,0.067,0.07,0.09,0.094
			c0.021,0.021,0.038,0.037,0.053,0.05s0.026,0.022,0.034,0.028c0.013,0.008,0.026,0.013,0.039,0.015
			c0.014,0.003,0.038,0.004,0.073,0.004l0.004,0.042L14.36,4.46c-0.022-0.023-0.042-0.047-0.058-0.07
			c-0.008-0.011-0.016-0.021-0.023-0.029c-0.013-0.018-0.042-0.051-0.084-0.099s-0.096-0.105-0.159-0.173
			c-0.025-0.027-0.049-0.053-0.071-0.075c-0.022-0.022-0.045-0.042-0.068-0.058l0.01-0.035c0.024-0.008,0.044-0.018,0.061-0.027
			c0.017-0.011,0.038-0.026,0.063-0.047c0.022-0.018,0.048-0.04,0.079-0.066c0.03-0.027,0.064-0.057,0.1-0.089
			c0.068-0.06,0.127-0.114,0.179-0.162c0.115-0.107,0.201-0.188,0.258-0.243s0.098-0.095,0.122-0.121
			c0.023-0.026,0.04-0.047,0.048-0.061c0.009-0.016,0.015-0.03,0.019-0.047l0.031-0.012c0.03,0.037,0.059,0.07,0.084,0.1
			c0.025,0.029,0.067,0.075,0.124,0.137c0.031,0.033,0.064,0.067,0.099,0.103c0.018,0.019,0.033,0.034,0.046,0.047
			c0.013,0.013,0.024,0.022,0.032,0.028c0.004,0.004,0.008,0.006,0.01,0.008c0.014,0.013,0.028,0.022,0.042,0.028
			s0.042,0.013,0.084,0.021l0.002,0.04L15.183,3.665z"/>
		<path d="M15.057,5.401l-0.162-0.23c0.005-0.035,0.014-0.067,0.027-0.098s0.034-0.07,0.062-0.12
			c0.003-0.007,0.005-0.011,0.006-0.013c0.001-0.001,0.009-0.016,0.024-0.043c0.044-0.079,0.07-0.126,0.078-0.141
			c0.01-0.021,0.02-0.041,0.029-0.061c0.009-0.02,0.017-0.041,0.023-0.066c0.007-0.025,0.009-0.05,0.007-0.074
			c-0.002-0.023-0.01-0.045-0.023-0.064c-0.008-0.013-0.019-0.025-0.03-0.038c-0.012-0.014-0.019-0.021-0.021-0.022l-0.022,0.016
			c-0.026,0.018-0.049,0.033-0.068,0.047c-0.04,0.027-0.077,0.055-0.113,0.081s-0.063,0.046-0.081,0.06
			c-0.037,0.029-0.065,0.053-0.083,0.07c-0.018,0.019-0.038,0.04-0.058,0.064l-0.006,0.008L14.617,4.78
			c-0.01-0.022-0.018-0.038-0.023-0.049c-0.005-0.01-0.017-0.027-0.034-0.051c-0.018-0.025-0.033-0.047-0.047-0.065
			s-0.031-0.037-0.053-0.058l0.015-0.029c0.021-0.004,0.042-0.011,0.064-0.02c0.021-0.01,0.052-0.026,0.092-0.051
			c0.024-0.014,0.061-0.037,0.108-0.068s0.098-0.065,0.151-0.104c0.069-0.047,0.159-0.108,0.27-0.187
			c0.062-0.043,0.117-0.083,0.167-0.12c0.05-0.036,0.088-0.066,0.114-0.089c0.015-0.015,0.027-0.028,0.035-0.044
			c0.008-0.014,0.017-0.036,0.025-0.065l0.037-0.005c0.01,0.025,0.021,0.045,0.03,0.06c0.009,0.014,0.021,0.032,0.037,0.054
			c0.036,0.052,0.067,0.095,0.093,0.13s0.049,0.064,0.069,0.089c0.001,0.002,0.007,0.01,0.019,0.023
			c0.023,0.026,0.045,0.053,0.066,0.08C15.874,4.239,15.89,4.26,15.9,4.274c0.052,0.073,0.068,0.146,0.048,0.216
			c-0.019,0.07-0.061,0.128-0.125,0.173c-0.045,0.032-0.092,0.055-0.139,0.066c-0.048,0.014-0.095,0.018-0.14,0.015
			s-0.088-0.013-0.128-0.027c-0.041-0.016-0.063-0.024-0.069-0.029l-0.001-0.001c-0.001,0-0.002,0.01-0.002,0.027
			c-0.001,0.022-0.006,0.045-0.014,0.068c-0.008,0.023-0.02,0.05-0.035,0.079S15.258,4.931,15.23,4.98
			c-0.04,0.071-0.07,0.129-0.091,0.172c-0.021,0.042-0.035,0.076-0.043,0.102C15.088,5.28,15.083,5.3,15.083,5.314
			s0.002,0.038,0.008,0.073L15.057,5.401z M15.164,4.369c0.002,0.004,0.006,0.013,0.012,0.024c0.006,0.012,0.014,0.024,0.024,0.039
			c0.034,0.049,0.071,0.082,0.112,0.102c0.041,0.02,0.081,0.029,0.12,0.026c0.04-0.002,0.076-0.011,0.109-0.024
			c0.034-0.015,0.062-0.03,0.085-0.047c0.062-0.043,0.101-0.091,0.118-0.142c0.017-0.051,0.01-0.098-0.021-0.142
			c-0.019-0.026-0.043-0.045-0.073-0.057s-0.059-0.016-0.087-0.013s-0.059,0.013-0.092,0.03c-0.033,0.017-0.081,0.047-0.143,0.089
			L15.164,4.369z"/>
		<path d="M15.506,6.286c0.031-0.005,0.064-0.011,0.099-0.019c0.034-0.007,0.082-0.021,0.144-0.042
			c0.063-0.021,0.131-0.046,0.203-0.072c0.072-0.027,0.16-0.061,0.263-0.102c0.136-0.054,0.238-0.096,0.305-0.126
			s0.128-0.065,0.184-0.104l0.023,0.002c0.004,0.012,0.008,0.022,0.01,0.032c0.004,0.013,0.008,0.028,0.014,0.045
			c0.005,0.018,0.013,0.039,0.022,0.063c0.008,0.021,0.015,0.036,0.021,0.047s0.011,0.022,0.017,0.033
			c0.005,0.011,0.01,0.02,0.012,0.026l-0.004,0.027c-0.042,0.008-0.077,0.015-0.103,0.021c-0.026,0.007-0.06,0.017-0.102,0.03
			c-0.139,0.045-0.323,0.112-0.552,0.202c-0.084,0.033-0.152,0.061-0.202,0.081c-0.05,0.021-0.095,0.042-0.134,0.061
			c-0.022,0.012-0.04,0.021-0.054,0.031c-0.013,0.009-0.032,0.021-0.055,0.037L15.59,6.557l-0.008-0.03
			c-0.014-0.045-0.026-0.082-0.039-0.114c-0.008-0.02-0.014-0.034-0.019-0.044c-0.004-0.01-0.01-0.021-0.017-0.033
			c-0.004-0.005-0.009-0.014-0.014-0.028L15.506,6.286z"/>
		<path d="M17.166,7.204c0.002,0.025,0.004,0.045,0.006,0.059c0.002,0.013,0.006,0.03,0.012,0.053
			c0.004,0.016,0.009,0.033,0.015,0.051c0.006,0.019,0.016,0.046,0.029,0.082L17.205,7.47c-0.031-0.014-0.057-0.021-0.077-0.022
			c-0.02-0.001-0.041-0.001-0.063,0.001c-0.026,0.002-0.063,0.008-0.111,0.019c-0.048,0.01-0.103,0.022-0.163,0.038
			c-0.088,0.021-0.185,0.045-0.292,0.073c-0.076,0.02-0.155,0.041-0.238,0.063c-0.059,0.017-0.106,0.031-0.142,0.042
			c-0.036,0.011-0.059,0.019-0.07,0.023c-0.015,0.008-0.026,0.016-0.034,0.023c-0.008,0.008-0.022,0.024-0.043,0.051l-0.03-0.009
			c-0.003-0.015-0.011-0.049-0.023-0.104c-0.006-0.034-0.01-0.054-0.011-0.058c-0.001-0.006-0.013-0.041-0.036-0.105l-0.008-0.029
			C15.883,7.456,15.928,7.409,16,7.334c0.072-0.075,0.134-0.142,0.188-0.198s0.108-0.114,0.162-0.172s0.094-0.101,0.119-0.128
			c0.007-0.008,0.032-0.035,0.075-0.081c0.029-0.032,0.058-0.064,0.087-0.096l0.001-0.002c-0.008,0.002-0.04,0.01-0.097,0.025
			c-0.057,0.014-0.126,0.032-0.208,0.053l-0.367,0.099c-0.052,0.014-0.096,0.026-0.13,0.037c-0.035,0.012-0.065,0.024-0.092,0.04
			l-0.025-0.009c-0.01-0.061-0.02-0.11-0.03-0.148c-0.008-0.027-0.016-0.052-0.025-0.074l-0.012-0.027l0.027-0.024
			c0.035,0.014,0.069,0.021,0.102,0.024c0.033,0.002,0.071-0.001,0.116-0.008c0.037-0.007,0.098-0.021,0.184-0.042
			s0.188-0.047,0.308-0.078c0.092-0.024,0.171-0.045,0.238-0.063c0.055-0.016,0.102-0.029,0.14-0.041
			c0.039-0.012,0.062-0.02,0.067-0.022c0.013-0.009,0.024-0.02,0.034-0.03c0.009-0.012,0.022-0.03,0.038-0.057l0.032,0.011
			c0.003,0.012,0.008,0.031,0.014,0.059c0.013,0.063,0.02,0.1,0.022,0.108c0.008,0.029,0.014,0.051,0.019,0.064
			s0.013,0.032,0.024,0.058c-0.016,0.016-0.028,0.029-0.038,0.038c-0.01,0.009-0.026,0.026-0.049,0.051
			c-0.023,0.024-0.061,0.063-0.112,0.118s-0.089,0.095-0.113,0.121l-0.008,0.007c-0.065,0.068-0.11,0.116-0.136,0.143
			c-0.025,0.026-0.057,0.06-0.095,0.101s-0.083,0.09-0.133,0.146s-0.086,0.096-0.106,0.117c0.021-0.006,0.102-0.025,0.242-0.062
			l0.184-0.048c0.085-0.022,0.154-0.041,0.207-0.055c0.053-0.016,0.097-0.027,0.132-0.038s0.063-0.02,0.083-0.026
			c0.02-0.008,0.042-0.018,0.066-0.028L17.166,7.204z"/>
		<path d="M16.407,9.069c-0.024-0.014-0.044-0.023-0.063-0.029c-0.018-0.007-0.038-0.011-0.06-0.012
			c-0.02,0-0.039,0.002-0.059,0.007c-0.02,0.005-0.038,0.014-0.055,0.025c-0.017,0.012-0.03,0.027-0.041,0.048
			c-0.01,0.02-0.016,0.044-0.017,0.072c-0.001,0.04,0.009,0.077,0.03,0.111c0.021,0.035,0.051,0.066,0.087,0.093
			c0.037,0.026,0.076,0.047,0.118,0.062c0.042,0.016,0.082,0.023,0.119,0.024c0.044,0.002,0.079-0.003,0.104-0.013
			c0.025-0.01,0.043-0.021,0.053-0.035s0.017-0.027,0.02-0.042s0.005-0.03,0.005-0.05c0-0.003,0-0.025-0.001-0.068
			c-0.001-0.028-0.003-0.062-0.004-0.1c-0.001-0.039-0.002-0.064-0.001-0.075c0.001-0.036,0.006-0.072,0.015-0.11
			c0.009-0.037,0.029-0.07,0.06-0.101c0.026-0.026,0.057-0.046,0.094-0.059s0.077-0.018,0.12-0.017
			c0.05,0.002,0.098,0.012,0.144,0.029c0.046,0.017,0.086,0.04,0.123,0.069c0.036,0.029,0.066,0.062,0.09,0.102
			c0.024,0.038,0.04,0.078,0.047,0.121c0.003,0.02,0.007,0.044,0.009,0.072c0.003,0.029,0.005,0.06,0.006,0.093
			c0,0.032,0.001,0.062,0.001,0.086c0,0.025-0.001,0.046-0.001,0.063c-0.001,0.042-0.004,0.078-0.008,0.107
			c-0.005,0.029-0.015,0.058-0.032,0.086c-0.017,0.028-0.043,0.05-0.078,0.064c-0.036,0.015-0.081,0.021-0.137,0.021l-0.019-0.001
			c-0.012-0.002-0.025-0.003-0.039-0.003l0.002-0.066c0.001-0.014,0.001-0.021,0.001-0.025c0.001-0.019,0.001-0.034,0-0.048
			s-0.002-0.05-0.004-0.11l0.025-0.011c0.008,0.001,0.013,0.001,0.015,0.002c0.012,0.002,0.023,0.003,0.033,0.004
			c0.034,0.001,0.06-0.004,0.08-0.014c0.02-0.011,0.034-0.022,0.043-0.036c0.008-0.015,0.014-0.028,0.016-0.041
			c0.002-0.013,0.004-0.025,0.004-0.038c0.001-0.04-0.006-0.077-0.021-0.11s-0.038-0.062-0.066-0.086
			c-0.029-0.025-0.061-0.044-0.097-0.058S17,9.054,16.966,9.052c-0.036-0.001-0.064,0.004-0.086,0.014
			c-0.021,0.01-0.036,0.022-0.046,0.038c-0.009,0.015-0.016,0.028-0.018,0.042s-0.004,0.027-0.005,0.042
			c0,0.012,0.002,0.063,0.008,0.157c0,0.029,0.002,0.059,0.003,0.088s0.002,0.049,0.002,0.059c-0.001,0.042-0.01,0.078-0.026,0.107
			c-0.015,0.029-0.037,0.053-0.065,0.072c-0.027,0.017-0.058,0.029-0.093,0.04c-0.035,0.01-0.078,0.014-0.129,0.013
			c-0.065-0.003-0.125-0.015-0.18-0.035c-0.055-0.021-0.104-0.049-0.146-0.083c-0.042-0.033-0.076-0.07-0.103-0.11
			c-0.027-0.041-0.044-0.082-0.052-0.122c-0.005-0.019-0.008-0.044-0.011-0.078s-0.004-0.066-0.004-0.097c0-0.031,0-0.063,0-0.1
			c0-0.035,0-0.066,0.001-0.091c0.001-0.041,0.006-0.075,0.014-0.103s0.024-0.052,0.047-0.073c0.027-0.025,0.058-0.042,0.094-0.05
			c0.036-0.009,0.071-0.012,0.105-0.011c0.031,0.001,0.058,0.004,0.081,0.01s0.046,0.015,0.071,0.024
			c-0.002,0.051-0.002,0.09-0.001,0.119c0.001,0.028,0.002,0.07,0.004,0.125L16.407,9.069z"/>
		<path d="M17.003,10.632c0.009-0.025,0.016-0.044,0.02-0.057c0.003-0.014,0.007-0.03,0.01-0.053
			c0.007-0.031,0.021-0.113,0.042-0.246c0.003-0.02,0.005-0.031,0.004-0.036s-0.005-0.01-0.012-0.013
			c-0.006-0.003-0.026-0.008-0.062-0.015c-0.035-0.008-0.08-0.016-0.132-0.025c-0.074-0.013-0.141-0.024-0.199-0.034
			c-0.012,0.069-0.021,0.132-0.03,0.188c-0.009,0.057-0.013,0.089-0.014,0.099c-0.001,0.026,0,0.046,0.005,0.06
			c0.004,0.013,0.014,0.031,0.029,0.054l0.016,0.022L16.647,10.6l-0.211-0.052c0.009-0.033,0.017-0.061,0.022-0.082
			c0.006-0.021,0.013-0.053,0.021-0.094c0.004-0.016,0.012-0.061,0.023-0.132l0.02-0.112l-0.051-0.008
			c-0.033-0.006-0.059-0.011-0.075-0.014c-0.055-0.009-0.108-0.017-0.161-0.024c-0.053-0.008-0.085-0.013-0.095-0.014
			c-0.009,0-0.015,0.002-0.017,0.006c-0.002,0.005-0.006,0.026-0.013,0.067c-0.009,0.053-0.015,0.096-0.02,0.129
			c-0.003,0.029-0.006,0.053-0.007,0.072c-0.001,0.02-0.002,0.034-0.002,0.044c0.002,0.015,0.006,0.028,0.013,0.04
			c0.006,0.013,0.02,0.032,0.042,0.061l-0.031,0.029l-0.235-0.049c0.005-0.032,0.012-0.062,0.021-0.089
			c0.003-0.013,0.006-0.025,0.009-0.036c0.006-0.021,0.015-0.063,0.026-0.127s0.025-0.141,0.04-0.231
			c0.006-0.036,0.011-0.071,0.016-0.103c0.005-0.031,0.006-0.062,0.004-0.09l0.034-0.013c0.021,0.014,0.041,0.024,0.059,0.03
			c0.018,0.007,0.043,0.014,0.076,0.021c0.027,0.007,0.061,0.015,0.101,0.022s0.084,0.017,0.131,0.025
			c0.089,0.017,0.168,0.03,0.238,0.042c0.155,0.024,0.271,0.043,0.35,0.055c0.078,0.013,0.135,0.02,0.17,0.022
			s0.061,0.003,0.078,0.001c0.017-0.002,0.033-0.007,0.048-0.014l0.028,0.017c-0.011,0.047-0.02,0.09-0.027,0.128
			c-0.008,0.039-0.019,0.1-0.032,0.182c-0.007,0.046-0.015,0.093-0.021,0.141c-0.004,0.025-0.007,0.047-0.009,0.065
			c-0.002,0.019-0.003,0.032-0.003,0.043c0,0.005,0,0.01,0,0.013c-0.001,0.019,0,0.035,0.004,0.05s0.016,0.041,0.036,0.079
			l-0.031,0.026L17.003,10.632z"/>
		<path d="M15.551,11.594l0.083-0.27c0.03-0.017,0.062-0.029,0.094-0.037s0.077-0.017,0.133-0.024
			c0.007-0.002,0.011-0.003,0.013-0.003c0.001-0.001,0.018-0.003,0.049-0.007c0.089-0.015,0.143-0.022,0.16-0.025
			c0.022-0.004,0.043-0.008,0.065-0.014c0.021-0.004,0.043-0.012,0.067-0.021c0.024-0.011,0.045-0.023,0.062-0.04
			s0.03-0.036,0.037-0.059c0.004-0.014,0.008-0.029,0.012-0.047c0.003-0.017,0.005-0.026,0.005-0.029l-0.026-0.009
			c-0.03-0.01-0.056-0.018-0.078-0.024c-0.046-0.015-0.091-0.028-0.134-0.04c-0.043-0.013-0.075-0.021-0.097-0.028
			c-0.046-0.011-0.082-0.019-0.107-0.022c-0.025-0.003-0.054-0.006-0.086-0.007h-0.01l-0.021-0.021
			c0.012-0.021,0.02-0.037,0.024-0.047c0.005-0.011,0.011-0.03,0.02-0.059c0.009-0.029,0.017-0.055,0.023-0.077
			c0.006-0.021,0.011-0.048,0.013-0.077l0.032-0.006c0.016,0.015,0.035,0.027,0.055,0.039c0.021,0.011,0.053,0.025,0.096,0.042
			c0.026,0.011,0.066,0.024,0.12,0.044c0.054,0.019,0.112,0.037,0.174,0.057c0.079,0.026,0.184,0.06,0.312,0.1
			c0.072,0.022,0.138,0.042,0.197,0.059c0.059,0.018,0.106,0.029,0.14,0.036c0.021,0.003,0.039,0.004,0.056,0.001
			c0.017-0.002,0.04-0.009,0.067-0.021l0.027,0.026c-0.014,0.024-0.024,0.044-0.03,0.061c-0.005,0.016-0.012,0.036-0.02,0.062
			c-0.019,0.06-0.034,0.111-0.045,0.153c-0.012,0.042-0.021,0.078-0.028,0.109c-0.001,0.002-0.003,0.012-0.007,0.028
			c-0.007,0.035-0.015,0.069-0.023,0.102s-0.016,0.058-0.021,0.075c-0.027,0.086-0.074,0.143-0.141,0.17
			c-0.067,0.028-0.139,0.031-0.213,0.008c-0.053-0.017-0.099-0.04-0.138-0.07c-0.039-0.029-0.071-0.064-0.096-0.102
			c-0.025-0.039-0.044-0.078-0.057-0.119c-0.012-0.041-0.019-0.064-0.019-0.072l0-0.002c-0.001,0-0.009,0.005-0.023,0.016
			c-0.018,0.012-0.039,0.022-0.062,0.03s-0.052,0.015-0.084,0.021c-0.033,0.006-0.077,0.014-0.134,0.021
			c-0.081,0.013-0.145,0.023-0.191,0.033c-0.046,0.009-0.082,0.019-0.107,0.028c-0.025,0.009-0.043,0.019-0.055,0.026
			s-0.029,0.025-0.053,0.051L15.551,11.594z M16.434,11.048c-0.002,0.005-0.006,0.013-0.012,0.025
			c-0.005,0.012-0.011,0.025-0.016,0.042c-0.018,0.058-0.022,0.107-0.013,0.151c0.01,0.045,0.027,0.082,0.053,0.111
			c0.026,0.03,0.055,0.054,0.087,0.071c0.032,0.019,0.062,0.031,0.089,0.04c0.072,0.021,0.134,0.024,0.184,0.007
			c0.05-0.019,0.083-0.053,0.099-0.104c0.01-0.03,0.01-0.062,0-0.093c-0.009-0.03-0.023-0.057-0.043-0.076
			c-0.02-0.021-0.046-0.039-0.08-0.055c-0.034-0.017-0.086-0.036-0.158-0.059L16.434,11.048z"/>
		<path d="M16.471,12.751c-0.022,0.03-0.044,0.069-0.066,0.116c-0.012,0.026-0.02,0.044-0.022,0.053s-0.006,0.026-0.007,0.051
			l-0.044-0.011c-0.009-0.02-0.017-0.035-0.023-0.046c-0.007-0.011-0.019-0.026-0.036-0.046c-0.016-0.021-0.042-0.049-0.076-0.085
			c-0.034-0.035-0.077-0.078-0.129-0.13c-0.028-0.026-0.077-0.073-0.148-0.14c-0.071-0.067-0.141-0.132-0.21-0.196
			c-0.069-0.063-0.131-0.119-0.186-0.169c-0.055-0.05-0.084-0.075-0.089-0.077c-0.003-0.002-0.008-0.002-0.017-0.002
			c-0.003-0.001-0.012,0-0.026,0c-0.015,0.002-0.026,0.002-0.034,0.002l-0.029-0.027c0.018-0.021,0.03-0.037,0.035-0.047
			c0.005-0.011,0.015-0.031,0.03-0.063c0.012-0.027,0.023-0.052,0.032-0.072c0.009-0.021,0.016-0.045,0.022-0.072l0.031-0.001
			l0.017,0.008c0.004,0.003,0.007,0.005,0.008,0.006c0.01,0.004,0.021,0.009,0.036,0.012c0.014,0.004,0.037,0.01,0.067,0.017
			c0.031,0.007,0.063,0.013,0.097,0.021c0.034,0.007,0.099,0.02,0.196,0.039l0.002,0.001c0.059,0.011,0.123,0.022,0.192,0.034
			c0.069,0.012,0.143,0.023,0.221,0.037c0.078,0.012,0.145,0.021,0.2,0.028s0.099,0.012,0.13,0.015c0.027,0.002,0.05,0,0.069-0.002
			c0.02-0.004,0.044-0.011,0.073-0.021l0.022,0.022c-0.006,0.014-0.014,0.028-0.023,0.046c-0.002,0.004-0.009,0.016-0.02,0.036
			c-0.012,0.021-0.02,0.036-0.024,0.045c-0.015,0.032-0.029,0.068-0.043,0.108l-0.008,0.022l-0.021,0.014
			c-0.042-0.014-0.109-0.03-0.203-0.051c-0.094-0.02-0.199-0.041-0.316-0.062c-0.117-0.022-0.222-0.041-0.316-0.055
			c-0.081-0.013-0.123-0.02-0.125-0.021h0.002c-0.023-0.019-0.036-0.027-0.038-0.028l0.003,0.004c0.01,0.01,0.057,0.053,0.14,0.131
			l0.016,0.016c0.183,0.166,0.322,0.29,0.417,0.369c0.018,0.016,0.044,0.037,0.078,0.064c0.02,0.014,0.04,0.028,0.061,0.043
			c0.021,0.016,0.042,0.028,0.063,0.04L16.471,12.751z"/>
		<path d="M15.124,12.489c0.023,0.021,0.048,0.044,0.075,0.066s0.067,0.052,0.121,0.088c0.056,0.037,0.116,0.076,0.182,0.117
			c0.065,0.04,0.146,0.089,0.241,0.146c0.125,0.074,0.22,0.13,0.286,0.164c0.065,0.035,0.13,0.062,0.194,0.082l0.012,0.02
			c-0.006,0.011-0.013,0.021-0.019,0.027c-0.008,0.012-0.017,0.024-0.027,0.039c-0.011,0.016-0.022,0.034-0.036,0.057
			c-0.011,0.019-0.02,0.033-0.025,0.045s-0.01,0.022-0.016,0.034c-0.005,0.011-0.009,0.02-0.013,0.025l-0.025,0.014
			c-0.032-0.028-0.058-0.052-0.079-0.068c-0.021-0.018-0.049-0.038-0.086-0.063c-0.12-0.082-0.286-0.187-0.497-0.313
			c-0.078-0.046-0.141-0.083-0.188-0.11s-0.091-0.05-0.13-0.069c-0.022-0.011-0.042-0.019-0.057-0.023
			c-0.016-0.005-0.037-0.013-0.063-0.021l-0.012-0.024l0.019-0.024c0.027-0.038,0.049-0.072,0.067-0.102
			c0.011-0.018,0.019-0.031,0.024-0.041s0.01-0.021,0.016-0.033c0.001-0.006,0.006-0.016,0.014-0.029L15.124,12.489z"/>
		<path d="M15.134,14.212l0.022-0.015c0.051,0.008,0.095,0.009,0.132,0.001c0.037-0.007,0.069-0.018,0.096-0.031
			s0.049-0.028,0.067-0.044c0.018-0.016,0.032-0.03,0.043-0.044c0.025-0.032,0.042-0.074,0.05-0.125
			c0.009-0.052,0.007-0.109-0.006-0.174c-0.013-0.063-0.042-0.129-0.085-0.195c-0.043-0.067-0.103-0.131-0.179-0.188
			c-0.068-0.052-0.134-0.091-0.2-0.115s-0.128-0.036-0.186-0.035s-0.11,0.013-0.157,0.036s-0.085,0.056-0.118,0.097
			c-0.021,0.026-0.037,0.06-0.051,0.1c-0.013,0.04-0.023,0.084-0.031,0.133c-0.007,0.048-0.011,0.098-0.011,0.147
			c0,0.051,0.004,0.107,0.012,0.172l-0.043,0.002c-0.023-0.031-0.055-0.074-0.096-0.129s-0.079-0.104-0.113-0.148l0.23-0.298
			c0.002-0.003,0.006-0.009,0.013-0.018c0.006-0.009,0.016-0.021,0.027-0.039c0.013-0.02,0.022-0.033,0.029-0.042
			c0.006-0.01,0.011-0.017,0.014-0.021c0.034-0.044,0.064-0.079,0.091-0.106s0.056-0.051,0.086-0.069s0.065-0.032,0.102-0.039
			c0.037-0.008,0.08-0.01,0.128-0.007c0.137,0.008,0.273,0.064,0.409,0.17c0.038,0.029,0.077,0.064,0.118,0.106
			c0.04,0.042,0.078,0.093,0.112,0.15s0.058,0.122,0.071,0.194s0.008,0.146-0.016,0.221c-0.007,0.025-0.018,0.057-0.034,0.096
			s-0.033,0.079-0.053,0.121c-0.02,0.041-0.04,0.08-0.06,0.115c-0.02,0.036-0.037,0.062-0.05,0.08
			c-0.048,0.062-0.104,0.108-0.168,0.139s-0.141,0.046-0.23,0.047l-0.018-0.018L15.134,14.212z"/>
		<path d="M14.444,15.087c0.023-0.014,0.039-0.025,0.05-0.033c0.01-0.008,0.024-0.021,0.04-0.036
			c0.024-0.021,0.084-0.079,0.181-0.172c0.014-0.014,0.022-0.022,0.024-0.026c0.002-0.005,0.002-0.011-0.001-0.018
			c-0.003-0.006-0.017-0.021-0.041-0.049c-0.023-0.027-0.054-0.061-0.091-0.099c-0.051-0.056-0.098-0.104-0.139-0.147
			c-0.051,0.049-0.096,0.094-0.136,0.133c-0.041,0.04-0.064,0.063-0.07,0.071c-0.017,0.021-0.027,0.037-0.031,0.05
			c-0.004,0.014-0.007,0.034-0.01,0.062v0.027l-0.042-0.001l-0.138-0.168c0.027-0.021,0.049-0.038,0.067-0.052
			c0.018-0.014,0.042-0.034,0.073-0.062c0.013-0.011,0.046-0.042,0.098-0.092l0.083-0.078l-0.036-0.037
			c-0.023-0.024-0.041-0.043-0.052-0.056c-0.039-0.04-0.077-0.078-0.114-0.116c-0.038-0.038-0.061-0.061-0.068-0.067
			c-0.008-0.006-0.013-0.008-0.017-0.006c-0.004,0.002-0.021,0.018-0.05,0.046c-0.039,0.038-0.07,0.068-0.093,0.092
			c-0.02,0.021-0.036,0.039-0.049,0.054s-0.022,0.026-0.028,0.035c-0.007,0.013-0.012,0.025-0.014,0.039
			c-0.002,0.014-0.003,0.038-0.002,0.073l-0.042,0.005l-0.16-0.179c0.024-0.022,0.047-0.043,0.07-0.06
			c0.01-0.009,0.02-0.017,0.029-0.023c0.017-0.014,0.05-0.042,0.097-0.086c0.047-0.044,0.104-0.098,0.17-0.162
			c0.027-0.025,0.051-0.05,0.074-0.072c0.023-0.023,0.042-0.046,0.057-0.069l0.035,0.009c0.009,0.023,0.018,0.044,0.029,0.061
			c0.011,0.016,0.027,0.037,0.048,0.062c0.018,0.021,0.04,0.047,0.067,0.078c0.027,0.029,0.058,0.062,0.09,0.098
			c0.062,0.067,0.117,0.126,0.166,0.176c0.109,0.113,0.191,0.198,0.247,0.254c0.056,0.057,0.097,0.097,0.124,0.12
			c0.026,0.022,0.047,0.038,0.062,0.047s0.03,0.015,0.046,0.019l0.013,0.03c-0.037,0.03-0.069,0.06-0.098,0.086
			c-0.029,0.026-0.074,0.068-0.134,0.126c-0.033,0.032-0.067,0.066-0.101,0.101c-0.019,0.019-0.034,0.034-0.046,0.048
			c-0.013,0.013-0.022,0.023-0.028,0.031c-0.003,0.005-0.006,0.009-0.008,0.011c-0.012,0.015-0.021,0.028-0.027,0.042
			c-0.005,0.014-0.012,0.042-0.019,0.085l-0.04,0.003L14.444,15.087z"/>
	</g>
	<polygon id="Cross" points="12.02,6.241 9.49,6.241 9.49,3.244 8.51,3.538 8.51,6.241 6.274,6.241 5.98,7.223 8.51,7.223 
		8.51,14.756 9.49,14.462 9.49,7.223 11.726,7.223 	"/>
	<g id="Fish">
		<path fill="none" stroke="#000000" stroke-width="0.18" stroke-linecap="round" stroke-miterlimit="10" d="M6.66,16.673
			c0,0,1.702,1.916,4.68-0.479"/>
		<path fill="none" stroke="#000000" stroke-width="0.18" stroke-linecap="round" stroke-miterlimit="10" d="M6.66,16.673
			c0,0,1.702-1.915,4.68,0.479"/>
	</g>
</g>
</svg>
