<?xml version="1.0" encoding="utf-8"?>
<!-- Generator: Adobe Illustrator 16.0.4, SVG Export Plug-In . SVG Version: 6.00 Build 0)  -->
<!DOCTYPE svg PUBLIC "-//W3C//DTD SVG 1.1//EN" "http://www.w3.org/Graphics/SVG/1.1/DTD/svg11.dtd">
<svg version="1.1" id="Logo" xmlns="http://www.w3.org/2000/svg" xmlns:xlink="http://www.w3.org/1999/xlink" x="0px" y="0px"
	 width="72px" height="72px" viewBox="0 0 72 72" enable-background="new 0 0 72 72" xml:space="preserve">
<g>
	<g id="Left_Hand">
		<path d="M32.363,37.06c0.043-0.79-0.839-0.896-0.952-0.834c-0.542,0.302-0.416,0.074-0.416,0.074s0.621-0.773,0.836-1.951
			s-0.842-1.223-1.444-0.621c-0.602,0.603-0.87,1.364-1.14,1.711c-0.147,0.188-0.59,0.939-0.76,1.267
			c-0.791,1.517-0.127-0.203-0.127-0.203s0.773-1.013,0.963-1.456s0.697-1.242,0.697-1.242c0.824-0.963,1.06-1.626,0.976-1.875
			c-0.778-2.292-2.787,1.141-2.787,1.141s-2.125,2.582-2.153,2.686c-0.062,0.221-0.21,0.728-0.307,0.823
			c-0.096,0.097-0.311,0.442-0.086,0.013c0.103-0.196,0.253-1.014,0.253-1.014c-0.097-0.215,0.73-0.73,1.279-2.179
			c0.361-0.36,0.524-0.565,0.659-0.811c0.166-0.303,0.424-0.745,0.38-0.963c-0.211-1.052-0.901-0.749-0.95-0.734
			c-0.452,0.132-0.528,0.342-1.434,1.089c-1.44,1.188-1.949,2.276-2.456,3.408c-0.505,1.127-1.204,3.345-1.204,3.345l-0.443,0.709
			c-0.52,0.178-1.077,0.836-1.077,0.836c-0.355-0.228-0.431-0.62-0.431-0.62c0.063-0.394,0.05-0.216-0.14-1.318
			c-0.19-1.102,0.063-0.849,0-1.305c-0.061-0.437,0.093-1.033-0.076-1.317c-0.798-1.343-1.419-0.634-1.419-0.634
			c-0.228,0.685-0.215,1.318-0.215,1.318c-0.52,0.798-0.444,2.521-0.444,2.521c-0.684,1.646,0.025,2.893,0.025,3.129
			c0,0.43,0.051,0.646,0.14,1.255c0.088,0.607,0.557,2.406,0.557,2.406c0.178,4.219-2.647,6.677-2.647,6.677
			s1.968,3.239,6.043,5.485c0.436,0.24,1.545-3.75,1.609-3.965c0.063-0.216,1.025-3.101,2.177-4.016
			c1.599-1.271,3.043-3.586,3.309-4.308c0.242-0.658,0.671-1.647,1.216-2.445c0.545-0.798,1.546-4.459,1.546-4.459
			C32.229,37.955,32.34,37.479,32.363,37.06z M28.553,37.052c0.086-0.229,0.803-1.326,0.92-1.453
			c0.041-0.043,0.862-2.551,2.103-1.926c0,0,0.432,0.507-0.287,1.766c-0.108,0.188-0.084,0.396-0.49,0.6
			c0,0-0.405,0.178-0.786-0.203c-0.211-0.211-0.376-0.22-0.376-0.22s0.183,0.414,0.646,0.65l0.464,0.076
			c0,0-0.002-0.028,0.017,0.287c0,0-0.448,1.461-0.802,1.571c0,0-0.346,0.059-1.225-0.667c0,0-0.076,0.093-0.152,0.093
			c0,0,0.017,0.093,0.203,0.278c0,0,0.179,0.258,1.047,0.558c0.22,0.076-0.076,0.422-0.186,0.836c0,0-0.416,1.225-0.845,1.359
			c0,0-0.734-1.258-1.376-1.562c0,0,0.253-0.853,0.447-1.047C28.072,37.854,28.45,37.328,28.553,37.052z M28.401,33.048
			c0,0,0.242-0.317,0.338-0.481c0.051-0.087,0.583-0.912,1.225-1.25c0.642-0.338,0.895,0.558,0.853,0.718
			c-0.042,0.161-0.693,1.588-1.546,1.588S28.359,33.048,28.401,33.048z M25.918,36.714c0.105-0.106,0.161-0.854,1.039-1.851
			c0,0,0.913-1.047,1.301-1.672c0,0-0.151,0.423,1.292,0.861c0.228,0.069-1.148,1.985-1.351,2.069c0,0-0.611-0.353-1.149-0.414
			c0,0-0.396-0.118-0.363-0.287c0,0-0.245,0.312,0.211,0.516c0,0,0.74,0.072,1.216,0.549c0.038,0.038-0.067,0.262-0.152,0.549
			s-0.752,1.478-0.988,1.562s-1.368-0.718-1.697-0.828C25.277,37.769,25.746,36.887,25.918,36.714z M31.273,39.897
			c0,0-0.312,0.236-1.208-0.287c0,0,0.245,0.6,1.056,0.685c0,0-0.527,1.258-0.608,1.545c-0.109,0.389-0.312,1.335-0.726,1.335
			c0,0-0.084-0.22-0.22-0.406c-0.225-0.308-0.317-0.935-0.648-0.968c0.251,0.344,0.479,1.044,0.479,1.357
			c0,0.559,0.304,0.408,0.033,1.162c-0.27,0.755-0.915,2.419-1.925,3.575c-0.89,1.02-1.016,1.257-1.976,1.673
			c-0.538,0.231-1.732,0.129-2.76-0.114l0.142,0.071c0,0,0.896,0.473,2.01,0.473c0,0,0.744-0.135-0.051,0.71
			c-0.037,0.039-1.125,2.147-1.317,2.82c-1.159,4.04-1.706,4.021-1.706,4.021c-2.496-1.21-5.507-5.118-5.507-5.118
			s2.128-2.111,2.568-5.878c0.019-0.165-0.237-0.929,0.591,0.304c0.701,1.045,1.244,1.52,1.395,1.64
			c-0.002-0.002-1.586-2.271-1.682-2.365c-0.245-0.245-0.992-2.308-1.098-4.224c0,0-0.777-1.617-0.017-2.833
			c0,0,0-2.268,0.439-2.707c0,0-0.046-1.509,0.541-1.317s0.811,0.558,0.726,1.419s0.089,1.317-0.844,1.824
			c0,0,0.296,0.158,0.709,0.051c0.413-0.108,0.236,0.236,0.236,0.776c0,0.541,0.057,1.194-1.047,1.656c0,0-0.122,0.282-0.244,0.343
			c0.186-0.053,0.97-0.326,1.561-0.918c0,0,0.456,0.541,0.152,1.064c0,0-0.085,0.131-0.946,0.469c0,0-0.312,0.316-0.574,0.469
			c0,0,0.125,0.009,0.363-0.102c0.659-0.304,1.081-0.845,3.074-0.642c0,0,1.123,0.249,1.947,0.997
			c0.052,0.047,0.383,0.785,0.273-0.068c0,0-0.861-0.845-1.731-1.123c-0.449-0.144-1.131-0.202-1.883-0.114
			c0,0,0.254-0.291,0.464-0.451c0.329-0.25,0.676-0.405,1.36-0.6c0,0-0.152-0.203-0.591-0.051c0,0-0.589,0.129-0.845,0.245
			c-0.354,0.16-0.295,0.016-0.219-0.06c0.075-0.075,0.278-0.481,1.148-0.642c0,0,0.333-0.029,0.431-0.127
			c0,0-0.051-0.102-0.312-0.102c-0.262,0-0.511,0.225-0.199-0.282c0.026-0.042,0.19-0.212,0.249-0.368
			c0.133-0.35,0.61-1.93,0.726-2.111c0.096-0.149,0.599-1.559,0.836-1.959c0.406-0.685,1.191-2.036,2.095-2.593
			c0,0,0.481-0.498,0.642-0.565c0.16-0.068,0.835-0.955,1.3-0.313c0,0,0.126,0.186,0.05,0.574c-0.076,0.389-0.667,1.31-1.123,1.428
			c0,0-0.548-0.16-0.852-0.766c0.008,0.017,0.042,0.11-0.164,0.225c0,0,0.044,0.152,0.914,0.77c0,0,0.331,0.54-1.013,1.824
			c0,0-1.558-0.364-1.501-0.868c0,0-0.011,0.226-0.18,0.226c0,0,0.338,0.507,1.52,0.963c0,0-0.152,0.854-1.148,2.162
			c0,0-1.024,0.135-1.352,0.236c0,0-0.321,0.161-0.321,0.229c0,0,0.499-0.211,0.794-0.161c0.295,0.051,0.861,0.034,0.338,0.136
			c-0.368,0.071-0.727,0.305-0.908,0.438c0.403-0.08,0.773-0.092,0.773-0.092s0.473-0.362,1.503,0
			c1.03,0.363,1.174,0.389,1.942,1.057c0.769,0.667,0.253-0.363,1.63,2.043c0,0,0.005,0.012,0.014,0.034
			c0.049-0.008,0.116-0.056,0.146-0.254c0.051-0.329,0.562-1.207,0.904-1.781c0.16-0.269-0.119-0.254,0.6-1.317
			c0,0,0.696,0.474,1.14,0.32C31.865,38.521,31.18,39.729,31.273,39.897z M31.307,38.386c0,0-0.776-0.025-0.727-0.396
			c0,0-0.066-0.212,0.303-1.121c0.034-0.083,0.131-0.23,0.618-0.459c0.194-0.091,0.669-0.012,0.751,0.507
			C32.252,36.916,32.084,38.358,31.307,38.386z"/>
		<path d="M25.395,39.087c0,0,0.765,4.43,2.027,5.692C27.422,44.779,26.442,43.03,25.395,39.087z"/>
		<path d="M24.01,39.712c0,0,1.257,0.896,0.929,3.496c-0.148,1.176-0.405,3.159-1.503,4.646c0,0,1.25-0.474,1.773-4.524
			C25.332,42.384,25.446,40.472,24.01,39.712z"/>
	</g>
	<g id="Right_Hand">
		<path d="M39.562,38.667c0,0,1.001,3.661,1.545,4.459c0.545,0.798,0.975,1.787,1.216,2.445c0.266,0.722,1.71,3.036,3.309,4.308
			c1.152,0.915,2.114,3.8,2.177,4.016c0.063,0.215,1.173,4.205,1.609,3.965c4.075-2.246,6.043-5.485,6.043-5.485
			s-2.825-2.458-2.648-6.676c0,0,0.469-1.8,0.558-2.407c0.089-0.608,0.139-0.825,0.139-1.255c0-0.236,0.709-1.482,0.025-3.129
			c0,0,0.076-1.723-0.443-2.521c0,0,0.013-0.634-0.215-1.318c0,0-0.621-0.709-1.419,0.634c-0.168,0.283-0.015,0.881-0.076,1.317
			c-0.063,0.456,0.19,0.203,0,1.306c-0.19,1.102-0.203,0.924-0.14,1.317c0,0-0.076,0.393-0.431,0.62c0,0-0.558-0.658-1.077-0.836
			l-0.443-0.709c0,0-0.699-2.218-1.204-3.345c-0.507-1.132-1.016-2.22-2.456-3.408c-0.906-0.747-0.982-0.957-1.434-1.089
			c-0.049-0.015-0.739-0.317-0.95,0.734c-0.044,0.219,0.214,0.66,0.38,0.963c0.135,0.245,0.298,0.449,0.659,0.811
			c0.549,1.449,1.377,1.964,1.28,2.18c0,0,0.151,0.816,0.253,1.013c0.225,0.43,0.009,0.084-0.087-0.013
			c-0.096-0.096-0.244-0.603-0.306-0.823c-0.029-0.104-2.153-2.686-2.153-2.686s-2.01-3.433-2.787-1.141
			c-0.084,0.249,0.152,0.912,0.976,1.875c0,0,0.507,0.799,0.696,1.242c0.19,0.443,0.963,1.456,0.963,1.456s0.664,1.72-0.126,0.203
			c-0.171-0.327-0.613-1.078-0.76-1.267c-0.271-0.347-0.538-1.108-1.14-1.711c-0.602-0.602-1.66-0.557-1.444,0.621
			c0.215,1.179,0.836,1.951,0.836,1.951s0.126,0.228-0.416-0.074c-0.113-0.062-0.995,0.044-0.952,0.834
			C39.141,37.465,39.251,37.94,39.562,38.667z M43.603,38.033c0.194,0.194,0.448,1.048,0.448,1.048
			c-0.642,0.304-1.376,1.562-1.376,1.562c-0.429-0.135-0.845-1.359-0.845-1.359c-0.11-0.414-0.406-0.76-0.186-0.836
			c0.868-0.3,1.047-0.558,1.047-0.558c0.186-0.186,0.203-0.278,0.203-0.278c-0.076,0-0.152-0.093-0.152-0.093
			c-0.879,0.726-1.225,0.667-1.225,0.667c-0.354-0.11-0.802-1.571-0.802-1.571c0.019-0.315,0.017-0.287,0.017-0.287l0.464-0.076
			c0.464-0.236,0.647-0.65,0.647-0.65s-0.165,0.009-0.376,0.22c-0.381,0.381-0.786,0.203-0.786,0.203
			c-0.406-0.203-0.382-0.411-0.49-0.6c-0.718-1.259-0.287-1.766-0.287-1.766c1.241-0.625,2.062,1.883,2.103,1.926
			c0.117,0.127,0.834,1.224,0.92,1.453C43.031,37.313,43.409,37.839,43.603,38.033z M42.21,33.607c-0.854,0-1.503-1.427-1.546-1.587
			c-0.042-0.161,0.211-1.057,0.853-0.719c0.642,0.338,1.173,1.163,1.225,1.25c0.096,0.164,0.338,0.481,0.338,0.481
			C43.122,33.033,43.063,33.607,42.21,33.607z M46.204,37.755c-0.329,0.109-1.461,0.912-1.697,0.827s-0.904-1.275-0.988-1.562
			s-0.19-0.511-0.152-0.549c0.476-0.477,1.216-0.549,1.216-0.549c0.456-0.203,0.211-0.516,0.211-0.516
			c0.034,0.169-0.363,0.287-0.363,0.287c-0.538,0.062-1.149,0.414-1.149,0.414c-0.203-0.084-1.579-2-1.351-2.069
			c1.443-0.438,1.292-0.861,1.292-0.861c0.388,0.625,1.3,1.672,1.3,1.672c0.878,0.997,0.934,1.744,1.039,1.851
			C45.735,36.872,46.204,37.755,46.204,37.755z M39.836,38.582c0.444,0.153,1.14-0.32,1.14-0.32c0.718,1.063,0.44,1.049,0.6,1.317
			c0.342,0.574,0.853,1.452,0.904,1.781c0.03,0.198,0.097,0.246,0.146,0.254c0.009-0.022,0.014-0.034,0.014-0.034
			c1.376-2.406,0.861-1.376,1.63-2.043c0.769-0.668,0.912-0.693,1.942-1.056c1.03-0.363,1.503,0,1.503,0s0.371,0.011,0.773,0.091
			c-0.182-0.133-0.541-0.366-0.908-0.438c-0.523-0.102,0.042-0.085,0.338-0.136c0.295-0.05,0.794,0.161,0.794,0.161
			c0-0.067-0.321-0.229-0.321-0.229c-0.327-0.101-1.351-0.236-1.351-0.236c-0.997-1.309-1.149-2.162-1.149-2.162
			c1.182-0.456,1.521-0.963,1.521-0.963c-0.169,0-0.18-0.226-0.18-0.226c0.057,0.504-1.501,0.868-1.501,0.868
			c-1.343-1.284-1.013-1.824-1.013-1.824c0.87-0.617,0.914-0.769,0.914-0.769c-0.206-0.115-0.172-0.209-0.164-0.226
			C45.165,33,44.617,33.16,44.617,33.16c-0.457-0.118-1.047-1.039-1.123-1.428c-0.076-0.388,0.05-0.574,0.05-0.574
			c0.464-0.642,1.14,0.245,1.3,0.313c0.161,0.067,0.642,0.565,0.642,0.565c0.904,0.558,1.689,1.908,2.095,2.593
			c0.238,0.4,0.74,1.81,0.836,1.959c0.117,0.182,0.594,1.762,0.727,2.111c0.059,0.156,0.223,0.326,0.249,0.368
			c0.312,0.507,0.063,0.282-0.199,0.282s-0.312,0.102-0.312,0.102c0.097,0.098,0.431,0.127,0.431,0.127
			c0.87,0.16,1.073,0.566,1.148,0.642s0.135,0.22-0.219,0.06c-0.255-0.116-0.845-0.245-0.845-0.245
			c-0.439-0.152-0.591,0.051-0.591,0.051c0.684,0.194,1.031,0.35,1.36,0.6c0.21,0.16,0.464,0.451,0.464,0.451
			c-0.752-0.088-1.435-0.029-1.884,0.114c-0.87,0.278-1.731,1.123-1.731,1.123c-0.11,0.854,0.221,0.115,0.273,0.068
			c0.824-0.748,1.947-0.997,1.947-0.997c1.993-0.202,2.416,0.338,3.074,0.642c0.238,0.11,0.363,0.102,0.363,0.102
			c-0.262-0.152-0.574-0.469-0.574-0.469c-0.861-0.338-0.946-0.469-0.946-0.469c-0.304-0.523,0.152-1.064,0.152-1.064
			c0.591,0.592,1.375,0.865,1.561,0.918c-0.123-0.061-0.244-0.343-0.244-0.343c-1.104-0.462-1.047-1.115-1.047-1.655
			c0-0.541-0.177-0.886,0.236-0.777c0.414,0.107,0.709-0.051,0.709-0.051c-0.934-0.507-0.76-0.963-0.845-1.824
			c-0.084-0.861,0.14-1.228,0.727-1.419s0.541,1.317,0.541,1.317c0.439,0.439,0.439,2.707,0.439,2.707
			c0.76,1.216-0.017,2.834-0.017,2.834c-0.106,1.914-0.853,3.978-1.098,4.223c-0.095,0.096-1.679,2.363-1.681,2.365
			c0.15-0.12,0.693-0.596,1.395-1.64c0.828-1.232,0.572-0.469,0.591-0.304c0.439,3.767,2.568,5.878,2.568,5.878
			s-3.011,3.908-5.507,5.118c0,0-0.547,0.02-1.706-4.02c-0.193-0.674-1.28-2.781-1.317-2.821c-0.794-0.845-0.051-0.71-0.051-0.71
			c1.115,0,2.01-0.473,2.01-0.473l0.142-0.071c-1.028,0.243-2.223,0.346-2.76,0.114c-0.96-0.416-1.086-0.653-1.976-1.673
			c-1.01-1.156-1.655-2.82-1.926-3.575c-0.27-0.754,0.034-0.604,0.034-1.162c0-0.313,0.228-1.014,0.479-1.357
			c-0.331,0.033-0.423,0.66-0.648,0.969c-0.136,0.186-0.22,0.405-0.22,0.405c-0.415,0-0.617-0.946-0.726-1.335
			c-0.081-0.287-0.608-1.545-0.608-1.545c0.811-0.085,1.056-0.685,1.056-0.685c-0.896,0.523-1.208,0.287-1.208,0.287
			C40.301,39.714,39.616,38.507,39.836,38.582z M39.229,36.901c0.083-0.519,0.558-0.598,0.751-0.507
			c0.487,0.229,0.584,0.376,0.618,0.459c0.369,0.909,0.303,1.121,0.303,1.121c0.05,0.371-0.727,0.396-0.727,0.396
			C39.397,38.344,39.229,36.901,39.229,36.901z"/>
		<path d="M46.085,39.072c0,0-0.764,4.43-2.026,5.692C44.059,44.765,45.039,43.016,46.085,39.072z"/>
		<path d="M47.471,39.697c0,0-1.257,0.896-0.929,3.496c0.148,1.176,0.405,3.159,1.503,4.646c0,0-1.25-0.474-1.773-4.524
			C46.149,42.369,46.035,40.457,47.471,39.697z"/>
	</g>
	<path id="Outer_Circle_1_" d="M36,1.152c4.705,0,9.269,0.921,13.564,2.737c4.149,1.756,7.876,4.269,11.077,7.469
		c3.201,3.201,5.714,6.928,7.469,11.077c1.817,4.296,2.738,8.859,2.738,13.564s-0.921,9.269-2.738,13.564
		c-1.755,4.149-4.268,7.876-7.469,11.077c-3.201,3.2-6.928,5.713-11.077,7.469c-4.295,1.816-8.859,2.737-13.564,2.737
		s-9.269-0.921-13.564-2.737c-4.15-1.756-7.876-4.269-11.077-7.469C8.158,57.44,5.645,53.714,3.89,49.564
		C2.073,45.269,1.152,40.705,1.152,36s0.921-9.269,2.738-13.564c1.755-4.149,4.268-7.876,7.469-11.077
		c3.201-3.2,6.927-5.713,11.077-7.469C26.731,2.073,31.295,1.152,36,1.152 M36,0C16.118,0,0,16.118,0,36s16.118,36,36,36
		s36-16.118,36-36S55.882,0,36,0L36,0z"/>
	<path id="Inner_Circle_1_" d="M36,10.512c6.808,0,13.208,2.651,18.022,7.466c4.814,4.813,7.465,11.215,7.465,18.022
		s-2.651,13.208-7.465,18.022C49.208,58.837,42.808,61.488,36,61.488s-13.209-2.651-18.023-7.466S10.512,42.808,10.512,36
		s2.651-13.209,7.465-18.022C22.791,13.163,29.192,10.512,36,10.512 M36,9.36C21.287,9.36,9.36,21.287,9.36,36
		S21.287,62.64,36,62.64S62.64,50.713,62.64,36S50.713,9.36,36,9.36L36,9.36z"/>
	<g id="Text">
		<path d="M14.081,53.708l0.086,0.092c0.112,0.141,0.212,0.259,0.303,0.354c0.083,0.089,0.189,0.194,0.317,0.316l0.105,0.09
			l-0.03,0.104c-0.217,0.266-0.384,0.487-0.5,0.665c-0.049,0.073-0.13,0.193-0.242,0.36c-0.111,0.166-0.174,0.262-0.187,0.287
			l-0.008,0.014l0.056,0.06c0.038,0.04,0.163,0.181,0.377,0.423c0.017,0.019,0.08,0.082,0.189,0.19
			c0.148,0.15,0.244,0.249,0.289,0.297c-0.002,0.001,0.017-0.008,0.056-0.027c0.04-0.021,0.131-0.069,0.276-0.147
			c0.213-0.111,0.373-0.195,0.48-0.254c0.107-0.058,0.181-0.101,0.22-0.128c0.117-0.071,0.239-0.154,0.366-0.246l0.022-0.021
			l0.1,0.003c0.034,0.036,0.053,0.062,0.058,0.078c0.089,0.113,0.172,0.211,0.249,0.293c0.06,0.062,0.12,0.118,0.182,0.166
			c0.019,0.01,0.051,0.038,0.097,0.087L16.9,56.877c-0.171,0.028-0.348,0.076-0.529,0.145c-0.182,0.068-0.414,0.164-0.697,0.287
			l-0.056,0.027c-0.217,0.099-0.505,0.234-0.864,0.407c-0.358,0.174-0.719,0.349-1.082,0.525S13,58.6,12.742,58.731
			c-0.258,0.132-0.389,0.199-0.393,0.203c-0.017,0.015-0.03,0.038-0.041,0.068s-0.033,0.131-0.066,0.303l-0.128,0.049
			c-0.049-0.053-0.142-0.155-0.278-0.307c-0.146-0.17-0.235-0.272-0.267-0.307c-0.024-0.025-0.062-0.062-0.115-0.111
			c-0.046-0.042-0.107-0.099-0.185-0.17l0.03-0.104c0.169-0.233,0.339-0.475,0.51-0.725c0.171-0.249,0.34-0.506,0.506-0.77
			s0.331-0.529,0.493-0.796s0.306-0.506,0.43-0.718c0.148-0.256,0.265-0.46,0.349-0.614c0.084-0.153,0.152-0.285,0.204-0.396
			s0.091-0.207,0.117-0.292c0.026-0.084,0.046-0.181,0.061-0.289L14.081,53.708z M12.688,58.017l-0.021,0.01l0.002,0.003
			l0.439-0.213c0.296-0.142,0.552-0.265,0.768-0.369c0.216-0.104,0.374-0.183,0.474-0.235c-0.016-0.017-0.06-0.065-0.133-0.146
			c-0.073-0.082-0.162-0.179-0.268-0.291l-0.312-0.331c-0.246,0.385-0.453,0.719-0.623,1.002
			C12.847,57.729,12.737,57.92,12.688,58.017z"/>
		<path d="M11.517,49.955l0.632,0.936c-0.021,0.137-0.06,0.266-0.117,0.387c-0.056,0.12-0.141,0.278-0.254,0.476
			c-0.012,0.025-0.021,0.042-0.025,0.048c-0.003,0.005-0.036,0.062-0.1,0.172c-0.181,0.313-0.289,0.501-0.323,0.56
			c-0.042,0.08-0.082,0.158-0.12,0.236c-0.037,0.078-0.07,0.167-0.098,0.267c-0.028,0.101-0.04,0.198-0.033,0.294
			c0.006,0.097,0.036,0.184,0.089,0.262c0.033,0.05,0.073,0.102,0.118,0.154c0.045,0.054,0.072,0.084,0.079,0.091l0.089-0.061
			c0.106-0.069,0.198-0.129,0.274-0.181c0.161-0.108,0.314-0.215,0.46-0.317c0.146-0.104,0.255-0.182,0.328-0.233
			c0.151-0.114,0.263-0.206,0.337-0.277c0.074-0.07,0.153-0.154,0.238-0.25l0.024-0.03l0.116-0.016
			c0.037,0.09,0.065,0.154,0.087,0.195c0.022,0.041,0.065,0.11,0.131,0.207c0.069,0.103,0.13,0.19,0.184,0.265
			c0.053,0.074,0.122,0.152,0.208,0.234l-0.062,0.114c-0.085,0.016-0.171,0.042-0.258,0.078c-0.086,0.036-0.21,0.101-0.372,0.194
			c-0.099,0.055-0.244,0.143-0.438,0.265c-0.193,0.122-0.398,0.256-0.614,0.402c-0.279,0.182-0.642,0.425-1.091,0.728
			c-0.249,0.169-0.475,0.324-0.677,0.467s-0.356,0.259-0.463,0.349c-0.061,0.057-0.109,0.113-0.143,0.172
			c-0.035,0.058-0.069,0.145-0.104,0.261l-0.148,0.021c-0.041-0.104-0.079-0.186-0.114-0.243c-0.036-0.057-0.083-0.129-0.143-0.218
			c-0.141-0.208-0.262-0.383-0.364-0.525c-0.102-0.143-0.193-0.263-0.272-0.362c-0.004-0.007-0.028-0.037-0.071-0.092
			c-0.092-0.109-0.178-0.218-0.259-0.326c-0.081-0.109-0.142-0.193-0.182-0.253c-0.202-0.299-0.262-0.588-0.18-0.868
			s0.253-0.508,0.512-0.684c0.183-0.123,0.371-0.209,0.562-0.256s0.378-0.062,0.561-0.046s0.353,0.056,0.512,0.119
			s0.251,0.104,0.275,0.12l0.004,0.006c0.004-0.002,0.008-0.039,0.011-0.11c0.006-0.088,0.027-0.179,0.061-0.272
			s0.083-0.198,0.145-0.314c0.063-0.115,0.152-0.272,0.267-0.471c0.165-0.284,0.29-0.511,0.377-0.68
			c0.087-0.168,0.147-0.303,0.18-0.405c0.033-0.102,0.051-0.182,0.054-0.239c0.003-0.057-0.006-0.155-0.027-0.293L11.517,49.955z
			 M11.015,54.077c-0.009-0.019-0.025-0.051-0.048-0.099c-0.023-0.047-0.054-0.1-0.093-0.157c-0.133-0.197-0.281-0.337-0.442-0.418
			c-0.161-0.082-0.321-0.119-0.479-0.113s-0.304,0.037-0.439,0.093c-0.135,0.055-0.25,0.114-0.344,0.179
			c-0.251,0.17-0.412,0.355-0.482,0.558s-0.046,0.392,0.074,0.568c0.072,0.106,0.168,0.185,0.288,0.232
			c0.119,0.049,0.236,0.067,0.349,0.057c0.113-0.01,0.236-0.048,0.371-0.113s0.327-0.181,0.577-0.347L11.015,54.077z"/>
		<path d="M6.126,49.233c0.026,0.104,0.048,0.18,0.067,0.23c0.019,0.05,0.048,0.115,0.087,0.195c0.053,0.118,0.197,0.418,0.433,0.9
			c0.034,0.069,0.058,0.111,0.072,0.126c0.015,0.016,0.037,0.021,0.068,0.017c0.024-0.007,0.103-0.039,0.235-0.097
			c0.132-0.058,0.294-0.133,0.487-0.225c0.272-0.128,0.516-0.244,0.729-0.349c-0.124-0.252-0.236-0.479-0.338-0.682
			c-0.102-0.201-0.162-0.319-0.182-0.354c-0.057-0.088-0.108-0.148-0.154-0.18s-0.119-0.068-0.22-0.11l-0.105-0.035l0.055-0.16
			l0.811-0.318c0.045,0.127,0.083,0.233,0.114,0.318c0.031,0.084,0.08,0.202,0.149,0.354c0.025,0.062,0.102,0.225,0.229,0.485
			l0.193,0.412l0.188-0.092c0.122-0.058,0.213-0.101,0.276-0.132c0.199-0.097,0.393-0.194,0.583-0.292
			c0.19-0.097,0.304-0.156,0.34-0.177c0.031-0.021,0.045-0.04,0.042-0.059c-0.003-0.018-0.041-0.1-0.113-0.247
			c-0.095-0.194-0.174-0.35-0.236-0.465c-0.056-0.104-0.104-0.188-0.145-0.253c-0.041-0.066-0.073-0.115-0.097-0.147
			c-0.041-0.044-0.085-0.078-0.133-0.103c-0.048-0.025-0.141-0.059-0.277-0.1l0.035-0.166l0.876-0.388
			c0.058,0.118,0.104,0.23,0.141,0.337c0.02,0.052,0.038,0.098,0.056,0.139c0.029,0.083,0.099,0.241,0.208,0.476
			c0.109,0.234,0.245,0.517,0.407,0.847c0.065,0.134,0.127,0.258,0.186,0.371c0.059,0.114,0.123,0.215,0.193,0.302l-0.077,0.121
			c-0.102,0.002-0.189,0.015-0.265,0.036s-0.174,0.057-0.297,0.105c-0.104,0.041-0.231,0.095-0.379,0.162
			c-0.148,0.066-0.311,0.141-0.487,0.222c-0.329,0.152-0.62,0.291-0.872,0.414c-0.564,0.277-0.988,0.486-1.271,0.63
			c-0.283,0.143-0.485,0.25-0.606,0.324c-0.12,0.072-0.205,0.131-0.256,0.177c-0.051,0.046-0.093,0.098-0.125,0.155l-0.131,0.01
			c-0.073-0.177-0.142-0.337-0.207-0.479c-0.064-0.143-0.17-0.364-0.318-0.666c-0.081-0.165-0.167-0.335-0.257-0.509
			c-0.045-0.091-0.086-0.169-0.123-0.232s-0.066-0.112-0.088-0.146c-0.014-0.019-0.024-0.032-0.03-0.044
			c-0.04-0.063-0.082-0.114-0.127-0.153s-0.146-0.098-0.3-0.177l0.04-0.156L6.126,49.233z"/>
		<path d="M8.638,42.761l0.04,0.121c0.042,0.174,0.083,0.324,0.124,0.449c0.038,0.116,0.089,0.256,0.154,0.421l0.057,0.126
			L8.94,43.96c-0.31,0.148-0.555,0.278-0.735,0.39c-0.076,0.046-0.2,0.121-0.372,0.224c-0.171,0.104-0.269,0.164-0.292,0.183
			l-0.013,0.008l0.025,0.078c0.017,0.052,0.071,0.232,0.162,0.543c0.008,0.023,0.038,0.107,0.091,0.252
			c0.07,0.199,0.116,0.33,0.136,0.391c-0.002,0.001,0.019,0.001,0.062,0c0.044-0.002,0.148-0.007,0.312-0.017
			c0.24-0.011,0.42-0.02,0.542-0.026c0.122-0.008,0.207-0.015,0.253-0.022c0.136-0.016,0.282-0.039,0.437-0.068l0.028-0.01
			l0.089,0.046c0.016,0.047,0.022,0.079,0.02,0.095c0.033,0.142,0.067,0.265,0.102,0.371c0.027,0.083,0.059,0.158,0.095,0.228
			c0.013,0.017,0.03,0.058,0.051,0.121l-0.086,0.083c-0.167-0.047-0.348-0.078-0.541-0.094c-0.193-0.015-0.444-0.026-0.753-0.035
			l-0.062,0.001c-0.239-0.003-0.558-0.002-0.956,0.003c-0.398,0.005-0.799,0.011-1.202,0.018c-0.403,0.007-0.75,0.015-1.039,0.024
			s-0.437,0.016-0.441,0.018c-0.021,0.007-0.043,0.021-0.065,0.045c-0.023,0.023-0.085,0.104-0.188,0.246l-0.136-0.011
			c-0.022-0.068-0.063-0.2-0.122-0.395c-0.06-0.216-0.098-0.346-0.112-0.392c-0.011-0.032-0.03-0.083-0.057-0.149
			c-0.024-0.058-0.056-0.135-0.096-0.231l0.071-0.082c0.252-0.141,0.508-0.287,0.769-0.44c0.261-0.153,0.523-0.314,0.785-0.482
			c0.263-0.169,0.523-0.339,0.783-0.512s0.491-0.329,0.694-0.469c0.243-0.168,0.435-0.305,0.576-0.408
			c0.142-0.104,0.259-0.194,0.352-0.272c0.094-0.077,0.17-0.149,0.23-0.214c0.06-0.065,0.119-0.145,0.177-0.237L8.638,42.761z
			 M5.551,46.074H5.527l0.001,0.004l0.488-0.007c0.328-0.003,0.612-0.006,0.852-0.009s0.416-0.007,0.529-0.013
			c-0.007-0.021-0.026-0.084-0.058-0.188s-0.072-0.23-0.12-0.377l-0.142-0.432c-0.385,0.243-0.715,0.458-0.989,0.644
			C5.816,45.881,5.636,46.008,5.551,46.074z"/>
		<path d="M3.816,35.055l-0.032,0.102c-0.177,0.103-0.315,0.211-0.414,0.326c-0.099,0.114-0.172,0.228-0.221,0.338
			s-0.082,0.212-0.099,0.306c-0.017,0.093-0.025,0.175-0.023,0.244c0.003,0.161,0.055,0.334,0.156,0.517
			c0.102,0.184,0.252,0.358,0.451,0.525c0.2,0.166,0.452,0.3,0.757,0.399c0.305,0.101,0.647,0.146,1.027,0.14
			c0.343-0.006,0.647-0.053,0.915-0.142c0.267-0.088,0.489-0.206,0.668-0.354S7.313,37.138,7.4,36.95
			c0.087-0.188,0.129-0.387,0.125-0.595c-0.002-0.135-0.032-0.28-0.09-0.438S7.3,35.596,7.201,35.426s-0.211-0.333-0.337-0.489
			c-0.126-0.157-0.281-0.326-0.466-0.506l0.128-0.114c0.15,0.042,0.357,0.097,0.622,0.163c0.265,0.067,0.506,0.128,0.723,0.181
			l0.027,1.506c0,0.015,0.001,0.044,0.003,0.087c0.002,0.044,0.006,0.107,0.013,0.192c0.006,0.092,0.011,0.16,0.015,0.204
			c0.003,0.045,0.005,0.077,0.005,0.097c0.004,0.222-0.001,0.408-0.016,0.562s-0.047,0.298-0.097,0.433s-0.123,0.261-0.22,0.377
			s-0.226,0.229-0.385,0.342c-0.449,0.316-1.016,0.48-1.702,0.493c-0.191,0.004-0.403-0.01-0.635-0.04
			c-0.231-0.031-0.473-0.094-0.725-0.188s-0.487-0.238-0.707-0.431s-0.388-0.436-0.505-0.729c-0.039-0.094-0.083-0.221-0.132-0.382
			c-0.049-0.16-0.095-0.33-0.138-0.51s-0.078-0.35-0.104-0.511c-0.026-0.161-0.041-0.285-0.042-0.372
			c-0.006-0.315,0.053-0.601,0.176-0.854c0.124-0.255,0.325-0.495,0.604-0.722l0.101,0.01L3.816,35.055z"/>
		<path d="M5.056,32.427l0.235-1.582c0.04-0.268,0.062-0.444,0.064-0.529l-0.092-0.014c-0.122-0.022-0.186-0.035-0.19-0.035
			c-0.177-0.026-0.355-0.05-0.534-0.07c-0.179-0.021-0.352-0.038-0.518-0.053S3.7,30.119,3.556,30.115s-0.275,0.003-0.393,0.021
			l-0.044-0.108l0.007-0.051c0.017-0.046,0.032-0.093,0.044-0.143c0.013-0.05,0.028-0.141,0.048-0.273
			c0.02-0.13,0.031-0.226,0.035-0.285c0.004-0.06,0.005-0.144,0.004-0.252l0.116-0.047c0.139,0.062,0.416,0.138,0.831,0.229
			s0.886,0.178,1.414,0.256c0.516,0.077,0.903,0.134,1.162,0.169c0.258,0.036,0.494,0.065,0.707,0.089
			c0.213,0.022,0.391,0.035,0.535,0.036c0.145,0.002,0.282-0.008,0.413-0.028l0.089,0.084c-0.027,0.082-0.049,0.159-0.065,0.233
			s-0.035,0.183-0.056,0.325c-0.02,0.136-0.032,0.228-0.037,0.275c-0.005,0.049-0.003,0.128,0.006,0.24l-0.124,0.02
			c-0.123-0.054-0.245-0.1-0.368-0.138s-0.262-0.073-0.419-0.104c-0.158-0.031-0.345-0.065-0.563-0.104
			c-0.218-0.038-0.516-0.087-0.894-0.146l-0.158,1.062c-0.005,0.032-0.032,0.233-0.082,0.603c-0.038,0.283-0.057,0.432-0.059,0.447
			l0.63,0.094c0.249,0.036,0.461,0.065,0.637,0.085c0.177,0.021,0.322,0.034,0.435,0.04c0.113,0.007,0.208,0.009,0.286,0.005
			c0.077-0.003,0.183-0.011,0.318-0.023l0.055,0.109c-0.021,0.075-0.038,0.138-0.05,0.188c-0.013,0.051-0.029,0.143-0.049,0.275
			c-0.015,0.101-0.025,0.196-0.031,0.286c-0.006,0.089-0.011,0.17-0.017,0.242l-0.086,0.073c-0.104-0.046-0.203-0.083-0.298-0.112
			s-0.213-0.059-0.354-0.09c-0.491-0.108-1.145-0.224-1.96-0.345c-0.745-0.111-1.287-0.185-1.627-0.22
			c-0.34-0.036-0.624-0.037-0.853-0.003l-0.077-0.087c0.032-0.116,0.058-0.224,0.078-0.322c0.02-0.099,0.036-0.193,0.05-0.284
			c0.014-0.094,0.021-0.161,0.023-0.204c0.001-0.042,0.002-0.119,0.004-0.229l0.102-0.049c0.296,0.104,0.596,0.188,0.9,0.251
			C4.119,32.267,4.531,32.341,5.056,32.427z"/>
		<path d="M9.868,25.442l-0.343,1.076c-0.121,0.068-0.246,0.118-0.376,0.148c-0.129,0.03-0.307,0.062-0.531,0.095
			c-0.028,0.007-0.046,0.01-0.054,0.01c-0.005,0.001-0.071,0.011-0.196,0.027c-0.358,0.053-0.572,0.084-0.64,0.094
			c-0.089,0.017-0.175,0.034-0.259,0.053c-0.084,0.019-0.174,0.048-0.271,0.088s-0.18,0.092-0.251,0.156s-0.122,0.142-0.15,0.231
			c-0.018,0.058-0.034,0.12-0.048,0.188c-0.014,0.068-0.021,0.108-0.022,0.118l0.103,0.033c0.12,0.04,0.224,0.075,0.312,0.103
			c0.185,0.059,0.363,0.114,0.534,0.164c0.171,0.051,0.3,0.089,0.386,0.113c0.183,0.048,0.325,0.079,0.426,0.093
			c0.101,0.015,0.216,0.024,0.344,0.031l0.039,0.001l0.083,0.081c-0.047,0.084-0.081,0.147-0.099,0.189
			c-0.019,0.043-0.046,0.119-0.082,0.23c-0.038,0.118-0.069,0.221-0.094,0.309c-0.025,0.087-0.043,0.189-0.055,0.309l-0.128,0.021
			c-0.065-0.057-0.139-0.108-0.221-0.154c-0.082-0.045-0.209-0.103-0.383-0.171c-0.104-0.043-0.263-0.104-0.479-0.18
			s-0.448-0.154-0.696-0.233c-0.315-0.105-0.731-0.241-1.248-0.405c-0.286-0.091-0.548-0.172-0.785-0.242
			c-0.237-0.07-0.424-0.119-0.561-0.147c-0.082-0.013-0.156-0.015-0.223-0.006c-0.066,0.009-0.157,0.035-0.27,0.08l-0.107-0.104
			c0.057-0.097,0.097-0.177,0.12-0.24c0.022-0.063,0.05-0.146,0.083-0.247c0.076-0.239,0.138-0.443,0.187-0.611
			c0.048-0.169,0.087-0.314,0.116-0.438c0.002-0.007,0.012-0.044,0.028-0.112c0.029-0.14,0.061-0.274,0.096-0.405
			s0.064-0.23,0.085-0.3c0.109-0.343,0.299-0.569,0.57-0.679s0.555-0.116,0.854-0.021c0.211,0.067,0.394,0.161,0.549,0.283
			c0.156,0.121,0.284,0.258,0.383,0.411c0.1,0.153,0.175,0.312,0.224,0.476c0.049,0.165,0.074,0.262,0.076,0.29l-0.002,0.008
			c0.005,0.001,0.036-0.019,0.094-0.061c0.073-0.05,0.157-0.09,0.251-0.121s0.207-0.058,0.336-0.081
			c0.13-0.022,0.308-0.05,0.535-0.082c0.326-0.047,0.582-0.089,0.768-0.125s0.329-0.072,0.43-0.109s0.174-0.072,0.222-0.105
			c0.047-0.033,0.118-0.101,0.213-0.204L9.868,25.442z M6.321,27.603c0.008-0.019,0.024-0.051,0.047-0.099s0.045-0.104,0.066-0.171
			c0.073-0.227,0.091-0.43,0.055-0.606s-0.106-0.325-0.208-0.445s-0.217-0.216-0.344-0.288c-0.127-0.071-0.245-0.125-0.354-0.159
			c-0.289-0.092-0.534-0.104-0.736-0.033c-0.202,0.069-0.336,0.206-0.4,0.41c-0.04,0.123-0.041,0.246-0.004,0.37
			c0.036,0.124,0.093,0.227,0.171,0.309s0.184,0.156,0.319,0.221c0.134,0.065,0.344,0.145,0.63,0.238L6.321,27.603z"/>
		<path d="M9.982,25.133c-0.102-0.075-0.212-0.151-0.331-0.229c-0.118-0.076-0.292-0.173-0.524-0.289
			c-0.24-0.12-0.5-0.245-0.778-0.374s-0.621-0.283-1.027-0.464c-0.534-0.237-0.938-0.408-1.215-0.515s-0.547-0.184-0.812-0.229
			l-0.058-0.071c0.021-0.048,0.042-0.088,0.061-0.119c0.027-0.048,0.058-0.104,0.092-0.17c0.034-0.064,0.072-0.145,0.115-0.24
			c0.035-0.079,0.061-0.143,0.076-0.19s0.032-0.095,0.047-0.143c0.016-0.047,0.029-0.083,0.04-0.108l0.091-0.065
			c0.141,0.098,0.257,0.176,0.347,0.233s0.213,0.127,0.371,0.207c0.518,0.268,1.227,0.602,2.128,1.002
			c0.332,0.146,0.598,0.263,0.8,0.347s0.385,0.155,0.55,0.212c0.095,0.031,0.174,0.054,0.237,0.066
			c0.063,0.014,0.151,0.029,0.262,0.049l0.061,0.093l-0.063,0.106c-0.089,0.164-0.162,0.309-0.217,0.434
			c-0.035,0.077-0.059,0.135-0.074,0.175c-0.015,0.04-0.031,0.087-0.047,0.143c-0.002,0.023-0.016,0.063-0.042,0.12L9.982,25.133z"
			/>
		<path d="M9.896,21.973c0.06,0.091,0.116,0.165,0.167,0.222s0.116,0.106,0.191,0.149c0.067,0.038,0.14,0.067,0.219,0.086
			c0.079,0.02,0.16,0.024,0.241,0.014c0.082-0.011,0.16-0.041,0.233-0.093c0.074-0.051,0.139-0.126,0.195-0.226
			c0.079-0.138,0.112-0.289,0.101-0.452c-0.011-0.164-0.056-0.326-0.136-0.487c-0.08-0.161-0.18-0.308-0.3-0.439
			c-0.121-0.132-0.246-0.234-0.375-0.309c-0.153-0.087-0.284-0.138-0.391-0.149c-0.107-0.013-0.192-0.004-0.255,0.025
			c-0.063,0.03-0.113,0.067-0.149,0.112c-0.037,0.045-0.074,0.1-0.111,0.164c-0.006,0.011-0.047,0.094-0.124,0.247
			c-0.047,0.103-0.104,0.223-0.172,0.361c-0.067,0.139-0.112,0.228-0.135,0.267c-0.071,0.125-0.158,0.245-0.259,0.36
			c-0.102,0.115-0.235,0.197-0.4,0.246c-0.141,0.046-0.288,0.057-0.442,0.031s-0.306-0.08-0.455-0.165
			c-0.175-0.1-0.327-0.223-0.456-0.37c-0.129-0.146-0.231-0.305-0.306-0.476s-0.118-0.347-0.13-0.527
			c-0.013-0.181,0.007-0.353,0.061-0.517c0.023-0.075,0.057-0.167,0.101-0.275c0.044-0.107,0.096-0.22,0.154-0.337
			s0.111-0.219,0.158-0.307s0.088-0.161,0.122-0.222c0.084-0.147,0.161-0.269,0.231-0.364s0.162-0.178,0.273-0.245
			c0.112-0.068,0.245-0.096,0.398-0.082s0.327,0.075,0.519,0.185l0.065,0.036c0.041,0.029,0.085,0.058,0.132,0.085l-0.131,0.229
			c-0.028,0.044-0.045,0.072-0.053,0.086c-0.037,0.064-0.067,0.121-0.09,0.169c-0.023,0.048-0.087,0.182-0.191,0.399l-0.109-0.011
			c-0.028-0.017-0.045-0.027-0.05-0.033c-0.04-0.031-0.077-0.057-0.111-0.076c-0.116-0.066-0.219-0.1-0.309-0.101
			c-0.089-0.001-0.162,0.015-0.219,0.049c-0.056,0.033-0.101,0.071-0.133,0.113c-0.032,0.041-0.061,0.084-0.085,0.127
			c-0.08,0.141-0.123,0.283-0.129,0.43s0.019,0.29,0.074,0.431s0.134,0.269,0.234,0.383s0.21,0.205,0.329,0.273
			c0.125,0.071,0.235,0.108,0.329,0.112c0.094,0.003,0.171-0.013,0.233-0.048s0.109-0.074,0.144-0.117s0.066-0.09,0.094-0.14
			c0.022-0.039,0.11-0.229,0.265-0.569c0.053-0.107,0.104-0.214,0.152-0.319c0.048-0.104,0.083-0.175,0.103-0.209
			c0.083-0.147,0.18-0.258,0.29-0.333c0.11-0.074,0.232-0.119,0.366-0.134c0.125-0.009,0.259,0.002,0.402,0.031
			c0.143,0.03,0.303,0.096,0.48,0.197c0.225,0.128,0.415,0.281,0.57,0.46c0.155,0.179,0.276,0.365,0.361,0.562
			c0.086,0.196,0.138,0.391,0.156,0.585c0.018,0.193,0.003,0.369-0.044,0.528c-0.016,0.073-0.052,0.172-0.107,0.297
			c-0.056,0.124-0.111,0.24-0.167,0.349s-0.117,0.226-0.184,0.353c-0.066,0.126-0.124,0.232-0.173,0.319
			c-0.081,0.143-0.162,0.254-0.243,0.335c-0.081,0.082-0.182,0.139-0.304,0.173c-0.142,0.038-0.284,0.039-0.426,0.001
			c-0.141-0.037-0.271-0.09-0.39-0.158c-0.108-0.061-0.197-0.123-0.269-0.187s-0.139-0.137-0.203-0.219
			c0.1-0.175,0.174-0.314,0.225-0.417c0.05-0.104,0.123-0.253,0.218-0.45L9.896,21.973z"/>
		<path d="M11.539,14.265c-0.215,0.232-0.362,0.392-0.441,0.479s-0.156,0.18-0.232,0.275c-0.086,0.109-0.132,0.185-0.138,0.229
			l-0.008,0.064c0.049,0.066,0.231,0.239,0.548,0.517c0.317,0.278,0.733,0.621,1.247,1.028c0.276,0.219,0.503,0.396,0.681,0.532
			c0.178,0.136,0.324,0.241,0.438,0.317c0.114,0.076,0.212,0.136,0.293,0.18s0.192,0.099,0.333,0.166l0.035,0.123
			c-0.071,0.054-0.13,0.104-0.176,0.15c-0.046,0.046-0.104,0.113-0.175,0.203c-0.077,0.098-0.135,0.176-0.173,0.236
			s-0.081,0.137-0.129,0.229l-0.123-0.007c-0.082-0.109-0.192-0.233-0.333-0.373c-0.14-0.139-0.296-0.283-0.468-0.432
			c-0.172-0.149-0.334-0.285-0.487-0.409c-0.152-0.124-0.315-0.254-0.488-0.392c-0.179-0.142-0.356-0.279-0.532-0.412
			c-0.175-0.132-0.346-0.26-0.513-0.382c-0.166-0.122-0.306-0.224-0.42-0.304s-0.191-0.129-0.231-0.146
			c-0.02-0.012-0.032-0.017-0.038-0.016c-0.006,0.002-0.022,0.02-0.049,0.052c-0.202,0.256-0.355,0.474-0.459,0.653
			c-0.105,0.181-0.17,0.403-0.196,0.668L9.142,17.49L8.63,16.763c0.076-0.096,0.144-0.178,0.205-0.247
			c0.115-0.137,0.254-0.305,0.418-0.504c0.164-0.198,0.359-0.441,0.587-0.729c0.259-0.327,0.455-0.578,0.586-0.753
			s0.228-0.308,0.288-0.399c0.033-0.05,0.056-0.088,0.068-0.113c0.012-0.024,0.021-0.05,0.027-0.075
			c0.006-0.026,0.008-0.057,0.005-0.094c-0.003-0.037-0.01-0.102-0.022-0.194l-0.001-0.119l0.206-0.031L11.539,14.265z"/>
		<path d="M15.485,16.669c-0.069-0.106-0.146-0.217-0.229-0.33c-0.083-0.114-0.213-0.266-0.388-0.456
			c-0.183-0.196-0.381-0.404-0.597-0.623s-0.481-0.484-0.798-0.796c-0.416-0.41-0.735-0.713-0.956-0.91
			c-0.221-0.196-0.447-0.363-0.679-0.5l-0.03-0.087c0.037-0.037,0.07-0.067,0.1-0.09c0.042-0.036,0.09-0.078,0.145-0.127
			c0.055-0.049,0.119-0.11,0.192-0.185c0.061-0.062,0.107-0.112,0.138-0.151s0.063-0.077,0.094-0.116s0.056-0.068,0.076-0.088
			l0.107-0.03c0.098,0.142,0.179,0.256,0.243,0.341c0.064,0.086,0.155,0.194,0.274,0.325c0.39,0.432,0.936,0.994,1.639,1.686
			c0.259,0.255,0.468,0.457,0.627,0.606c0.159,0.15,0.306,0.28,0.44,0.392c0.078,0.063,0.144,0.111,0.199,0.146
			c0.055,0.034,0.13,0.08,0.228,0.138l0.024,0.107l-0.097,0.077c-0.141,0.123-0.26,0.232-0.355,0.33
			c-0.06,0.061-0.103,0.106-0.131,0.138c-0.028,0.032-0.059,0.071-0.094,0.117c-0.011,0.021-0.038,0.054-0.081,0.098L15.485,16.669z
			"/>
		<path d="M19.841,12.913l-0.098,0.08c-0.148,0.103-0.273,0.194-0.375,0.278c-0.094,0.077-0.207,0.175-0.337,0.294l-0.097,0.1
			l-0.103-0.037c-0.25-0.235-0.459-0.416-0.628-0.545c-0.071-0.055-0.185-0.143-0.343-0.266c-0.158-0.123-0.25-0.191-0.275-0.206
			l-0.012-0.01l-0.063,0.053c-0.042,0.034-0.192,0.15-0.448,0.347c-0.02,0.016-0.087,0.074-0.203,0.176
			c-0.16,0.138-0.265,0.227-0.315,0.268c-0.001-0.002,0.006,0.018,0.023,0.059c0.017,0.04,0.06,0.136,0.128,0.285
			c0.096,0.22,0.169,0.385,0.22,0.496s0.088,0.188,0.112,0.229c0.064,0.121,0.138,0.248,0.221,0.382l0.019,0.023l-0.01,0.1
			c-0.039,0.031-0.066,0.049-0.082,0.053c-0.12,0.081-0.223,0.157-0.309,0.229c-0.067,0.055-0.127,0.111-0.178,0.17
			c-0.011,0.019-0.042,0.049-0.094,0.092l-0.109-0.051c-0.016-0.173-0.052-0.353-0.107-0.538c-0.056-0.186-0.135-0.424-0.239-0.715
			l-0.023-0.058c-0.084-0.224-0.2-0.521-0.348-0.891c-0.148-0.369-0.298-0.741-0.45-1.114c-0.151-0.374-0.284-0.693-0.398-0.96
			s-0.172-0.402-0.175-0.406c-0.014-0.017-0.036-0.032-0.066-0.045c-0.029-0.013-0.128-0.041-0.297-0.086l-0.04-0.132
			c0.056-0.045,0.164-0.131,0.325-0.256c0.18-0.134,0.287-0.216,0.324-0.246c0.027-0.021,0.067-0.058,0.12-0.106
			c0.045-0.044,0.105-0.101,0.181-0.173l0.103,0.037c0.221,0.185,0.451,0.37,0.688,0.559c0.237,0.188,0.482,0.373,0.733,0.558
			c0.252,0.184,0.505,0.366,0.76,0.546c0.255,0.18,0.484,0.339,0.688,0.478c0.245,0.166,0.441,0.296,0.588,0.39
			c0.148,0.095,0.275,0.171,0.381,0.23c0.106,0.06,0.201,0.104,0.283,0.137s0.177,0.059,0.285,0.08L19.841,12.913z M15.637,11.23
			l-0.008-0.022l-0.003,0.003l0.182,0.452c0.122,0.305,0.227,0.569,0.316,0.791c0.089,0.223,0.156,0.386,0.203,0.489
			c0.017-0.014,0.069-0.055,0.155-0.122c0.086-0.067,0.188-0.149,0.308-0.247l0.352-0.288c-0.367-0.271-0.686-0.501-0.957-0.69
			C15.913,11.407,15.73,11.285,15.637,11.23z"/>
		<path d="M20.666,6.28c0.097-0.035,0.169-0.063,0.217-0.085s0.112-0.056,0.191-0.101c0.059-0.033,0.12-0.071,0.185-0.113
			c0.064-0.043,0.16-0.108,0.286-0.197l0.104,0.069c-0.019,0.134-0.02,0.24-0.004,0.319c0.015,0.08,0.038,0.162,0.068,0.244
			c0.035,0.098,0.098,0.234,0.187,0.411s0.194,0.373,0.314,0.591c0.173,0.318,0.368,0.669,0.585,1.052
			c0.155,0.271,0.318,0.557,0.49,0.854c0.126,0.208,0.23,0.375,0.31,0.503s0.134,0.209,0.163,0.244
			c0.045,0.049,0.087,0.085,0.126,0.108s0.12,0.062,0.241,0.115l-0.005,0.128c-0.049,0.028-0.174,0.093-0.373,0.194
			c-0.126,0.061-0.197,0.095-0.211,0.104c-0.022,0.013-0.146,0.094-0.371,0.245l-0.107,0.061c-0.095-0.051-0.325-0.177-0.689-0.375
			c-0.365-0.198-0.685-0.372-0.961-0.521c-0.276-0.148-0.553-0.298-0.832-0.448c-0.278-0.15-0.484-0.259-0.616-0.326
			c-0.037-0.02-0.167-0.088-0.392-0.206c-0.153-0.079-0.306-0.158-0.457-0.238l-0.01-0.003c0.015,0.026,0.08,0.142,0.194,0.347
			c0.115,0.204,0.256,0.453,0.423,0.747l0.756,1.314c0.107,0.188,0.2,0.344,0.28,0.467s0.163,0.228,0.249,0.313L21,12.203
			c-0.225,0.103-0.405,0.192-0.541,0.27c-0.1,0.057-0.187,0.114-0.261,0.175l-0.094,0.074l-0.123-0.08
			c0.018-0.149,0.014-0.289-0.011-0.418c-0.024-0.129-0.075-0.274-0.15-0.438c-0.062-0.136-0.18-0.358-0.35-0.669
			c-0.171-0.311-0.378-0.68-0.623-1.11c-0.188-0.33-0.352-0.614-0.49-0.853c-0.117-0.196-0.219-0.363-0.304-0.501
			c-0.085-0.137-0.138-0.216-0.158-0.235c-0.047-0.042-0.097-0.075-0.15-0.099c-0.054-0.024-0.139-0.055-0.257-0.09l0.006-0.133
			c0.045-0.025,0.117-0.063,0.214-0.113c0.232-0.114,0.364-0.181,0.396-0.199c0.105-0.061,0.182-0.106,0.229-0.14
			c0.047-0.032,0.113-0.083,0.197-0.15c0.079,0.044,0.141,0.079,0.187,0.105c0.045,0.027,0.127,0.073,0.245,0.138
			c0.118,0.064,0.309,0.167,0.573,0.309c0.263,0.142,0.458,0.245,0.584,0.312l0.035,0.022c0.333,0.18,0.564,0.305,0.692,0.376
			c0.128,0.072,0.291,0.16,0.489,0.265s0.432,0.226,0.702,0.363c0.27,0.139,0.458,0.234,0.563,0.289
			c-0.043-0.075-0.206-0.366-0.487-0.872l-0.376-0.66c-0.174-0.307-0.317-0.556-0.428-0.745c-0.111-0.19-0.205-0.348-0.282-0.473
			c-0.077-0.125-0.14-0.223-0.19-0.293c-0.05-0.069-0.108-0.146-0.175-0.228L20.666,6.28z"/>
		<path d="M25.019,8.473c-0.013,0.108-0.018,0.201-0.014,0.278c0.003,0.076,0.021,0.156,0.05,0.237
			c0.027,0.072,0.064,0.142,0.113,0.207s0.107,0.12,0.176,0.165c0.07,0.044,0.149,0.07,0.238,0.078
			c0.089,0.008,0.187-0.008,0.294-0.048c0.149-0.055,0.271-0.149,0.368-0.281c0.096-0.133,0.166-0.287,0.208-0.462
			c0.042-0.174,0.06-0.351,0.051-0.529c-0.008-0.179-0.038-0.338-0.09-0.478c-0.061-0.165-0.129-0.287-0.203-0.366
			C26.138,7.196,26.067,7.148,26,7.131s-0.13-0.021-0.187-0.01c-0.057,0.011-0.121,0.028-0.19,0.055
			c-0.012,0.004-0.096,0.041-0.253,0.109c-0.102,0.049-0.223,0.104-0.363,0.167c-0.141,0.063-0.232,0.103-0.274,0.118
			c-0.135,0.05-0.278,0.087-0.43,0.11c-0.152,0.022-0.307,0-0.464-0.068c-0.137-0.055-0.257-0.142-0.359-0.26
			c-0.102-0.119-0.183-0.259-0.243-0.419c-0.07-0.188-0.107-0.381-0.113-0.576c-0.005-0.196,0.019-0.383,0.072-0.562
			s0.132-0.342,0.238-0.488s0.232-0.266,0.378-0.356c0.066-0.044,0.15-0.092,0.253-0.146c0.104-0.054,0.215-0.107,0.334-0.16
			c0.12-0.052,0.226-0.097,0.318-0.134s0.171-0.067,0.236-0.092c0.158-0.059,0.295-0.102,0.411-0.131
			c0.115-0.027,0.237-0.032,0.367-0.013s0.249,0.084,0.358,0.193s0.203,0.268,0.28,0.475l0.026,0.069
			c0.013,0.049,0.028,0.099,0.047,0.149l-0.248,0.093c-0.05,0.016-0.082,0.026-0.096,0.031c-0.07,0.025-0.129,0.05-0.178,0.072
			c-0.049,0.021-0.183,0.083-0.403,0.183l-0.077-0.078c-0.011-0.03-0.017-0.05-0.017-0.058c-0.01-0.049-0.022-0.092-0.036-0.129
			C25.339,5.15,25.282,5.058,25.214,5c-0.068-0.059-0.134-0.093-0.199-0.103c-0.065-0.011-0.123-0.011-0.174,0.001
			c-0.052,0.011-0.101,0.025-0.147,0.042c-0.152,0.057-0.277,0.139-0.375,0.247c-0.099,0.108-0.172,0.234-0.22,0.378
			s-0.069,0.291-0.066,0.443c0.004,0.152,0.029,0.293,0.077,0.421c0.05,0.135,0.11,0.234,0.18,0.297
			c0.07,0.063,0.139,0.101,0.209,0.113s0.131,0.014,0.186,0.003c0.055-0.011,0.108-0.026,0.162-0.047
			c0.042-0.016,0.231-0.104,0.568-0.267c0.109-0.048,0.216-0.098,0.321-0.146c0.105-0.05,0.176-0.082,0.213-0.096
			c0.158-0.059,0.303-0.081,0.436-0.068c0.132,0.014,0.254,0.058,0.367,0.132c0.101,0.074,0.197,0.168,0.288,0.283
			c0.09,0.114,0.171,0.268,0.242,0.459c0.09,0.242,0.137,0.481,0.142,0.718c0.004,0.237-0.023,0.458-0.084,0.663
			c-0.06,0.206-0.146,0.389-0.255,0.549c-0.11,0.16-0.234,0.285-0.373,0.377c-0.06,0.046-0.15,0.099-0.273,0.159
			c-0.122,0.06-0.239,0.113-0.352,0.16s-0.235,0.098-0.367,0.152c-0.132,0.054-0.245,0.099-0.338,0.133
			c-0.153,0.058-0.288,0.091-0.401,0.102c-0.114,0.011-0.229-0.011-0.344-0.063c-0.134-0.061-0.243-0.151-0.327-0.271
			c-0.084-0.12-0.15-0.243-0.198-0.372c-0.043-0.116-0.072-0.222-0.086-0.315c-0.014-0.095-0.019-0.194-0.015-0.299
			c0.188-0.07,0.335-0.128,0.439-0.175s0.257-0.115,0.457-0.206L25.019,8.473z"/>
		<path d="M35.449,3.282c-0.316-0.001-0.534-0.001-0.652,0c-0.118,0.001-0.238,0.006-0.359,0.015
			c-0.139,0.011-0.226,0.028-0.261,0.054l-0.053,0.037c-0.017,0.081-0.02,0.332-0.01,0.754c0.01,0.421,0.039,0.959,0.087,1.613
			c0.026,0.352,0.049,0.639,0.069,0.861c0.021,0.223,0.041,0.402,0.062,0.538c0.021,0.135,0.043,0.247,0.066,0.337
			c0.023,0.089,0.057,0.208,0.103,0.356l-0.067,0.109c-0.088-0.016-0.165-0.025-0.23-0.027c-0.065-0.003-0.154,0-0.269,0.008
			c-0.124,0.01-0.221,0.021-0.291,0.033c-0.07,0.013-0.155,0.032-0.255,0.06L33.31,7.936c0.025-0.134,0.042-0.3,0.049-0.497
			c0.008-0.197,0.009-0.41,0.002-0.638s-0.016-0.438-0.028-0.635c-0.012-0.196-0.026-0.404-0.042-0.625
			c-0.017-0.228-0.036-0.451-0.057-0.67s-0.043-0.431-0.065-0.636s-0.042-0.377-0.061-0.516c-0.018-0.138-0.034-0.228-0.049-0.269
			c-0.004-0.022-0.009-0.035-0.014-0.038c-0.005-0.004-0.029-0.004-0.071-0.001c-0.325,0.024-0.589,0.059-0.792,0.104
			c-0.203,0.045-0.411,0.147-0.624,0.308L31.451,3.7l0.19-0.87c0.121-0.009,0.228-0.015,0.32-0.016
			c0.179-0.009,0.396-0.02,0.653-0.033c0.256-0.014,0.568-0.034,0.935-0.062c0.416-0.03,0.733-0.057,0.951-0.077
			c0.218-0.021,0.381-0.04,0.489-0.059c0.059-0.009,0.102-0.018,0.129-0.026c0.026-0.008,0.051-0.019,0.074-0.031
			c0.022-0.013,0.047-0.033,0.072-0.06s0.068-0.076,0.127-0.147l0.087-0.081l0.163,0.13L35.449,3.282z"/>
		<path d="M40.571,6.202c-0.106,0.279-0.238,0.523-0.395,0.731c-0.157,0.209-0.328,0.382-0.513,0.521
			c-0.185,0.138-0.37,0.24-0.553,0.308c-0.118,0.042-0.266,0.077-0.444,0.106c-0.179,0.028-0.364,0.051-0.557,0.066
			s-0.369,0.024-0.529,0.027c-0.159,0.003-0.28,0.002-0.362-0.004c-0.3-0.021-0.567-0.104-0.801-0.25
			c-0.234-0.146-0.427-0.339-0.579-0.575c-0.152-0.237-0.26-0.504-0.323-0.801c-0.063-0.297-0.084-0.606-0.062-0.929
			c0.014-0.211,0.051-0.432,0.11-0.663c0.059-0.231,0.151-0.462,0.276-0.692c0.125-0.23,0.291-0.444,0.496-0.639
			c0.205-0.195,0.451-0.345,0.74-0.447c0.074-0.029,0.147-0.055,0.218-0.076c0.071-0.021,0.149-0.041,0.233-0.06
			c0.085-0.018,0.192-0.036,0.322-0.056c0.129-0.021,0.3-0.048,0.511-0.083c0.194-0.032,0.387-0.041,0.577-0.028
			c0.295,0.02,0.562,0.104,0.801,0.25c0.239,0.147,0.439,0.34,0.601,0.579c0.162,0.238,0.279,0.511,0.352,0.815
			s0.097,0.63,0.074,0.975C40.742,5.615,40.677,5.923,40.571,6.202z M39.679,4.471c-0.058-0.225-0.137-0.42-0.235-0.586
			c-0.076-0.135-0.165-0.25-0.268-0.347C39.073,3.441,38.968,3.362,38.86,3.3c-0.108-0.062-0.214-0.107-0.318-0.138
			c-0.104-0.029-0.2-0.047-0.289-0.053c-0.201-0.014-0.402,0.036-0.604,0.149c-0.202,0.113-0.388,0.279-0.559,0.498
			s-0.31,0.473-0.419,0.762s-0.175,0.592-0.196,0.909c-0.022,0.325,0.005,0.619,0.082,0.883c0.077,0.265,0.187,0.487,0.33,0.669
			c0.144,0.182,0.302,0.321,0.476,0.419c0.174,0.098,0.348,0.152,0.521,0.164c0.213,0.015,0.438-0.035,0.675-0.15
			c0.237-0.114,0.434-0.276,0.589-0.484c0.205-0.265,0.351-0.537,0.437-0.816c0.086-0.279,0.139-0.554,0.157-0.824
			c0.002-0.027,0.002-0.064,0-0.112l0.006-0.093C39.76,4.898,39.737,4.694,39.679,4.471z"/>
		<path d="M44.065,8.263c-0.439,0.287-0.88,0.375-1.323,0.263c-0.323-0.081-0.611-0.283-0.866-0.606
			c-0.12-0.122-0.213-0.262-0.278-0.419l-0.059-0.1L41.5,7.355l-0.149-0.264c-0.063-0.462-0.033-0.935,0.088-1.419
			c0.026-0.102,0.057-0.204,0.093-0.308c0.297-0.69,0.808-1.155,1.531-1.394c0.491-0.273,1.039-0.372,1.643-0.297l0.423,0.106
			l0.355,0.224l0.06,0.038l0.253,0.184l0.059,0.087l0.081,0.06l0.194,0.283l-0.017,0.157c-0.102,0.071-0.222,0.129-0.358,0.171
			l-0.101,0.048l-0.092,0.046c-0.099,0.057-0.266,0.104-0.5,0.14l0.042-0.167c-0.271-0.422-0.666-0.698-1.186-0.829
			c-0.043-0.011-0.089-0.021-0.139-0.03c-0.6-0.129-1.057,0.267-1.37,1.184l-0.024,0.094c-0.257,1.021,0.042,1.803,0.897,2.344
			c0.097,0.075,0.194,0.126,0.293,0.15c0.188,0.048,0.385,0.016,0.593-0.097c0.026-0.062,0.052-0.145,0.077-0.245l0.06-0.238
			L44.33,7.35l0.024-0.098l0.036-0.098l-0.328-0.302l-0.137-0.035l-0.015-0.199l0.42-0.175l0.125-0.022
			c0.063-0.027,0.116-0.041,0.157-0.041c0.002,0,0.024-0.008,0.064-0.026c0.079-0.036,0.169-0.062,0.273-0.077l0.264-0.041
			l0.177-0.048L45.5,6.165l0.206,0.052c-0.083,0.128-0.151,0.248-0.202,0.36c-0.006,0.045-0.017,0.099-0.033,0.161
			c-0.015,0.061-0.034,0.125-0.057,0.193l-0.034,0.138c-0.013,0.05-0.042,0.12-0.087,0.208l-0.145,0.575l-0.042,0.104
			c-0.012,0.027-0.022,0.059-0.031,0.092c-0.018,0.07-0.031,0.153-0.04,0.251l-0.358,1.421c-0.258,0.211-0.59,0.338-0.995,0.379
			l-0.011-0.275c0.034-0.084,0.063-0.176,0.089-0.277l0.054-0.213l-0.009-0.041l0.025-0.159l0.037-0.086L44.065,8.263z"/>
		<path d="M49.462,6.229c-0.088-0.061-0.156-0.103-0.204-0.128c-0.048-0.024-0.113-0.054-0.196-0.088
			c-0.118-0.053-0.425-0.181-0.922-0.384c-0.071-0.028-0.118-0.044-0.138-0.046s-0.042,0.01-0.062,0.033
			c-0.014,0.021-0.051,0.098-0.111,0.229s-0.132,0.295-0.215,0.492c-0.118,0.276-0.222,0.525-0.312,0.746
			c0.26,0.105,0.495,0.2,0.706,0.283s0.334,0.131,0.372,0.144c0.101,0.027,0.18,0.038,0.235,0.031s0.134-0.028,0.237-0.064
			l0.102-0.043L49.02,7.59l-0.394,0.777c-0.118-0.064-0.217-0.118-0.296-0.161c-0.079-0.042-0.195-0.098-0.347-0.165
			c-0.06-0.03-0.225-0.1-0.494-0.209l-0.418-0.179l-0.079,0.193c-0.053,0.123-0.093,0.217-0.119,0.281
			c-0.084,0.205-0.164,0.407-0.241,0.606s-0.123,0.318-0.136,0.358c-0.009,0.036-0.007,0.061,0.007,0.071
			c0.014,0.012,0.097,0.048,0.249,0.109c0.2,0.082,0.362,0.146,0.486,0.19c0.11,0.039,0.202,0.07,0.276,0.093
			c0.074,0.021,0.131,0.037,0.17,0.045c0.06,0.006,0.116,0.002,0.168-0.012s0.144-0.051,0.272-0.11l0.085,0.146l-0.396,0.873
			c-0.122-0.05-0.232-0.103-0.33-0.158c-0.049-0.025-0.093-0.048-0.134-0.066c-0.077-0.042-0.234-0.114-0.472-0.217
			c-0.237-0.102-0.526-0.222-0.867-0.361c-0.138-0.056-0.267-0.106-0.386-0.153c-0.12-0.046-0.234-0.078-0.345-0.096l-0.022-0.143
			c0.074-0.068,0.131-0.137,0.173-0.202c0.042-0.066,0.092-0.159,0.151-0.277c0.051-0.1,0.11-0.224,0.176-0.372
			c0.066-0.149,0.138-0.312,0.216-0.49c0.144-0.333,0.269-0.63,0.375-0.89c0.237-0.582,0.414-1.021,0.53-1.315
			c0.116-0.294,0.195-0.51,0.237-0.646c0.041-0.134,0.065-0.234,0.073-0.303c0.008-0.067,0.004-0.134-0.009-0.198l0.091-0.096
			c0.173,0.083,0.331,0.157,0.474,0.221s0.37,0.159,0.681,0.285c0.17,0.069,0.347,0.139,0.531,0.209
			c0.094,0.038,0.176,0.068,0.246,0.092s0.124,0.04,0.163,0.05c0.022,0.004,0.04,0.009,0.051,0.013
			c0.072,0.021,0.138,0.031,0.197,0.03s0.173-0.023,0.342-0.068l0.075,0.144L49.462,6.229z"/>
		<path d="M53.996,8.666c-0.26-0.18-0.44-0.302-0.538-0.368c-0.098-0.065-0.2-0.129-0.306-0.189c-0.12-0.07-0.202-0.104-0.246-0.104
			h-0.065c-0.06,0.058-0.204,0.264-0.433,0.617c-0.23,0.354-0.509,0.814-0.838,1.382c-0.177,0.305-0.32,0.556-0.429,0.75
			c-0.109,0.195-0.193,0.355-0.252,0.479c-0.059,0.123-0.104,0.229-0.135,0.315c-0.032,0.086-0.07,0.204-0.117,0.353l-0.117,0.053
			c-0.064-0.063-0.122-0.114-0.174-0.153c-0.053-0.038-0.128-0.087-0.227-0.144c-0.107-0.062-0.193-0.108-0.258-0.138
			c-0.065-0.028-0.146-0.061-0.245-0.094l-0.011-0.123c0.096-0.097,0.203-0.224,0.321-0.383c0.118-0.158,0.238-0.333,0.361-0.525
			c0.123-0.191,0.234-0.371,0.335-0.54c0.101-0.168,0.206-0.348,0.317-0.539c0.114-0.198,0.225-0.394,0.331-0.586
			s0.208-0.38,0.305-0.562c0.097-0.182,0.177-0.335,0.24-0.459c0.063-0.124,0.1-0.207,0.111-0.25c0.009-0.021,0.012-0.034,0.01-0.04
			s-0.022-0.019-0.059-0.04c-0.281-0.163-0.519-0.284-0.712-0.361c-0.193-0.078-0.423-0.11-0.689-0.098l-0.018-0.162l0.647-0.61
			c0.105,0.061,0.196,0.116,0.273,0.167c0.152,0.094,0.338,0.208,0.558,0.341c0.22,0.134,0.489,0.292,0.807,0.477
			c0.361,0.21,0.637,0.367,0.829,0.473c0.191,0.105,0.337,0.181,0.437,0.228c0.054,0.025,0.094,0.042,0.121,0.051
			c0.027,0.008,0.053,0.014,0.079,0.016c0.026,0.002,0.057-0.001,0.094-0.009c0.036-0.007,0.099-0.024,0.188-0.05l0.118-0.018
			l0.061,0.199L53.996,8.666z"/>
		<path d="M54.846,11.199l1.239,1.01c0.209,0.172,0.35,0.28,0.422,0.326l0.059-0.072c0.083-0.094,0.125-0.142,0.128-0.146
			c0.113-0.139,0.224-0.28,0.333-0.423c0.109-0.144,0.212-0.283,0.31-0.419c0.098-0.135,0.185-0.264,0.262-0.385
			c0.077-0.122,0.138-0.238,0.184-0.349l0.115,0.018l0.041,0.033c0.03,0.037,0.064,0.074,0.1,0.11s0.106,0.096,0.21,0.181
			c0.102,0.083,0.178,0.143,0.227,0.176c0.05,0.034,0.121,0.078,0.215,0.132l-0.02,0.124c-0.124,0.088-0.331,0.287-0.622,0.597
			s-0.605,0.671-0.943,1.085c-0.33,0.404-0.576,0.708-0.739,0.912c-0.163,0.203-0.309,0.391-0.437,0.562
			c-0.128,0.171-0.23,0.318-0.305,0.441s-0.137,0.247-0.186,0.37l-0.119,0.033c-0.056-0.065-0.112-0.123-0.167-0.175
			s-0.139-0.123-0.25-0.215c-0.106-0.086-0.179-0.144-0.218-0.172c-0.039-0.029-0.109-0.068-0.209-0.118l0.047-0.116
			c0.108-0.078,0.21-0.16,0.306-0.245c0.095-0.086,0.197-0.188,0.304-0.308c0.107-0.12,0.233-0.263,0.377-0.431
			c0.145-0.167,0.339-0.398,0.583-0.693l-0.832-0.679c-0.025-0.021-0.184-0.146-0.476-0.378c-0.224-0.177-0.342-0.27-0.354-0.279
			l-0.403,0.494c-0.158,0.194-0.292,0.362-0.399,0.504c-0.108,0.142-0.193,0.259-0.257,0.353c-0.064,0.094-0.114,0.175-0.15,0.243
			c-0.037,0.068-0.084,0.163-0.142,0.286l-0.123-0.009c-0.054-0.057-0.099-0.104-0.136-0.14c-0.037-0.037-0.108-0.098-0.212-0.183
			c-0.079-0.064-0.155-0.122-0.229-0.173c-0.074-0.051-0.14-0.097-0.199-0.139l-0.02-0.112c0.092-0.065,0.175-0.132,0.249-0.198
			c0.073-0.066,0.16-0.152,0.258-0.258c0.344-0.367,0.777-0.87,1.298-1.509c0.476-0.584,0.816-1.013,1.021-1.286
			c0.205-0.274,0.351-0.519,0.438-0.732l0.114-0.021c0.083,0.087,0.162,0.164,0.236,0.231c0.075,0.067,0.148,0.13,0.219,0.188
			c0.073,0.06,0.128,0.101,0.164,0.123c0.036,0.023,0.101,0.063,0.195,0.121l-0.01,0.112c-0.241,0.201-0.466,0.416-0.676,0.646
			C55.461,10.475,55.188,10.792,54.846,11.199z"/>
		<path d="M60.731,14.658c-0.055-0.091-0.099-0.158-0.131-0.2c-0.033-0.043-0.08-0.097-0.141-0.162
			c-0.084-0.098-0.31-0.344-0.675-0.735c-0.053-0.057-0.088-0.09-0.106-0.101c-0.018-0.01-0.042-0.009-0.07,0.004
			c-0.022,0.014-0.087,0.067-0.197,0.161c-0.11,0.094-0.244,0.212-0.402,0.356c-0.223,0.201-0.422,0.383-0.597,0.546
			c0.191,0.205,0.365,0.39,0.521,0.553c0.156,0.164,0.249,0.26,0.277,0.287c0.081,0.067,0.147,0.11,0.2,0.127
			c0.053,0.017,0.134,0.03,0.242,0.042l0.11,0.003l-0.006,0.169l-0.683,0.54c-0.081-0.108-0.148-0.198-0.202-0.271
			s-0.135-0.171-0.245-0.296c-0.042-0.053-0.162-0.186-0.36-0.397l-0.305-0.338l-0.152,0.143c-0.1,0.089-0.175,0.158-0.227,0.205
			c-0.162,0.15-0.319,0.301-0.473,0.449s-0.245,0.237-0.274,0.268c-0.024,0.029-0.032,0.052-0.023,0.068
			c0.008,0.016,0.068,0.084,0.18,0.204c0.147,0.158,0.268,0.283,0.361,0.376c0.083,0.082,0.154,0.149,0.212,0.2
			c0.058,0.052,0.103,0.089,0.136,0.113c0.052,0.03,0.104,0.05,0.157,0.06c0.054,0.01,0.151,0.015,0.294,0.014l0.015,0.17
			l-0.727,0.626c-0.089-0.097-0.167-0.191-0.232-0.283c-0.033-0.043-0.064-0.082-0.093-0.116c-0.052-0.07-0.165-0.202-0.337-0.395
			s-0.384-0.423-0.635-0.691c-0.102-0.109-0.197-0.21-0.286-0.302c-0.089-0.092-0.18-0.17-0.272-0.232l0.039-0.139
			c0.096-0.031,0.177-0.068,0.243-0.111c0.065-0.042,0.15-0.104,0.253-0.188c0.088-0.069,0.194-0.157,0.316-0.265
			c0.123-0.107,0.256-0.225,0.401-0.354c0.271-0.241,0.508-0.458,0.714-0.649c0.46-0.429,0.805-0.753,1.033-0.971
			c0.229-0.219,0.392-0.381,0.487-0.487c0.093-0.104,0.158-0.185,0.193-0.243c0.035-0.059,0.06-0.12,0.075-0.185l0.123-0.049
			c0.121,0.148,0.233,0.282,0.337,0.399c0.103,0.118,0.269,0.3,0.498,0.545c0.125,0.135,0.256,0.272,0.394,0.412
			c0.069,0.075,0.131,0.137,0.185,0.188c0.053,0.05,0.096,0.088,0.126,0.113c0.019,0.014,0.032,0.024,0.041,0.033
			c0.056,0.05,0.111,0.087,0.166,0.11s0.167,0.051,0.339,0.082l0.007,0.161L60.731,14.658z"/>
		<path d="M60.227,21.605l-0.649-0.924c0.019-0.138,0.055-0.267,0.109-0.389c0.054-0.121,0.136-0.281,0.246-0.479
			c0.012-0.026,0.02-0.043,0.025-0.05c0.002-0.005,0.035-0.062,0.097-0.173c0.175-0.317,0.279-0.506,0.312-0.565
			c0.041-0.081,0.08-0.16,0.116-0.238c0.036-0.078,0.067-0.168,0.093-0.269c0.027-0.101,0.036-0.199,0.028-0.295
			s-0.04-0.183-0.094-0.26c-0.034-0.049-0.075-0.1-0.121-0.152c-0.046-0.053-0.073-0.082-0.081-0.089l-0.088,0.062
			c-0.105,0.07-0.196,0.132-0.271,0.186c-0.159,0.111-0.31,0.22-0.455,0.325c-0.144,0.106-0.252,0.186-0.324,0.239
			c-0.149,0.116-0.259,0.211-0.332,0.283c-0.073,0.072-0.15,0.157-0.233,0.255l-0.024,0.03l-0.115,0.018
			c-0.038-0.089-0.068-0.153-0.091-0.194c-0.022-0.04-0.067-0.108-0.134-0.203c-0.071-0.103-0.134-0.189-0.188-0.262
			c-0.054-0.073-0.125-0.15-0.212-0.231l0.06-0.115c0.085-0.018,0.17-0.045,0.256-0.082c0.086-0.038,0.208-0.104,0.369-0.202
			c0.097-0.056,0.241-0.146,0.433-0.271c0.191-0.126,0.394-0.264,0.607-0.413c0.275-0.188,0.635-0.437,1.078-0.748
			c0.246-0.173,0.469-0.332,0.668-0.479c0.199-0.146,0.352-0.266,0.457-0.357c0.06-0.058,0.106-0.115,0.14-0.174
			c0.034-0.058,0.067-0.146,0.1-0.263l0.148-0.022c0.042,0.104,0.082,0.184,0.119,0.24c0.037,0.056,0.085,0.128,0.147,0.215
			c0.144,0.206,0.269,0.379,0.373,0.52c0.105,0.14,0.198,0.259,0.279,0.357c0.004,0.006,0.028,0.036,0.073,0.09
			c0.093,0.107,0.182,0.215,0.265,0.322s0.145,0.19,0.187,0.249c0.207,0.295,0.272,0.583,0.195,0.865
			c-0.077,0.281-0.243,0.512-0.5,0.692c-0.181,0.127-0.367,0.216-0.557,0.266c-0.191,0.051-0.377,0.069-0.56,0.057
			c-0.183-0.014-0.354-0.05-0.515-0.11c-0.161-0.061-0.253-0.099-0.277-0.115l-0.004-0.006c-0.004,0.003-0.007,0.04-0.009,0.11
			c-0.005,0.089-0.023,0.18-0.056,0.274c-0.033,0.094-0.08,0.199-0.14,0.316c-0.06,0.117-0.146,0.275-0.258,0.475
			c-0.159,0.288-0.281,0.518-0.365,0.688c-0.084,0.17-0.142,0.306-0.173,0.408s-0.048,0.183-0.05,0.24s0.009,0.155,0.033,0.293
			L60.227,21.605z M60.654,17.476c0.01,0.018,0.026,0.05,0.05,0.097s0.056,0.1,0.096,0.156c0.137,0.195,0.287,0.332,0.45,0.41
			c0.163,0.078,0.323,0.113,0.48,0.104c0.158-0.01,0.304-0.043,0.438-0.101c0.134-0.058,0.248-0.119,0.341-0.185
			c0.248-0.175,0.405-0.363,0.472-0.566c0.067-0.203,0.039-0.393-0.084-0.567c-0.074-0.105-0.171-0.182-0.292-0.228
			c-0.12-0.046-0.237-0.062-0.35-0.051c-0.113,0.013-0.235,0.053-0.369,0.12c-0.133,0.068-0.323,0.188-0.571,0.358L60.654,17.476z"
			/>
		<path d="M62.023,25.146c0.125-0.02,0.257-0.045,0.395-0.074c0.138-0.03,0.329-0.087,0.575-0.17
			c0.254-0.086,0.525-0.183,0.812-0.29c0.287-0.107,0.638-0.242,1.052-0.405c0.543-0.213,0.95-0.381,1.22-0.502
			c0.27-0.122,0.514-0.261,0.733-0.416l0.091,0.008c0.019,0.049,0.033,0.091,0.042,0.128c0.016,0.053,0.034,0.114,0.056,0.184
			c0.022,0.07,0.052,0.154,0.09,0.251c0.032,0.081,0.059,0.144,0.082,0.188c0.023,0.044,0.045,0.089,0.068,0.133
			c0.022,0.045,0.039,0.079,0.049,0.104l-0.017,0.111c-0.169,0.031-0.306,0.059-0.41,0.082c-0.104,0.024-0.24,0.063-0.408,0.118
			c-0.554,0.181-1.29,0.45-2.208,0.811c-0.338,0.133-0.607,0.241-0.809,0.325c-0.202,0.085-0.381,0.166-0.537,0.243
			c-0.089,0.046-0.16,0.086-0.214,0.122s-0.127,0.086-0.219,0.151l-0.108-0.021l-0.031-0.119c-0.054-0.18-0.106-0.332-0.156-0.46
			c-0.031-0.078-0.055-0.137-0.073-0.175c-0.018-0.039-0.041-0.083-0.068-0.134c-0.015-0.018-0.034-0.056-0.056-0.113L62.023,25.146
			z"/>
		<path d="M68.663,28.817c0.009,0.103,0.018,0.18,0.026,0.231s0.024,0.122,0.047,0.211c0.017,0.065,0.038,0.134,0.062,0.207
			s0.063,0.183,0.117,0.328l-0.094,0.082c-0.125-0.052-0.227-0.081-0.308-0.087s-0.166-0.005-0.253,0.003
			c-0.103,0.009-0.251,0.033-0.445,0.074c-0.194,0.04-0.411,0.091-0.652,0.151c-0.353,0.084-0.742,0.183-1.167,0.294
			c-0.303,0.079-0.62,0.163-0.951,0.252c-0.234,0.069-0.422,0.126-0.566,0.17s-0.236,0.075-0.278,0.094
			c-0.059,0.03-0.104,0.062-0.137,0.094c-0.033,0.031-0.091,0.1-0.174,0.203l-0.121-0.037c-0.015-0.056-0.045-0.192-0.092-0.411
			c-0.025-0.138-0.041-0.215-0.045-0.231c-0.006-0.023-0.053-0.164-0.141-0.421l-0.031-0.119c0.075-0.079,0.255-0.269,0.541-0.569
			c0.286-0.301,0.537-0.565,0.751-0.794c0.215-0.228,0.431-0.457,0.648-0.688c0.217-0.229,0.375-0.4,0.475-0.511
			c0.028-0.031,0.128-0.14,0.3-0.325c0.115-0.128,0.231-0.255,0.348-0.38l0.005-0.009c-0.029,0.007-0.157,0.04-0.385,0.099
			c-0.228,0.058-0.504,0.13-0.831,0.215l-1.466,0.392c-0.209,0.055-0.383,0.104-0.523,0.15c-0.14,0.045-0.262,0.099-0.367,0.159
			l-0.102-0.035c-0.041-0.243-0.081-0.44-0.12-0.593c-0.029-0.11-0.063-0.209-0.101-0.297l-0.048-0.11l0.109-0.098
			c0.14,0.056,0.276,0.088,0.407,0.098c0.131,0.009,0.285-0.002,0.462-0.032c0.147-0.026,0.393-0.081,0.736-0.166
			s0.755-0.189,1.233-0.315c0.368-0.096,0.685-0.18,0.951-0.252c0.22-0.062,0.407-0.118,0.562-0.165s0.245-0.077,0.269-0.091
			c0.052-0.034,0.097-0.074,0.134-0.12c0.037-0.046,0.088-0.121,0.153-0.225l0.126,0.04c0.013,0.051,0.031,0.129,0.054,0.236
			c0.051,0.254,0.081,0.398,0.091,0.435c0.031,0.117,0.056,0.203,0.075,0.258c0.019,0.054,0.051,0.13,0.094,0.229
			c-0.062,0.064-0.113,0.116-0.15,0.152c-0.038,0.037-0.103,0.104-0.196,0.202s-0.241,0.255-0.446,0.473s-0.355,0.38-0.451,0.484
			l-0.031,0.027c-0.259,0.275-0.439,0.466-0.542,0.571c-0.102,0.104-0.229,0.239-0.381,0.404c-0.152,0.164-0.33,0.358-0.533,0.584
			c-0.203,0.226-0.345,0.382-0.424,0.47c0.084-0.022,0.407-0.104,0.968-0.246l0.736-0.192c0.341-0.089,0.618-0.163,0.83-0.221
			c0.212-0.059,0.388-0.108,0.529-0.15s0.251-0.078,0.332-0.107c0.081-0.03,0.169-0.067,0.266-0.11L68.663,28.817z"/>
		<path d="M65.627,36.276c-0.095-0.053-0.179-0.093-0.251-0.118c-0.073-0.026-0.152-0.04-0.239-0.043
			c-0.077-0.003-0.155,0.006-0.234,0.025s-0.152,0.054-0.22,0.101c-0.067,0.048-0.122,0.111-0.163,0.19
			c-0.041,0.08-0.064,0.177-0.067,0.291c-0.005,0.159,0.035,0.308,0.122,0.447c0.086,0.14,0.202,0.263,0.348,0.368
			c0.146,0.105,0.302,0.188,0.471,0.248s0.327,0.093,0.476,0.098c0.176,0.006,0.315-0.011,0.416-0.05s0.172-0.086,0.213-0.142
			c0.042-0.057,0.068-0.112,0.08-0.169c0.012-0.058,0.019-0.123,0.021-0.197c0-0.013-0.002-0.104-0.006-0.276
			c-0.006-0.111-0.012-0.245-0.017-0.399s-0.007-0.254-0.005-0.298c0.004-0.145,0.025-0.291,0.061-0.44
			c0.036-0.149,0.116-0.284,0.239-0.404c0.103-0.105,0.228-0.184,0.376-0.233s0.308-0.072,0.479-0.066
			c0.201,0.007,0.393,0.045,0.576,0.114s0.347,0.162,0.492,0.279c0.146,0.116,0.266,0.251,0.361,0.405
			c0.096,0.153,0.158,0.314,0.188,0.484c0.015,0.078,0.028,0.175,0.039,0.291c0.011,0.115,0.019,0.239,0.021,0.369
			c0.003,0.131,0.004,0.246,0.004,0.346c-0.001,0.099-0.002,0.184-0.005,0.253c-0.005,0.169-0.017,0.312-0.034,0.43
			c-0.018,0.117-0.06,0.232-0.127,0.345c-0.067,0.112-0.172,0.198-0.314,0.258c-0.143,0.06-0.324,0.086-0.545,0.079l-0.075-0.003
			c-0.049-0.006-0.102-0.011-0.156-0.012l0.009-0.265c0.004-0.053,0.006-0.086,0.007-0.101c0.002-0.074,0.003-0.139,0.001-0.192
			s-0.008-0.2-0.018-0.442l0.103-0.041c0.032,0.001,0.052,0.003,0.06,0.006c0.049,0.009,0.094,0.014,0.133,0.016
			c0.134,0.004,0.241-0.014,0.321-0.055s0.136-0.09,0.171-0.146c0.034-0.057,0.056-0.11,0.065-0.162
			c0.009-0.052,0.015-0.103,0.016-0.152c0.005-0.161-0.023-0.309-0.086-0.44c-0.062-0.133-0.151-0.248-0.266-0.347
			c-0.115-0.099-0.244-0.175-0.386-0.229c-0.142-0.055-0.282-0.084-0.418-0.089c-0.144-0.005-0.258,0.014-0.343,0.054
			c-0.084,0.041-0.146,0.091-0.184,0.151c-0.038,0.06-0.062,0.116-0.073,0.171c-0.01,0.054-0.017,0.109-0.019,0.167
			c-0.001,0.045,0.009,0.254,0.032,0.627c0.003,0.12,0.008,0.237,0.015,0.354c0.006,0.115,0.009,0.193,0.007,0.233
			c-0.006,0.168-0.04,0.312-0.102,0.429c-0.062,0.117-0.149,0.214-0.261,0.29c-0.107,0.065-0.23,0.119-0.371,0.159
			c-0.141,0.04-0.313,0.057-0.517,0.05c-0.258-0.009-0.498-0.056-0.719-0.141c-0.221-0.086-0.415-0.195-0.582-0.329
			c-0.167-0.134-0.304-0.281-0.411-0.444c-0.107-0.162-0.176-0.325-0.208-0.487c-0.02-0.073-0.035-0.177-0.044-0.312
			s-0.015-0.265-0.015-0.387c-0.001-0.122-0.002-0.254-0.002-0.397c0-0.143,0.001-0.264,0.004-0.363
			c0.005-0.164,0.024-0.301,0.058-0.41s0.096-0.207,0.189-0.294c0.107-0.101,0.232-0.167,0.375-0.2
			c0.143-0.032,0.282-0.047,0.419-0.042c0.124,0.004,0.232,0.018,0.325,0.041c0.092,0.022,0.186,0.056,0.282,0.099
			c-0.007,0.201-0.008,0.358-0.004,0.473c0.004,0.115,0.009,0.281,0.017,0.501L65.627,36.276z"/>
		<path d="M68.013,42.527c0.039-0.1,0.065-0.175,0.079-0.228c0.013-0.052,0.027-0.121,0.042-0.21
			c0.026-0.127,0.083-0.455,0.168-0.984c0.013-0.076,0.018-0.124,0.015-0.145s-0.019-0.039-0.046-0.053
			c-0.023-0.01-0.106-0.028-0.247-0.058s-0.317-0.062-0.527-0.1c-0.296-0.054-0.562-0.1-0.797-0.138
			c-0.045,0.276-0.085,0.527-0.119,0.751s-0.053,0.354-0.057,0.395c-0.004,0.104,0.003,0.184,0.022,0.235
			c0.019,0.053,0.058,0.125,0.116,0.218l0.064,0.09l-0.137,0.098l-0.846-0.209c0.037-0.131,0.066-0.239,0.091-0.325
			c0.024-0.087,0.052-0.212,0.084-0.375c0.016-0.065,0.047-0.242,0.094-0.529l0.081-0.447l-0.206-0.033
			c-0.132-0.024-0.232-0.042-0.301-0.054c-0.218-0.035-0.433-0.068-0.645-0.1c-0.212-0.03-0.338-0.048-0.38-0.053
			c-0.038-0.001-0.06,0.007-0.068,0.023c-0.007,0.017-0.024,0.105-0.051,0.268c-0.035,0.213-0.061,0.385-0.077,0.516
			c-0.014,0.116-0.023,0.213-0.028,0.29c-0.005,0.077-0.007,0.136-0.006,0.177c0.008,0.059,0.024,0.112,0.049,0.16
			c0.025,0.049,0.081,0.129,0.168,0.241l-0.125,0.115l-0.939-0.191c0.021-0.13,0.048-0.248,0.081-0.356
			c0.014-0.053,0.025-0.102,0.035-0.146c0.024-0.084,0.059-0.253,0.105-0.507c0.047-0.255,0.1-0.563,0.159-0.926
			c0.024-0.147,0.045-0.284,0.063-0.411c0.019-0.127,0.024-0.246,0.017-0.357l0.133-0.054c0.084,0.057,0.163,0.098,0.237,0.123
			c0.074,0.026,0.175,0.055,0.303,0.086c0.109,0.027,0.243,0.057,0.403,0.088c0.16,0.031,0.335,0.065,0.525,0.102
			c0.356,0.065,0.673,0.121,0.95,0.167c0.621,0.101,1.087,0.176,1.4,0.223c0.313,0.048,0.541,0.076,0.683,0.087
			c0.139,0.011,0.243,0.012,0.311,0.004c0.068-0.008,0.132-0.025,0.192-0.054l0.113,0.067c-0.043,0.188-0.08,0.357-0.11,0.511
			c-0.03,0.154-0.072,0.396-0.126,0.728c-0.029,0.182-0.058,0.369-0.084,0.563c-0.016,0.101-0.028,0.188-0.035,0.261
			c-0.007,0.073-0.011,0.13-0.013,0.17c0.001,0.022,0,0.04-0.001,0.053c-0.004,0.074,0,0.141,0.015,0.198s0.062,0.164,0.143,0.318
			l-0.123,0.104L68.013,42.527z"/>
		<path d="M62.205,46.376l0.335-1.078c0.121-0.069,0.246-0.119,0.375-0.15s0.306-0.064,0.53-0.099
			c0.028-0.007,0.046-0.011,0.054-0.011c0.006-0.001,0.071-0.011,0.196-0.028c0.358-0.056,0.571-0.088,0.639-0.099
			c0.088-0.017,0.175-0.034,0.259-0.054s0.174-0.05,0.27-0.09c0.096-0.041,0.179-0.094,0.25-0.158
			c0.071-0.065,0.121-0.143,0.148-0.233c0.018-0.057,0.033-0.119,0.047-0.188c0.014-0.068,0.021-0.107,0.021-0.118l-0.104-0.032
			c-0.12-0.04-0.224-0.073-0.312-0.101c-0.185-0.058-0.363-0.111-0.536-0.16c-0.172-0.05-0.301-0.087-0.387-0.111
			c-0.184-0.046-0.326-0.076-0.427-0.089c-0.101-0.014-0.216-0.023-0.344-0.029l-0.039-0.001l-0.084-0.08
			c0.047-0.085,0.08-0.147,0.098-0.19c0.019-0.042,0.045-0.119,0.08-0.23c0.037-0.119,0.067-0.222,0.092-0.31
			c0.024-0.087,0.042-0.19,0.053-0.309l0.128-0.023c0.065,0.058,0.139,0.108,0.221,0.153c0.083,0.045,0.211,0.102,0.385,0.169
			c0.104,0.042,0.264,0.101,0.48,0.176s0.449,0.151,0.698,0.229c0.316,0.104,0.733,0.236,1.25,0.396
			c0.287,0.09,0.549,0.168,0.787,0.237c0.237,0.068,0.425,0.116,0.562,0.144c0.082,0.012,0.156,0.014,0.223,0.005
			c0.067-0.01,0.157-0.037,0.27-0.083l0.108,0.104c-0.056,0.097-0.095,0.177-0.118,0.24s-0.049,0.146-0.081,0.248
			c-0.074,0.239-0.135,0.444-0.183,0.612c-0.047,0.169-0.085,0.315-0.113,0.439c-0.002,0.007-0.011,0.045-0.027,0.112
			c-0.028,0.14-0.059,0.275-0.093,0.406c-0.034,0.131-0.062,0.231-0.083,0.3c-0.107,0.344-0.295,0.572-0.565,0.683
			c-0.27,0.111-0.554,0.121-0.853,0.027c-0.211-0.065-0.395-0.158-0.552-0.278c-0.156-0.12-0.285-0.257-0.386-0.409
			c-0.101-0.152-0.176-0.311-0.227-0.474c-0.05-0.164-0.076-0.261-0.078-0.29l0.002-0.007c-0.005-0.002-0.036,0.019-0.093,0.061
			c-0.073,0.05-0.157,0.091-0.251,0.123c-0.094,0.031-0.207,0.06-0.336,0.083c-0.13,0.023-0.308,0.052-0.534,0.086
			c-0.325,0.05-0.581,0.093-0.766,0.13c-0.186,0.037-0.329,0.075-0.429,0.113c-0.101,0.037-0.174,0.073-0.221,0.106
			s-0.118,0.103-0.212,0.205L62.205,46.376z M65.736,44.192c-0.008,0.018-0.024,0.051-0.046,0.099s-0.044,0.104-0.065,0.171
			c-0.071,0.228-0.087,0.43-0.05,0.606c0.037,0.177,0.107,0.325,0.211,0.444s0.219,0.215,0.346,0.285
			c0.128,0.071,0.246,0.124,0.355,0.157c0.289,0.09,0.535,0.1,0.736,0.028s0.334-0.209,0.398-0.413
			c0.038-0.123,0.039-0.247,0.001-0.37s-0.095-0.226-0.173-0.308c-0.079-0.082-0.186-0.154-0.32-0.219
			c-0.135-0.063-0.346-0.142-0.632-0.233L65.736,44.192z"/>
		<path d="M65.885,51.004c-0.088,0.121-0.176,0.276-0.263,0.466c-0.048,0.104-0.078,0.174-0.091,0.211
			c-0.013,0.036-0.022,0.104-0.029,0.201l-0.178-0.041c-0.034-0.081-0.065-0.143-0.094-0.184c-0.028-0.042-0.076-0.104-0.142-0.187
			c-0.066-0.083-0.167-0.194-0.303-0.337c-0.136-0.142-0.309-0.314-0.517-0.521c-0.11-0.105-0.308-0.292-0.592-0.56
			c-0.285-0.268-0.565-0.528-0.842-0.783c-0.277-0.254-0.524-0.479-0.742-0.678c-0.218-0.197-0.336-0.3-0.354-0.309
			c-0.012-0.005-0.033-0.008-0.065-0.009c-0.013-0.001-0.049,0-0.107,0.004s-0.103,0.006-0.136,0.007l-0.117-0.111
			c0.072-0.084,0.119-0.146,0.14-0.188c0.021-0.041,0.062-0.126,0.121-0.254c0.05-0.108,0.093-0.205,0.128-0.288
			s0.065-0.18,0.088-0.29l0.125-0.004l0.068,0.031c0.016,0.013,0.027,0.021,0.034,0.024c0.039,0.018,0.086,0.034,0.144,0.049
			c0.057,0.016,0.147,0.037,0.271,0.063c0.124,0.026,0.253,0.054,0.389,0.082c0.136,0.028,0.397,0.081,0.783,0.157l0.007,0.003
			c0.236,0.046,0.492,0.092,0.769,0.139c0.276,0.047,0.571,0.095,0.883,0.146c0.312,0.05,0.579,0.089,0.801,0.116
			s0.396,0.046,0.52,0.057c0.109,0.007,0.202,0.003,0.279-0.009c0.077-0.013,0.174-0.04,0.292-0.081l0.09,0.09
			c-0.025,0.055-0.056,0.115-0.092,0.184c-0.007,0.016-0.034,0.064-0.081,0.147s-0.078,0.142-0.094,0.178
			c-0.059,0.129-0.117,0.273-0.174,0.433l-0.03,0.093l-0.087,0.055c-0.166-0.055-0.437-0.122-0.812-0.204
			c-0.375-0.081-0.797-0.165-1.264-0.253c-0.467-0.087-0.888-0.16-1.264-0.218c-0.324-0.051-0.491-0.078-0.5-0.082h0.008
			c-0.094-0.071-0.145-0.108-0.154-0.112l0.014,0.015c0.042,0.039,0.229,0.213,0.559,0.523l0.062,0.062
			c0.732,0.668,1.287,1.161,1.666,1.479c0.072,0.063,0.177,0.148,0.313,0.255c0.078,0.058,0.158,0.116,0.242,0.175
			c0.083,0.06,0.168,0.112,0.253,0.16L65.885,51.004z"/>
		<path d="M60.497,49.956c0.092,0.087,0.192,0.176,0.3,0.267s0.27,0.208,0.484,0.352c0.224,0.148,0.466,0.304,0.727,0.467
			c0.261,0.161,0.582,0.357,0.963,0.586c0.5,0.3,0.881,0.521,1.143,0.659c0.261,0.14,0.521,0.248,0.777,0.327l0.049,0.077
			c-0.026,0.045-0.052,0.082-0.075,0.111c-0.032,0.045-0.069,0.097-0.111,0.157s-0.09,0.135-0.144,0.225
			c-0.044,0.074-0.078,0.134-0.099,0.18c-0.021,0.045-0.042,0.09-0.064,0.136c-0.021,0.045-0.039,0.079-0.053,0.103l-0.098,0.055
			c-0.128-0.115-0.233-0.206-0.315-0.274c-0.083-0.068-0.197-0.152-0.343-0.251c-0.48-0.329-1.144-0.747-1.99-1.255
			c-0.311-0.187-0.562-0.334-0.751-0.442c-0.19-0.107-0.363-0.2-0.52-0.276c-0.09-0.043-0.167-0.075-0.228-0.096
			c-0.062-0.021-0.146-0.048-0.254-0.08l-0.049-0.1l0.076-0.098c0.109-0.152,0.198-0.287,0.269-0.404
			c0.043-0.072,0.075-0.127,0.094-0.164c0.02-0.038,0.041-0.083,0.064-0.136c0.005-0.023,0.024-0.062,0.056-0.114L60.497,49.956z"/>
		<path d="M60.537,56.85l0.088-0.06c0.203,0.031,0.378,0.032,0.526,0.004c0.149-0.027,0.277-0.069,0.384-0.125
			c0.106-0.056,0.196-0.114,0.268-0.177c0.072-0.062,0.129-0.121,0.171-0.176c0.099-0.128,0.166-0.296,0.201-0.502
			s0.027-0.437-0.024-0.691c-0.052-0.255-0.166-0.517-0.341-0.785s-0.414-0.52-0.715-0.751c-0.271-0.21-0.539-0.363-0.802-0.462
			c-0.263-0.098-0.511-0.145-0.744-0.14c-0.232,0.004-0.441,0.052-0.627,0.145c-0.186,0.092-0.342,0.221-0.47,0.386
			c-0.082,0.106-0.15,0.239-0.204,0.398s-0.095,0.336-0.124,0.53c-0.029,0.193-0.043,0.392-0.043,0.593
			c0,0.2,0.016,0.429,0.047,0.686l-0.171,0.009c-0.091-0.126-0.218-0.299-0.383-0.517s-0.315-0.415-0.451-0.593l0.92-1.191
			c0.009-0.013,0.026-0.036,0.052-0.071c0.026-0.035,0.062-0.087,0.11-0.157c0.052-0.076,0.091-0.132,0.116-0.169
			c0.025-0.037,0.044-0.063,0.057-0.079c0.135-0.175,0.256-0.318,0.363-0.428c0.107-0.11,0.222-0.203,0.346-0.277
			c0.123-0.074,0.259-0.127,0.408-0.156c0.148-0.03,0.32-0.039,0.515-0.026c0.548,0.033,1.094,0.26,1.637,0.679
			c0.151,0.117,0.308,0.26,0.47,0.428c0.162,0.169,0.311,0.369,0.448,0.601c0.137,0.23,0.231,0.49,0.282,0.777
			c0.051,0.287,0.031,0.582-0.061,0.885c-0.028,0.098-0.073,0.225-0.136,0.38c-0.062,0.156-0.132,0.317-0.211,0.484
			s-0.158,0.321-0.238,0.464s-0.146,0.248-0.2,0.316c-0.193,0.25-0.417,0.436-0.672,0.558c-0.255,0.121-0.563,0.183-0.922,0.186
			l-0.073-0.07L60.537,56.85z"/>
		<path d="M57.776,60.35c0.09-0.057,0.156-0.102,0.198-0.135s0.095-0.081,0.16-0.144c0.096-0.086,0.337-0.315,0.724-0.688
			c0.055-0.054,0.088-0.089,0.098-0.107c0.01-0.019,0.008-0.042-0.005-0.07c-0.014-0.021-0.068-0.086-0.164-0.193
			c-0.096-0.108-0.217-0.24-0.363-0.396c-0.206-0.22-0.391-0.415-0.556-0.587c-0.202,0.195-0.383,0.372-0.545,0.531
			c-0.161,0.158-0.254,0.253-0.281,0.282c-0.066,0.081-0.108,0.148-0.124,0.202c-0.016,0.053-0.028,0.134-0.038,0.243l-0.001,0.11
			l-0.169-0.003l-0.552-0.674c0.107-0.083,0.196-0.151,0.267-0.206c0.071-0.056,0.168-0.139,0.292-0.251
			c0.052-0.043,0.182-0.165,0.391-0.367l0.333-0.311l-0.145-0.15c-0.091-0.098-0.161-0.172-0.209-0.222
			c-0.154-0.159-0.306-0.314-0.457-0.466s-0.242-0.241-0.273-0.27c-0.029-0.023-0.052-0.031-0.068-0.022s-0.083,0.07-0.201,0.184
			c-0.155,0.15-0.279,0.272-0.37,0.368c-0.081,0.084-0.146,0.156-0.196,0.215c-0.05,0.059-0.087,0.105-0.11,0.138
			c-0.029,0.053-0.048,0.105-0.057,0.159c-0.009,0.053-0.012,0.15-0.009,0.293l-0.169,0.019l-0.639-0.715
			c0.095-0.092,0.188-0.171,0.279-0.238c0.042-0.034,0.081-0.065,0.115-0.095c0.07-0.054,0.199-0.168,0.388-0.344
			c0.189-0.176,0.417-0.392,0.681-0.647c0.107-0.104,0.206-0.2,0.296-0.291c0.091-0.091,0.167-0.183,0.228-0.276l0.139,0.036
			c0.034,0.096,0.072,0.176,0.116,0.241c0.043,0.064,0.108,0.147,0.192,0.249c0.07,0.088,0.161,0.191,0.27,0.312
			c0.109,0.12,0.229,0.252,0.361,0.395c0.246,0.267,0.467,0.501,0.662,0.702c0.437,0.452,0.766,0.791,0.989,1.017
			c0.222,0.226,0.387,0.385,0.495,0.478c0.105,0.092,0.188,0.154,0.247,0.189c0.059,0.034,0.121,0.058,0.186,0.071l0.05,0.122
			c-0.146,0.124-0.277,0.238-0.394,0.344c-0.116,0.105-0.295,0.274-0.536,0.507c-0.133,0.128-0.268,0.262-0.405,0.401
			c-0.073,0.071-0.135,0.134-0.184,0.188c-0.049,0.054-0.087,0.097-0.112,0.128c-0.013,0.02-0.023,0.033-0.032,0.042
			c-0.048,0.057-0.084,0.113-0.107,0.168c-0.022,0.055-0.048,0.168-0.076,0.34l-0.161,0.011L57.776,60.35z"/>
	</g>
	<polygon id="Cross" points="48.079,24.966 37.962,24.966 37.962,12.978 34.038,14.154 34.038,24.966 25.099,24.966 23.921,28.89 
		34.038,28.89 34.038,59.022 37.962,57.846 37.962,28.89 46.901,28.89 	"/>
	<g id="Fish">
		<path fill="none" stroke="#000000" stroke-width="0.72" stroke-linecap="round" stroke-miterlimit="10" d="M26.64,66.692
			c0,0,6.807,7.661,18.72-1.915"/>
		<path fill="none" stroke="#000000" stroke-width="0.72" stroke-linecap="round" stroke-miterlimit="10" d="M26.64,66.692
			c0,0,6.807-7.661,18.72,1.915"/>
	</g>
</g>
</svg>
