<?xml version="1.0" encoding="utf-8"?>
<!-- Generator: Adobe Illustrator 16.0.4, SVG Export Plug-In . SVG Version: 6.00 Build 0)  -->
<!DOCTYPE svg PUBLIC "-//W3C//DTD SVG 1.1//EN" "http://www.w3.org/Graphics/SVG/1.1/DTD/svg11.dtd">
<svg version="1.1" id="Logo" xmlns="http://www.w3.org/2000/svg" xmlns:xlink="http://www.w3.org/1999/xlink" x="0px" y="0px"
	 width="504px" height="504px" viewBox="0 0 504 504" enable-background="new 0 0 504 504" xml:space="preserve">
<g>
	<g id="Left_Hand">
		<path d="M226.54,259.417c0.3-5.533-5.877-6.277-6.665-5.838c-3.797,2.114-2.913,0.518-2.913,0.518s4.345-5.41,5.853-13.657
			s-5.897-8.558-10.11-4.345c-4.212,4.212-6.088,9.548-7.98,11.973c-1.031,1.319-4.126,6.575-5.321,8.867
			c-5.534,10.619-0.887-1.419-0.887-1.419s5.409-7.094,6.739-10.197c1.33-3.104,4.878-8.691,4.878-8.691
			c5.764-6.739,7.419-11.381,6.828-13.125c-5.443-16.049-19.509,7.982-19.509,7.982s-14.871,18.076-15.076,18.799
			c-0.437,1.543-1.471,5.091-2.144,5.765c-0.672,0.671-2.179,3.097-0.606,0.088c0.718-1.374,1.773-7.094,1.773-7.094
			c-0.68-1.508,5.114-5.113,8.957-15.253c2.527-2.527,3.666-3.959,4.611-5.676c1.164-2.116,2.967-5.212,2.66-6.74
			c-1.479-7.361-6.308-5.245-6.651-5.143c-3.161,0.925-3.695,2.394-10.035,7.625c-10.079,8.319-13.643,15.932-17.189,23.855
			c-3.533,7.891-8.425,23.412-8.425,23.412l-3.103,4.965c-3.636,1.241-7.539,5.853-7.539,5.853
			c-2.482-1.596-3.014-4.346-3.014-4.346c0.442-2.75,0.354-1.507-0.976-9.222c-1.33-7.716,0.444-5.942,0-9.135
			c-0.424-3.055,0.648-7.237-0.532-9.222c-5.587-9.4-9.932-4.435-9.932-4.435c-1.596,4.79-1.507,9.224-1.507,9.224
			c-3.636,5.586-3.104,17.646-3.104,17.646c-4.789,11.527,0.178,20.246,0.178,21.904c0,3.002,0.355,4.523,0.976,8.778
			c0.62,4.257,3.902,16.85,3.902,16.85c1.241,29.529-18.535,46.735-18.535,46.735s13.778,22.674,42.3,38.397
			c3.052,1.682,10.818-26.25,11.263-27.758c0.442-1.507,7.176-21.699,15.238-28.11c11.192-8.897,21.3-25.095,23.16-30.151
			c1.692-4.604,4.7-11.529,8.512-17.116c3.814-5.586,10.82-31.214,10.82-31.214C225.607,265.687,226.38,262.355,226.54,259.417z
			 M199.873,259.36c0.601-1.605,5.62-9.283,6.444-10.169c0.282-0.304,6.034-17.854,14.721-13.479c0,0,3.019,3.546-2.01,12.356
			c-0.755,1.323-0.587,2.779-3.429,4.198c0,0-2.836,1.243-5.498-1.419c-1.479-1.479-2.632-1.538-2.632-1.538
			s1.276,2.897,4.525,4.553l3.251,0.531c0,0-0.015-0.196,0.118,2.011c0,0-3.134,10.227-5.617,10.997c0,0-2.42,0.413-8.573-4.671
			c0,0-0.532,0.651-1.063,0.651c0,0,0.119,0.65,1.419,1.95c0,0,1.254,1.807,7.33,3.901c1.541,0.534-0.532,2.957-1.301,5.854
			c0,0-2.907,8.569-5.912,9.518c0,0-5.14-8.809-9.637-10.937c0,0,1.774-5.97,3.134-7.33
			C196.503,264.975,199.147,261.297,199.873,259.36z M198.809,231.335c0,0,1.691-2.22,2.364-3.369
			c0.359-0.613,4.079-6.385,8.573-8.751c4.493-2.364,6.266,3.902,5.971,5.027c-0.296,1.123-4.848,11.115-10.82,11.115
			C198.927,235.357,198.514,231.335,198.809,231.335z M181.429,256.994c0.739-0.74,1.125-5.972,7.272-12.948
			c0,0,6.387-7.329,9.104-11.705c0,0-1.061,2.956,9.045,6.029c1.593,0.484-8.041,13.893-9.459,14.485c0,0-4.279-2.47-8.041-2.897
			c0,0-2.778-0.827-2.541-2.011c0,0-1.715,2.189,1.478,3.608c0,0,5.179,0.505,8.514,3.842c0.266,0.267-0.474,1.833-1.064,3.843
			c-0.591,2.01-5.262,10.345-6.917,10.937c-1.655,0.592-9.577-5.026-11.882-5.794C176.937,264.383,180.219,258.204,181.429,256.994z
			 M218.909,279.283c0,0-2.181,1.656-8.454-2.011c0,0,1.714,4.198,7.39,4.79c0,0-3.692,8.806-4.256,10.818
			c-0.764,2.72-2.182,9.34-5.085,9.34c0,0-0.585-1.535-1.537-2.837c-1.575-2.155-2.222-6.545-4.536-6.78
			c1.763,2.407,3.356,7.313,3.356,9.501c0,3.911,2.128,2.858,0.235,8.14c-1.892,5.279-6.407,16.927-13.479,25.024
			c-6.23,7.135-7.109,8.8-13.834,11.707c-3.762,1.625-12.125,0.903-19.32-0.799l0.995,0.501c0,0,6.268,3.311,14.071,3.311
			c0,0,5.205-0.945-0.355,4.966c-0.26,0.278-7.871,15.032-9.223,19.746c-8.11,28.276-11.941,28.142-11.941,28.142
			c-17.469-8.474-38.547-35.826-38.547-35.826s14.897-14.779,17.973-41.147c0.135-1.156-1.656-6.504,4.138,2.128
			c4.906,7.309,8.709,10.632,9.759,11.479c-0.013-0.019-11.1-15.894-11.769-16.563c-1.715-1.714-6.945-16.154-7.685-29.559
			c0,0-5.441-11.322-0.12-19.835c0,0,0.002-15.873,3.075-18.948c0,0-0.324-10.563,3.784-9.222c4.108,1.341,5.676,3.901,5.084,9.932
			c-0.591,6.029,0.622,9.224-5.912,12.769c0,0,2.071,1.108,4.966,0.355c2.895-0.755,1.655,1.656,1.655,5.439
			c0,3.784,0.396,8.36-7.331,11.588c0,0-0.851,1.978-1.707,2.399c1.304-0.366,6.789-2.281,10.928-6.421c0,0,3.194,3.786,1.065,7.45
			c0,0-0.593,0.916-6.623,3.28c0,0-2.188,2.218-4.021,3.282c0,0,0.875,0.062,2.542-0.708c4.612-2.129,7.567-5.913,21.52-4.494
			c0,0,7.862,1.743,13.632,6.977c0.365,0.331,2.683,5.499,1.915-0.473c0,0-6.028-5.913-12.119-7.863
			c-3.144-1.008-7.921-1.419-13.183-0.799c0,0,1.774-2.039,3.25-3.162c2.3-1.75,4.731-2.838,9.518-4.198
			c0,0-1.063-1.419-4.137-0.355c0,0-4.123,0.904-5.912,1.715c-2.48,1.123-2.065,0.115-1.536-0.415s1.949-3.369,8.04-4.494
			c0,0,2.334-0.206,3.014-0.886c0,0-0.354-0.71-2.187-0.71c-1.833,0-3.577,1.568-1.389-1.979c0.181-0.292,1.328-1.479,1.743-2.572
			c0.929-2.448,4.269-13.509,5.083-14.78c0.673-1.05,4.189-10.913,5.853-13.715c2.84-4.79,8.335-14.249,14.662-18.15
			c0,0,3.372-3.487,4.495-3.958c1.123-0.474,5.851-6.683,9.103-2.191c0,0,0.887,1.301,0.354,4.02
			c-0.532,2.72-4.669,9.165-7.862,9.992c0,0-3.834-1.123-5.96-5.359c0.057,0.115,0.293,0.771-1.146,1.576c0,0,0.31,1.064,6.396,5.38
			c0,0,2.312,3.783-7.091,12.77c0,0-10.903-2.543-10.506-6.073c0,0-0.076,1.58-1.262,1.58c0,0,2.368,3.547,10.642,6.74
			c0,0-1.064,5.972-8.04,15.135c0,0-7.172,0.945-9.461,1.656c0,0-2.245,1.123-2.245,1.594c0,0,3.488-1.476,5.557-1.122
			c2.068,0.355,6.029,0.236,2.365,0.947c-2.574,0.498-5.087,2.131-6.358,3.062c2.818-0.559,5.413-0.638,5.413-0.638
			s3.311-2.542,10.523,0c7.212,2.542,8.218,2.719,13.597,7.39c5.38,4.67,1.773-2.542,11.41,14.307c0,0,0.035,0.077,0.101,0.236
			c0.34-0.051,0.808-0.39,1.021-1.774c0.354-2.305,3.93-8.451,6.326-12.474c1.117-1.876-0.829-1.772,4.197-9.222
			c0,0,4.872,3.318,7.981,2.245C223.053,269.646,218.26,278.101,218.909,279.283z M219.146,268.7c0,0-5.433-0.177-5.084-2.778
			c0,0-0.467-1.478,2.118-7.847c0.236-0.581,0.918-1.611,4.326-3.208c1.357-0.637,4.685-0.087,5.262,3.546
			C225.768,258.413,224.588,268.508,219.146,268.7z"/>
		<path d="M177.767,273.607c0,0,5.351,31.008,14.188,39.847C191.955,313.454,185.093,301.212,177.767,273.607z"/>
		<path d="M168.07,277.982c0,0,8.8,6.27,6.503,24.476c-1.038,8.23-2.836,22.111-10.522,32.515c0,0,8.75-3.311,12.416-31.671
			C177.32,296.687,178.12,283.303,168.07,277.982z"/>
	</g>
	<g id="Right_Hand">
		<path d="M276.93,270.667c0,0,7.007,25.628,10.82,31.215c3.812,5.587,6.819,12.512,8.513,17.116
			c1.858,5.056,11.968,21.254,23.159,30.151c8.062,6.41,14.797,26.603,15.238,28.109c0.444,1.508,8.211,29.439,11.264,27.758
			c28.521-15.724,42.299-38.397,42.299-38.397s-19.775-17.206-18.533-46.735c0,0,3.28-12.593,3.9-16.85
			c0.621-4.255,0.976-5.775,0.976-8.778c0-1.658,4.968-10.377,0.179-21.904c0,0,0.531-12.06-3.104-17.647
			c0,0,0.088-4.434-1.509-9.224c0,0-4.345-4.965-9.932,4.435c-1.18,1.985-0.107,6.167-0.532,9.222c-0.443,3.193,1.331,1.418,0,9.135
			c-1.33,7.714-1.418,6.473-0.977,9.222c0,0-0.531,2.75-3.014,4.346c0,0-3.902-4.612-7.538-5.853l-3.104-4.965
			c0,0-4.892-15.521-8.425-23.412c-3.547-7.923-7.11-15.536-17.189-23.855c-6.34-5.232-6.874-6.701-10.035-7.625
			c-0.343-0.102-5.172-2.219-6.65,5.143c-0.308,1.528,1.496,4.623,2.659,6.739c0.947,1.716,2.085,3.148,4.612,5.676
			c3.842,10.139,9.636,13.745,8.957,15.252c0,0,1.055,5.72,1.773,7.095c1.572,3.008,0.066,0.583-0.606-0.089
			c-0.673-0.673-1.707-4.221-2.144-5.764c-0.205-0.724-15.075-18.8-15.075-18.8s-14.066-24.031-19.509-7.982
			c-0.592,1.745,1.063,6.386,6.828,13.125c0,0,3.548,5.586,4.877,8.691c1.331,3.102,6.74,10.197,6.74,10.197
			s4.646,12.038-0.888,1.419c-1.194-2.292-4.29-7.548-5.32-8.867c-1.893-2.425-3.77-7.76-7.98-11.973
			c-4.213-4.213-11.617-3.901-10.109,4.346c1.506,8.247,5.853,13.656,5.853,13.656s0.885,1.596-2.913-0.518
			c-0.787-0.438-6.966,0.305-6.664,5.838C273.986,262.253,274.758,265.584,276.93,270.667z M305.223,266.234
			c1.359,1.359,3.134,7.33,3.134,7.33c-4.497,2.127-9.637,10.937-9.637,10.937c-3.005-0.949-5.912-9.518-5.912-9.518
			c-0.769-2.897-2.841-5.32-1.302-5.854c6.076-2.094,7.331-3.901,7.331-3.901c1.301-1.3,1.42-1.95,1.42-1.95
			c-0.532,0-1.064-0.651-1.064-0.651c-6.152,5.083-8.572,4.671-8.572,4.671c-2.482-0.77-5.616-10.997-5.616-10.997
			c0.133-2.207,0.118-2.011,0.118-2.011l3.25-0.531c3.25-1.655,4.526-4.553,4.526-4.553s-1.154,0.059-2.633,1.538
			c-2.662,2.662-5.498,1.419-5.498,1.419c-2.841-1.419-2.674-2.875-3.43-4.198c-5.028-8.81-2.009-12.355-2.009-12.355
			c8.687-4.375,14.438,13.175,14.721,13.479c0.823,0.886,5.843,8.563,6.444,10.169C301.219,261.195,303.862,264.873,305.223,266.234
			z M295.47,235.254c-5.974,0-10.525-9.991-10.82-11.115c-0.296-1.125,1.479-7.391,5.971-5.026c4.493,2.366,8.214,8.138,8.572,8.75
			c0.673,1.149,2.364,3.369,2.364,3.369C301.853,231.233,301.439,235.254,295.47,235.254z M323.43,264.281
			c-2.306,0.768-10.228,6.386-11.883,5.794c-1.654-0.592-6.326-8.926-6.917-10.937c-0.591-2.01-1.331-3.576-1.064-3.843
			c3.335-3.337,8.515-3.842,8.515-3.842c3.192-1.419,1.478-3.607,1.478-3.607c0.237,1.184-2.541,2.011-2.541,2.011
			c-3.763,0.427-8.04,2.897-8.04,2.897c-1.42-0.591-11.053-14-9.46-14.485c10.105-3.073,9.044-6.029,9.044-6.029
			c2.717,4.375,9.104,11.705,9.104,11.705c6.146,6.976,6.533,12.208,7.271,12.949C320.147,258.102,323.43,264.281,323.43,264.281z
			 M278.855,270.075c3.109,1.073,7.981-2.246,7.981-2.246c5.025,7.45,3.08,7.346,4.197,9.222c2.396,4.024,5.971,10.169,6.325,12.475
			c0.213,1.384,0.682,1.723,1.021,1.774c0.066-0.159,0.102-0.236,0.102-0.236c9.635-16.848,6.028-9.637,11.409-14.307
			c5.379-4.671,6.385-4.848,13.597-7.39c7.213-2.542,10.524,0,10.524,0s2.595,0.08,5.412,0.638
			c-1.271-0.931-3.783-2.564-6.357-3.062c-3.665-0.71,0.297-0.592,2.364-0.947c2.069-0.353,5.558,1.123,5.558,1.123
			c0-0.471-2.246-1.594-2.246-1.594c-2.287-0.71-9.46-1.656-9.46-1.656c-6.975-9.163-8.04-15.135-8.04-15.135
			c8.274-3.193,10.644-6.74,10.644-6.74c-1.187,0-1.263-1.58-1.263-1.58c0.396,3.529-10.507,6.073-10.507,6.073
			c-9.401-8.987-7.091-12.77-7.091-12.77c6.087-4.316,6.396-5.38,6.396-5.38c-1.438-0.805-1.201-1.461-1.145-1.577
			c-2.126,4.237-5.961,5.359-5.961,5.359c-3.193-0.826-7.33-7.272-7.861-9.991c-0.534-2.719,0.354-4.021,0.354-4.021
			c3.251-4.492,7.979,1.717,9.102,2.191c1.124,0.472,4.495,3.958,4.495,3.958c6.326,3.902,11.822,13.361,14.662,18.15
			c1.665,2.803,5.18,12.665,5.853,13.715c0.814,1.271,4.155,12.332,5.084,14.78c0.414,1.093,1.562,2.279,1.743,2.572
			c2.188,3.548,0.443,1.979-1.39,1.979s-2.188,0.71-2.188,0.71c0.681,0.681,3.015,0.886,3.015,0.886
			c6.091,1.125,7.511,3.965,8.04,4.494c0.528,0.53,0.945,1.538-1.536,0.415c-1.789-0.81-5.912-1.715-5.912-1.715
			c-3.074-1.063-4.138,0.355-4.138,0.355c4.787,1.36,7.217,2.448,9.519,4.198c1.476,1.123,3.251,3.162,3.251,3.162
			c-5.263-0.62-10.04-0.209-13.185,0.799c-6.09,1.95-12.118,7.863-12.118,7.863c-0.77,5.972,1.55,0.804,1.914,0.474
			c5.77-5.233,13.631-6.977,13.631-6.977c13.954-1.418,16.91,2.365,21.521,4.494c1.668,0.77,2.542,0.708,2.542,0.708
			c-1.832-1.063-4.021-3.281-4.021-3.281c-6.029-2.365-6.623-3.281-6.623-3.281c-2.128-3.664,1.066-7.45,1.066-7.45
			c4.14,4.141,9.624,6.056,10.928,6.421c-0.856-0.421-1.707-2.399-1.707-2.399c-7.726-3.229-7.33-7.805-7.33-11.588
			c0-3.783-1.24-6.194,1.655-5.439c2.895,0.753,4.966-0.355,4.966-0.355c-6.534-3.544-5.32-6.739-5.912-12.768
			c-0.591-6.031,0.977-8.591,5.085-9.933c4.107-1.341,3.784,9.222,3.784,9.222c3.073,3.075,3.075,18.948,3.075,18.948
			c5.32,8.513-0.12,19.835-0.12,19.835c-0.74,13.405-5.969,27.845-7.686,29.56c-0.669,0.669-11.755,16.544-11.768,16.562
			c1.05-0.847,4.854-4.17,9.759-11.479c5.794-8.632,4.003-3.284,4.139-2.127c3.075,26.368,17.973,41.147,17.973,41.147
			s-21.079,27.353-38.548,35.826c0,0-3.831,0.135-11.94-28.141c-1.353-4.715-8.964-19.469-9.224-19.747
			c-5.56-5.911-0.354-4.966-0.354-4.966c7.804,0,14.07-3.312,14.07-3.312l0.995-0.5c-7.194,1.701-15.558,2.423-19.32,0.799
			c-6.725-2.907-7.603-4.572-13.834-11.707c-7.07-8.098-11.586-19.745-13.478-25.025c-1.893-5.282,0.234-4.229,0.234-8.14
			c0-2.189,1.594-7.095,3.356-9.502c-2.313,0.235-2.961,4.625-4.536,6.78c-0.952,1.303-1.538,2.837-1.538,2.837
			c-2.901,0-4.321-6.621-5.084-9.34c-0.564-2.013-4.256-10.819-4.256-10.819c5.677-0.592,7.39-4.79,7.39-4.79
			c-6.271,3.667-8.453,2.011-8.453,2.011C282.105,277.999,277.313,269.544,278.855,270.075z M274.599,258.311
			c0.577-3.633,3.904-4.183,5.262-3.546c3.409,1.597,4.09,2.627,4.326,3.208c2.585,6.37,2.118,7.848,2.118,7.848
			c0.349,2.601-5.085,2.778-5.085,2.778C275.778,268.406,274.599,258.311,274.599,258.311z"/>
		<path d="M322.6,273.504c0,0-5.35,31.008-14.188,39.847C308.412,313.351,315.273,301.11,322.6,273.504z"/>
		<path d="M332.297,277.88c0,0-8.801,6.27-6.504,24.475c1.037,8.23,2.836,22.111,10.522,32.515c0,0-8.75-3.311-12.415-31.672
			C323.046,296.585,322.246,283.201,332.297,277.88z"/>
	</g>
	<path id="Outer_Circle_1_" d="M252,8.064c32.935,0,64.88,6.449,94.949,19.167c29.047,12.286,55.136,29.875,77.541,52.281
		c22.405,22.405,39.995,48.493,52.28,77.54c12.718,30.068,19.166,62.014,19.166,94.948s-6.448,64.88-19.166,94.949
		c-12.285,29.046-29.875,55.135-52.28,77.541s-48.494,39.995-77.541,52.28c-30.068,12.718-62.014,19.167-94.949,19.167
		c-32.935,0-64.88-6.449-94.948-19.167c-29.047-12.285-55.135-29.875-77.54-52.28c-22.405-22.405-39.995-48.494-52.281-77.541
		C14.513,316.879,8.064,284.934,8.064,252s6.449-64.88,19.167-94.948c12.286-29.047,29.875-55.135,52.281-77.54
		c22.405-22.405,48.493-39.995,77.54-52.281C187.12,14.513,219.065,8.064,252,8.064 M252,0C112.824,0,0,112.824,0,252
		s112.824,252,252,252c139.176,0,252-112.824,252-252S391.176,0,252,0L252,0z"/>
	<path id="Inner_Circle_1_" d="M252,73.584c47.657,0,92.461,18.558,126.16,52.256c33.698,33.699,52.257,78.502,52.257,126.159
		s-18.559,92.46-52.257,126.158S299.656,430.415,252,430.415c-47.656,0-92.461-18.559-126.159-52.257
		C92.142,344.459,73.584,299.656,73.584,252s18.558-92.46,52.256-126.159C159.539,92.143,204.343,73.584,252,73.584 M252,65.521
		C149.009,65.521,65.52,149.01,65.52,252c0,102.989,83.489,186.479,186.479,186.479c102.99,0,186.481-83.491,186.481-186.479
		C438.48,149.01,354.989,65.521,252,65.521L252,65.521z"/>
	<g id="Text">
		<path d="M98.562,375.953l0.606,0.646c0.782,0.984,1.488,1.812,2.119,2.483c0.583,0.621,1.323,1.358,2.22,2.21l0.737,0.632
			l-0.207,0.731c-1.522,1.859-2.689,3.411-3.503,4.653c-0.348,0.518-0.913,1.358-1.693,2.521c-0.781,1.164-1.217,1.836-1.309,2.018
			l-0.058,0.091l0.393,0.418c0.263,0.278,1.143,1.266,2.639,2.961c0.12,0.127,0.561,0.571,1.325,1.333
			c1.038,1.053,1.711,1.745,2.021,2.075c-0.013,0.011,0.119-0.053,0.394-0.191c0.275-0.14,0.919-0.482,1.933-1.028
			c1.489-0.778,2.608-1.371,3.359-1.778c0.751-0.407,1.265-0.705,1.541-0.894c0.815-0.503,1.67-1.08,2.564-1.729l0.152-0.143
			l0.7,0.021c0.238,0.254,0.375,0.437,0.408,0.548c0.627,0.795,1.209,1.477,1.745,2.048c0.417,0.443,0.841,0.832,1.274,1.165
			c0.133,0.065,0.361,0.27,0.682,0.612l-0.301,0.784c-1.199,0.196-2.434,0.532-3.704,1.01c-1.27,0.478-2.896,1.146-4.879,2.007
			l-0.394,0.191c-1.522,0.691-3.539,1.643-6.05,2.856s-5.034,2.439-7.57,3.677s-4.707,2.317-6.514,3.239
			c-1.806,0.922-2.722,1.395-2.747,1.419c-0.114,0.107-0.208,0.267-0.283,0.48c-0.074,0.213-0.229,0.918-0.462,2.116l-0.897,0.342
			c-0.345-0.367-0.993-1.083-1.945-2.146c-1.021-1.188-1.644-1.902-1.871-2.144c-0.167-0.178-0.435-0.438-0.806-0.781
			c-0.323-0.293-0.753-0.688-1.292-1.185l0.207-0.731c1.184-1.637,2.374-3.328,3.572-5.074c1.199-1.747,2.38-3.544,3.545-5.39
			c1.165-1.847,2.315-3.702,3.449-5.567c1.135-1.865,2.138-3.541,3.008-5.027c1.04-1.789,1.854-3.221,2.441-4.298
			c0.587-1.077,1.062-2,1.424-2.771c0.363-0.771,0.636-1.45,0.82-2.041s0.326-1.266,0.423-2.026L98.562,375.953z M88.82,406.118
			l-0.149,0.068l0.018,0.019l3.073-1.491c2.073-0.993,3.866-1.854,5.376-2.582c1.512-0.729,2.618-1.278,3.318-1.649
			c-0.107-0.114-0.416-0.456-0.928-1.025c-0.511-0.57-1.136-1.248-1.875-2.033l-2.179-2.319c-1.72,2.689-3.173,5.028-4.361,7.015
			C89.926,404.106,89.162,405.438,88.82,406.118z"/>
		<path d="M80.619,349.683l4.426,6.549c-0.148,0.96-0.42,1.863-0.815,2.707c-0.395,0.845-0.988,1.954-1.78,3.329
			c-0.086,0.184-0.146,0.298-0.179,0.341c-0.019,0.035-0.252,0.435-0.702,1.199c-1.264,2.197-2.018,3.504-2.261,3.921
			c-0.295,0.557-0.574,1.107-0.836,1.651c-0.261,0.545-0.491,1.167-0.689,1.867s-0.275,1.388-0.229,2.06
			c0.045,0.674,0.253,1.283,0.623,1.83c0.234,0.347,0.509,0.707,0.825,1.081c0.316,0.374,0.501,0.585,0.554,0.633l0.626-0.424
			c0.745-0.481,1.383-0.904,1.917-1.264c1.124-0.76,2.197-1.501,3.22-2.224c1.023-0.723,1.789-1.267,2.298-1.632
			c1.057-0.798,1.842-1.444,2.357-1.939s1.07-1.08,1.664-1.754l0.172-0.211l0.81-0.106c0.255,0.625,0.458,1.081,0.609,1.367
			c0.151,0.286,0.456,0.768,0.914,1.444c0.487,0.721,0.915,1.339,1.285,1.855c0.37,0.516,0.855,1.064,1.457,1.645l-0.436,0.798
			c-0.597,0.11-1.199,0.291-1.805,0.544c-0.606,0.252-1.474,0.707-2.603,1.365c-0.688,0.381-1.708,0.997-3.063,1.851
			c-1.354,0.853-2.789,1.789-4.302,2.812c-1.95,1.276-4.495,2.977-7.637,5.099c-1.743,1.178-3.322,2.267-4.736,3.264
			c-1.414,0.999-2.496,1.812-3.244,2.444c-0.427,0.394-0.76,0.793-1.001,1.197c-0.241,0.404-0.484,1.015-0.73,1.831l-1.041,0.138
			c-0.285-0.731-0.551-1.298-0.799-1.696s-0.582-0.907-1.001-1.526c-0.983-1.456-1.833-2.682-2.548-3.678
			c-0.715-0.996-1.35-1.843-1.905-2.539c-0.029-0.043-0.194-0.257-0.496-0.641c-0.641-0.763-1.245-1.523-1.812-2.285
			c-0.566-0.762-0.991-1.35-1.274-1.769c-1.412-2.089-1.831-4.114-1.257-6.076c0.574-1.962,1.769-3.557,3.583-4.783
			c1.283-0.867,2.594-1.465,3.936-1.795c1.341-0.328,2.649-0.436,3.923-0.32s2.47,0.393,3.586,0.835
			c1.117,0.44,1.759,0.721,1.923,0.841l0.029,0.043c0.029-0.019,0.054-0.277,0.075-0.774c0.044-0.618,0.187-1.254,0.426-1.909
			c0.24-0.654,0.578-1.388,1.017-2.198c0.439-0.812,1.062-1.908,1.868-3.294c1.15-1.994,2.03-3.58,2.64-4.759
			c0.61-1.178,1.031-2.124,1.263-2.837c0.232-0.712,0.359-1.271,0.38-1.674c0.022-0.403-0.043-1.088-0.194-2.057L80.619,349.683z
			 M77.104,378.537c-0.063-0.125-0.176-0.354-0.337-0.686c-0.161-0.332-0.378-0.699-0.65-1.103
			c-0.935-1.383-1.967-2.359-3.097-2.929c-1.13-0.569-2.247-0.831-3.351-0.789c-1.104,0.043-2.129,0.258-3.075,0.646
			c-0.945,0.387-1.749,0.805-2.412,1.252c-1.758,1.188-2.883,2.49-3.376,3.903c-0.492,1.415-0.32,2.74,0.517,3.979
			c0.507,0.749,1.179,1.293,2.015,1.63c0.837,0.337,1.651,0.469,2.441,0.397c0.791-0.073,1.656-0.338,2.596-0.795
			c0.94-0.456,2.287-1.268,4.04-2.431L77.104,378.537z"/>
		<path d="M42.886,344.63c0.181,0.725,0.338,1.263,0.471,1.614c0.134,0.351,0.337,0.808,0.613,1.37
			c0.367,0.827,1.376,2.927,3.03,6.3c0.237,0.484,0.406,0.779,0.506,0.885c0.101,0.105,0.26,0.144,0.478,0.114
			c0.172-0.045,0.72-0.27,1.645-0.675c0.925-0.405,2.063-0.928,3.413-1.571c1.905-0.895,3.607-1.71,5.106-2.444
			c-0.865-1.764-1.653-3.354-2.366-4.767c-0.711-1.413-1.137-2.241-1.275-2.483c-0.399-0.618-0.76-1.037-1.081-1.257
			c-0.321-0.221-0.833-0.478-1.54-0.771l-0.733-0.25l0.382-1.117l5.676-2.229c0.32,0.889,0.586,1.63,0.799,2.223
			c0.213,0.593,0.561,1.42,1.042,2.481c0.175,0.438,0.71,1.569,1.606,3.396l1.354,2.88l1.312-0.643
			c0.851-0.398,1.495-0.704,1.932-0.918c1.391-0.681,2.751-1.362,4.083-2.044s2.126-1.095,2.384-1.241
			c0.219-0.146,0.317-0.282,0.295-0.406c-0.022-0.125-0.286-0.702-0.792-1.733c-0.666-1.358-1.216-2.444-1.653-3.256
			c-0.391-0.719-0.729-1.309-1.013-1.77c-0.284-0.46-0.511-0.805-0.68-1.032c-0.285-0.306-0.597-0.545-0.934-0.719
			c-0.337-0.173-0.982-0.404-1.937-0.692l0.243-1.165l6.135-2.716c0.406,0.828,0.734,1.616,0.984,2.365
			c0.137,0.359,0.267,0.683,0.389,0.971c0.206,0.577,0.69,1.686,1.455,3.325c0.764,1.64,1.713,3.615,2.846,5.926
			c0.459,0.937,0.894,1.804,1.304,2.6c0.41,0.797,0.861,1.501,1.354,2.111l-0.543,0.847c-0.708,0.018-1.325,0.103-1.852,0.254
			c-0.526,0.151-1.218,0.399-2.077,0.742c-0.733,0.282-1.619,0.658-2.657,1.127c-1.038,0.47-2.174,0.988-3.407,1.554
			c-2.303,1.071-4.336,2.038-6.102,2.903c-3.95,1.937-6.916,3.404-8.895,4.403c-1.98,0.999-3.396,1.756-4.248,2.27
			c-0.835,0.507-1.432,0.921-1.789,1.24c-0.356,0.32-0.649,0.682-0.878,1.084l-0.922,0.074c-0.511-1.24-0.992-2.36-1.443-3.359
			c-0.451-1-1.193-2.553-2.226-4.661c-0.566-1.155-1.167-2.343-1.803-3.561c-0.314-0.641-0.599-1.184-0.856-1.629
			c-0.257-0.445-0.462-0.785-0.616-1.02c-0.1-0.125-0.169-0.226-0.208-0.304c-0.277-0.446-0.573-0.804-0.89-1.075
			c-0.316-0.27-1.017-0.682-2.102-1.236l0.277-1.094L42.886,344.63z"/>
		<path d="M60.464,299.328l0.276,0.843c0.291,1.223,0.58,2.272,0.867,3.147c0.265,0.81,0.623,1.791,1.074,2.942l0.399,0.884
			l-0.498,0.575c-2.167,1.04-3.881,1.949-5.146,2.729c-0.534,0.322-1.402,0.844-2.602,1.566c-1.2,0.722-1.879,1.147-2.04,1.272
			l-0.091,0.057l0.179,0.545c0.12,0.364,0.498,1.63,1.136,3.8c0.055,0.166,0.266,0.755,0.634,1.769
			c0.494,1.394,0.811,2.306,0.952,2.735c-0.017,0.005,0.129,0.003,0.437-0.006c0.309-0.009,1.037-0.047,2.187-0.113
			c1.678-0.073,2.943-0.136,3.796-0.187c0.853-0.051,1.444-0.103,1.774-0.156c0.952-0.11,1.97-0.27,3.054-0.479l0.199-0.065
			l0.625,0.317c0.108,0.331,0.154,0.554,0.137,0.668c0.231,0.986,0.469,1.851,0.713,2.594c0.19,0.579,0.409,1.111,0.66,1.596
			c0.093,0.116,0.213,0.397,0.359,0.843l-0.605,0.583c-1.169-0.331-2.431-0.549-3.783-0.655c-1.352-0.106-3.109-0.189-5.27-0.25
			l-0.437,0.006c-1.671-0.019-3.902-0.011-6.69,0.023c-2.788,0.036-5.593,0.076-8.415,0.122c-2.821,0.046-5.246,0.104-7.273,0.173
			c-2.026,0.069-3.056,0.109-3.09,0.121c-0.148,0.049-0.302,0.154-0.459,0.315c-0.158,0.162-0.597,0.735-1.317,1.722l-0.956-0.071
			c-0.157-0.479-0.441-1.402-0.852-2.768c-0.421-1.509-0.683-2.42-0.786-2.734c-0.076-0.231-0.208-0.581-0.399-1.049
			c-0.168-0.402-0.392-0.943-0.668-1.621l0.498-0.575c1.765-0.981,3.561-2.008,5.386-3.083c1.826-1.074,3.658-2.201,5.495-3.379
			c1.837-1.179,3.665-2.372,5.483-3.581c1.818-1.209,3.437-2.302,4.855-3.279c1.7-1.179,3.044-2.132,4.032-2.859
			c0.988-0.726,1.81-1.361,2.464-1.905c0.655-0.544,1.191-1.044,1.608-1.501c0.417-0.457,0.832-1.009,1.242-1.656L60.464,299.328z
			 M38.856,322.521l-0.165-0.001l0.008,0.024l3.415-0.048c2.299-0.021,4.287-0.042,5.964-0.061c1.678-0.019,2.913-0.048,3.704-0.088
			c-0.048-0.149-0.184-0.589-0.405-1.322c-0.222-0.732-0.5-1.611-0.836-2.636l-0.991-3.024c-2.698,1.708-5.005,3.209-6.923,4.506
			C40.71,321.168,39.453,322.051,38.856,322.521z"/>
		<path d="M26.71,245.384l-0.222,0.708c-1.239,0.719-2.204,1.479-2.894,2.283c-0.69,0.804-1.206,1.592-1.549,2.364
			c-0.342,0.771-0.573,1.484-0.691,2.139s-0.173,1.225-0.165,1.712c0.021,1.131,0.387,2.337,1.097,3.62
			c0.711,1.283,1.764,2.508,3.158,3.674c1.396,1.166,3.161,2.099,5.295,2.799c2.135,0.701,4.532,1.026,7.192,0.978
			c2.399-0.043,4.533-0.374,6.4-0.99s3.427-1.445,4.677-2.485c1.251-1.04,2.182-2.218,2.793-3.534
			c0.611-1.315,0.903-2.704,0.876-4.165c-0.017-0.938-0.227-1.96-0.63-3.066s-0.95-2.253-1.641-3.44
			c-0.691-1.188-1.478-2.33-2.358-3.427c-0.881-1.097-1.967-2.277-3.26-3.541l0.898-0.8c1.049,0.294,2.5,0.677,4.352,1.147
			c1.853,0.471,3.539,0.893,5.059,1.265l0.192,10.537c0.002,0.104,0.01,0.309,0.024,0.613c0.014,0.304,0.044,0.752,0.089,1.342
			c0.046,0.643,0.082,1.12,0.104,1.433c0.022,0.313,0.036,0.539,0.039,0.678c0.028,1.548-0.009,2.857-0.111,3.929
			c-0.103,1.071-0.327,2.081-0.675,3.026s-0.862,1.825-1.543,2.637c-0.681,0.812-1.58,1.611-2.696,2.397
			c-3.143,2.214-7.114,3.364-11.913,3.452c-1.338,0.024-2.818-0.07-4.44-0.285c-1.621-0.214-3.312-0.652-5.072-1.316
			c-1.76-0.664-3.409-1.668-4.947-3.015c-1.538-1.346-2.717-3.046-3.537-5.102c-0.273-0.656-0.581-1.546-0.923-2.67
			s-0.664-2.314-0.965-3.57c-0.301-1.255-0.544-2.447-0.73-3.574c-0.186-1.127-0.284-1.995-0.295-2.604
			c-0.041-2.208,0.372-4.203,1.234-5.984c0.864-1.781,2.272-3.463,4.226-5.047l0.706,0.065L26.71,245.384z"/>
		<path d="M35.39,226.984l1.649-11.068c0.279-1.875,0.428-3.11,0.446-3.705l-0.645-0.096c-0.855-0.163-1.299-0.247-1.334-0.251
			c-1.238-0.185-2.484-0.348-3.738-0.491c-1.253-0.142-2.461-0.265-3.625-0.368c-1.163-0.103-2.247-0.168-3.254-0.195
			c-1.007-0.027-1.924,0.021-2.751,0.144l-0.309-0.758l0.054-0.361c0.118-0.316,0.219-0.648,0.307-0.996
			c0.087-0.348,0.199-0.986,0.337-1.915c0.136-0.912,0.218-1.577,0.245-1.995s0.036-1.005,0.025-1.764l0.814-0.327
			c0.974,0.426,2.912,0.961,5.813,1.604c2.902,0.644,6.203,1.24,9.9,1.791c3.612,0.539,6.323,0.934,8.131,1.186
			c1.809,0.252,3.457,0.458,4.945,0.618c1.489,0.16,2.737,0.245,3.747,0.255c1.01,0.01,1.973-0.058,2.892-0.202l0.624,0.594
			c-0.191,0.569-0.342,1.114-0.455,1.633c-0.113,0.52-0.243,1.278-0.392,2.276c-0.142,0.946-0.228,1.588-0.261,1.926
			c-0.033,0.338-0.02,0.898,0.04,1.681l-0.864,0.135c-0.858-0.374-1.716-0.695-2.573-0.963c-0.857-0.268-1.836-0.511-2.938-0.728
			c-1.102-0.217-2.415-0.46-3.939-0.732c-1.524-0.271-3.61-0.612-6.256-1.024l-1.107,7.43c-0.034,0.224-0.225,1.628-0.575,4.213
			c-0.26,1.983-0.398,3.026-0.414,3.13l4.412,0.657c1.737,0.259,3.224,0.459,4.46,0.599c1.236,0.141,2.251,0.235,3.044,0.282
			c0.793,0.048,1.459,0.059,1.999,0.034c0.541-0.025,1.283-0.081,2.228-0.169l0.386,0.77c-0.148,0.522-0.267,0.962-0.354,1.318
			c-0.088,0.356-0.202,0.999-0.34,1.928c-0.105,0.705-0.178,1.371-0.218,1.998c-0.041,0.626-0.082,1.192-0.121,1.696l-0.604,0.517
			c-0.726-0.319-1.421-0.581-2.085-0.786c-0.664-0.204-1.49-0.415-2.477-0.633c-3.438-0.758-8.013-1.562-13.724-2.414
			c-5.212-0.777-9.008-1.289-11.389-1.539c-2.38-0.249-4.37-0.255-5.971-0.02l-0.542-0.608c0.226-0.811,0.408-1.561,0.547-2.252
			c0.138-0.691,0.254-1.355,0.349-1.992c0.098-0.654,0.151-1.129,0.16-1.427c0.009-0.297,0.018-0.832,0.028-1.604l0.71-0.342
			c2.072,0.73,4.173,1.316,6.305,1.756C28.831,225.866,31.716,226.384,35.39,226.984z"/>
		<path d="M69.075,178.098l-2.398,7.532c-0.846,0.479-1.723,0.825-2.63,1.037c-0.907,0.213-2.146,0.435-3.716,0.665
			c-0.197,0.047-0.323,0.07-0.378,0.071c-0.038,0.006-0.497,0.071-1.375,0.192c-2.508,0.369-4.001,0.587-4.479,0.654
			c-0.62,0.113-1.225,0.235-1.814,0.367c-0.59,0.132-1.22,0.337-1.894,0.615c-0.672,0.279-1.259,0.645-1.759,1.096
			c-0.5,0.453-0.85,0.993-1.05,1.623c-0.127,0.398-0.239,0.837-0.337,1.317c-0.098,0.479-0.149,0.755-0.154,0.827l0.721,0.229
			c0.84,0.286,1.566,0.526,2.179,0.722c1.292,0.412,2.54,0.795,3.74,1.15c1.201,0.355,2.102,0.62,2.704,0.793
			c1.281,0.335,2.275,0.551,2.983,0.649s1.511,0.17,2.408,0.219l0.272,0.004l0.585,0.57c-0.334,0.587-0.566,1.029-0.696,1.325
			c-0.131,0.296-0.32,0.833-0.568,1.612c-0.264,0.829-0.484,1.548-0.66,2.158c-0.177,0.61-0.306,1.331-0.388,2.163l-0.897,0.152
			c-0.456-0.401-0.971-0.761-1.544-1.081c-0.573-0.319-1.469-0.718-2.685-1.197c-0.725-0.304-1.841-0.724-3.35-1.258
			c-1.508-0.536-3.133-1.08-4.873-1.634c-2.21-0.74-5.121-1.686-8.733-2.836c-2.004-0.639-3.837-1.204-5.497-1.696
			c-1.659-0.492-2.968-0.835-3.928-1.032c-0.573-0.091-1.093-0.106-1.56-0.045c-0.467,0.062-1.097,0.249-1.89,0.562l-0.752-0.732
			c0.398-0.676,0.677-1.235,0.835-1.678c0.159-0.442,0.352-1.02,0.579-1.732c0.533-1.674,0.969-3.1,1.308-4.279
			s0.61-2.201,0.813-3.067c0.016-0.05,0.081-0.312,0.195-0.787c0.202-0.976,0.425-1.922,0.671-2.838
			c0.247-0.917,0.446-1.615,0.599-2.096c0.765-2.402,2.096-3.986,3.991-4.751c1.896-0.765,3.887-0.815,5.975-0.15
			c1.475,0.47,2.757,1.129,3.846,1.978c1.089,0.849,1.984,1.809,2.683,2.88c0.699,1.071,1.222,2.182,1.567,3.333
			c0.346,1.15,0.522,1.827,0.531,2.03l-0.016,0.05c0.033,0.011,0.251-0.13,0.654-0.421c0.513-0.348,1.1-0.631,1.763-0.849
			s1.448-0.406,2.355-0.563c0.909-0.158,2.156-0.35,3.742-0.575c2.278-0.333,4.068-0.625,5.371-0.876
			c1.303-0.251,2.306-0.506,3.009-0.766c0.704-0.26,1.22-0.506,1.55-0.738c0.33-0.233,0.828-0.708,1.494-1.427L69.075,178.098z
			 M44.249,193.215c0.059-0.127,0.168-0.357,0.329-0.689c0.161-0.333,0.315-0.73,0.463-1.194c0.506-1.591,0.633-3.006,0.38-4.246
			c-0.253-1.239-0.739-2.279-1.457-3.119c-0.718-0.84-1.521-1.512-2.411-2.014c-0.889-0.502-1.715-0.875-2.478-1.118
			c-2.021-0.644-3.74-0.721-5.155-0.232s-2.35,1.446-2.803,2.872c-0.275,0.862-0.285,1.726-0.031,2.591
			c0.253,0.866,0.654,1.586,1.201,2.162s1.291,1.091,2.231,1.546s2.412,1.01,4.412,1.665L44.249,193.215z"/>
		<path d="M69.878,175.932c-0.717-0.527-1.489-1.06-2.315-1.599c-0.827-0.538-2.048-1.213-3.667-2.027
			c-1.682-0.842-3.497-1.714-5.445-2.617c-1.949-0.903-4.346-1.986-7.191-3.249c-3.735-1.658-6.57-2.859-8.504-3.604
			c-1.934-0.744-3.827-1.28-5.68-1.607l-0.408-0.495c0.148-0.333,0.292-0.613,0.429-0.837c0.187-0.335,0.4-0.73,0.64-1.186
			c0.24-0.454,0.508-1.016,0.804-1.683c0.247-0.556,0.425-1,0.535-1.333c0.109-0.332,0.219-0.664,0.328-0.996
			c0.11-0.332,0.203-0.585,0.281-0.76l0.633-0.461c0.989,0.687,1.798,1.231,2.428,1.635s1.495,0.887,2.595,1.451
			c3.621,1.874,8.586,4.211,14.896,7.012c2.321,1.03,4.188,1.84,5.6,2.429c1.413,0.589,2.697,1.083,3.852,1.481
			c0.664,0.219,1.218,0.375,1.662,0.467c0.445,0.093,1.055,0.207,1.832,0.342l0.427,0.646l-0.444,0.745
			c-0.625,1.15-1.131,2.163-1.519,3.036c-0.24,0.541-0.412,0.949-0.516,1.227c-0.105,0.277-0.214,0.61-0.328,0.996
			c-0.016,0.165-0.112,0.445-0.289,0.843L69.878,175.932z"/>
		<path d="M69.273,153.805c0.417,0.639,0.808,1.156,1.171,1.554s0.81,0.747,1.338,1.048c0.469,0.267,0.979,0.468,1.533,0.603
			c0.554,0.136,1.117,0.167,1.689,0.092c0.573-0.074,1.116-0.29,1.63-0.647s0.969-0.884,1.365-1.579
			c0.551-0.967,0.788-2.023,0.71-3.168c-0.078-1.145-0.395-2.282-0.953-3.411s-1.259-2.154-2.105-3.077
			c-0.845-0.922-1.722-1.642-2.627-2.158c-1.073-0.611-1.985-0.961-2.736-1.049c-0.75-0.087-1.346-0.026-1.786,0.183
			c-0.439,0.21-0.789,0.471-1.047,0.785c-0.258,0.313-0.517,0.696-0.775,1.149c-0.043,0.076-0.332,0.652-0.865,1.729
			c-0.328,0.715-0.728,1.558-1.201,2.528c-0.474,0.972-0.788,1.593-0.943,1.865c-0.5,0.876-1.104,1.718-1.814,2.524
			c-0.71,0.807-1.643,1.381-2.798,1.723c-0.983,0.321-2.016,0.393-3.097,0.217c-1.081-0.176-2.142-0.561-3.185-1.155
			c-1.224-0.698-2.289-1.56-3.195-2.587c-0.906-1.026-1.619-2.138-2.138-3.335c-0.519-1.196-0.824-2.426-0.915-3.689
			c-0.091-1.263,0.051-2.468,0.425-3.617c0.161-0.528,0.396-1.17,0.707-1.924c0.31-0.754,0.667-1.541,1.075-2.36
			c0.407-0.819,0.775-1.535,1.104-2.148c0.33-0.613,0.615-1.131,0.856-1.554c0.585-1.027,1.125-1.876,1.617-2.547
			c0.492-0.67,1.128-1.243,1.91-1.718c0.781-0.475,1.711-0.666,2.789-0.572c1.078,0.094,2.289,0.524,3.633,1.29l0.454,0.258
			c0.285,0.203,0.594,0.399,0.926,0.588l-0.917,1.609c-0.195,0.309-0.319,0.508-0.371,0.599c-0.258,0.453-0.469,0.849-0.631,1.187
			c-0.163,0.338-0.608,1.27-1.338,2.795L58,135.76c-0.196-0.112-0.313-0.188-0.35-0.229c-0.276-0.217-0.536-0.395-0.777-0.533
			c-0.816-0.465-1.537-0.701-2.164-0.708c-0.627-0.007-1.137,0.107-1.532,0.343s-0.705,0.499-0.931,0.791
			c-0.226,0.291-0.425,0.588-0.598,0.89c-0.56,0.982-0.862,1.986-0.906,3.012s0.129,2.03,0.52,3.013
			c0.39,0.983,0.938,1.876,1.642,2.678s1.472,1.439,2.302,1.913c0.876,0.5,1.643,0.761,2.3,0.785
			c0.657,0.025,1.201-0.086,1.63-0.332c0.43-0.245,0.766-0.519,1.008-0.821c0.243-0.302,0.463-0.626,0.661-0.975
			c0.155-0.272,0.773-1.601,1.853-3.988c0.368-0.751,0.723-1.495,1.062-2.232c0.34-0.737,0.579-1.226,0.717-1.468
			c0.586-1.027,1.263-1.802,2.031-2.325c0.769-0.522,1.623-0.836,2.563-0.941c0.875-0.062,1.814,0.013,2.814,0.223
			c1.002,0.21,2.122,0.668,3.36,1.375c1.572,0.896,2.901,1.969,3.99,3.22c1.089,1.25,1.932,2.563,2.531,3.935
			s0.963,2.736,1.092,4.09c0.128,1.354,0.026,2.587-0.307,3.698c-0.114,0.516-0.364,1.209-0.75,2.08
			c-0.387,0.871-0.776,1.685-1.167,2.442c-0.393,0.757-0.821,1.58-1.285,2.465c-0.465,0.886-0.87,1.632-1.214,2.236
			c-0.568,0.997-1.135,1.78-1.7,2.349c-0.564,0.569-1.273,0.97-2.127,1.204c-0.996,0.273-1.989,0.277-2.98,0.013
			c-0.99-0.264-1.9-0.633-2.732-1.106c-0.755-0.431-1.382-0.868-1.88-1.312c-0.498-0.443-0.972-0.954-1.423-1.532
			c0.698-1.224,1.222-2.196,1.573-2.917c0.351-0.721,0.859-1.772,1.527-3.153L69.273,153.805z"/>
		<path d="M80.775,99.852c-1.507,1.624-2.538,2.743-3.092,3.358c-0.554,0.616-1.095,1.258-1.624,1.926
			c-0.604,0.764-0.926,1.296-0.966,1.597l-0.059,0.453c0.34,0.468,1.619,1.675,3.838,3.62c2.219,1.945,5.129,4.343,8.728,7.193
			c1.937,1.532,3.526,2.774,4.77,3.726c1.243,0.951,2.265,1.693,3.063,2.225c0.798,0.533,1.481,0.952,2.049,1.257
			c0.568,0.306,1.343,0.692,2.326,1.16l0.249,0.862c-0.5,0.38-0.912,0.731-1.233,1.053c-0.322,0.322-0.731,0.797-1.227,1.424
			c-0.54,0.682-0.943,1.233-1.21,1.654c-0.267,0.421-0.567,0.954-0.9,1.6l-0.86-0.049c-0.572-0.762-1.347-1.632-2.328-2.608
			c-0.98-0.975-2.072-1.984-3.276-3.026c-1.205-1.042-2.34-1.996-3.407-2.862c-1.066-0.866-2.206-1.78-3.419-2.741
			c-1.255-0.993-2.496-1.953-3.725-2.882c-1.229-0.928-2.424-1.819-3.588-2.674c-1.164-0.855-2.144-1.564-2.94-2.128
			c-0.796-0.563-1.337-0.902-1.622-1.018c-0.134-0.083-0.222-0.12-0.264-0.109c-0.042,0.011-0.155,0.133-0.338,0.364
			c-1.414,1.787-2.487,3.311-3.219,4.571c-0.732,1.262-1.189,2.819-1.37,4.672l-1.137-0.035l-3.583-5.099
			c0.528-0.668,1.006-1.243,1.433-1.727c0.805-0.96,1.779-2.135,2.923-3.525c1.145-1.39,2.515-3.093,4.113-5.112
			c1.813-2.291,3.182-4.046,4.104-5.268c0.923-1.221,1.594-2.153,2.015-2.797c0.232-0.349,0.39-0.612,0.475-0.789
			c0.085-0.177,0.147-0.354,0.189-0.533c0.041-0.178,0.053-0.396,0.035-0.654c-0.018-0.257-0.07-0.709-0.157-1.356l-0.005-0.834
			l1.441-0.224L80.775,99.852z"/>
		<path d="M108.393,116.68c-0.486-0.746-1.02-1.516-1.605-2.311c-0.584-0.795-1.491-1.857-2.719-3.188
			c-1.278-1.379-2.67-2.834-4.177-4.365c-1.506-1.531-3.369-3.388-5.588-5.572c-2.913-2.866-5.143-4.988-6.691-6.365
			c-1.548-1.376-3.132-2.544-4.75-3.503l-0.208-0.607c0.256-0.26,0.488-0.471,0.696-0.632c0.293-0.248,0.632-0.543,1.017-0.885
			c0.385-0.341,0.833-0.772,1.346-1.293c0.427-0.434,0.75-0.786,0.969-1.059c0.219-0.272,0.438-0.544,0.657-0.817
			c0.22-0.272,0.396-0.477,0.53-0.613l0.754-0.208c0.685,0.991,1.25,1.785,1.698,2.384c0.447,0.6,1.086,1.356,1.918,2.272
			c2.729,3.027,6.555,6.962,11.477,11.805c1.81,1.781,3.273,3.196,4.388,4.244c1.115,1.048,2.143,1.962,3.084,2.742
			c0.544,0.439,1.008,0.779,1.392,1.021c0.383,0.243,0.915,0.565,1.594,0.965l0.172,0.755l-0.678,0.541
			c-0.989,0.856-1.819,1.626-2.49,2.307c-0.415,0.422-0.72,0.744-0.915,0.967c-0.195,0.223-0.415,0.496-0.658,0.817
			c-0.073,0.148-0.262,0.378-0.566,0.688L108.393,116.68z"/>
		<path d="M138.885,90.392l-0.687,0.562c-1.035,0.712-1.909,1.36-2.623,1.944c-0.66,0.54-1.445,1.228-2.356,2.063l-0.681,0.692
			l-0.716-0.257c-1.75-1.645-3.218-2.916-4.401-3.813c-0.493-0.383-1.293-1.003-2.4-1.862c-1.107-0.858-1.748-1.339-1.923-1.443
			l-0.086-0.064l-0.444,0.363c-0.296,0.242-1.341,1.053-3.135,2.431c-0.135,0.11-0.608,0.52-1.42,1.229
			c-1.122,0.964-1.858,1.588-2.208,1.874c-0.011-0.013,0.044,0.122,0.163,0.406c0.12,0.285,0.418,0.95,0.895,1.999
			c0.674,1.538,1.189,2.696,1.544,3.473c0.355,0.777,0.617,1.31,0.786,1.599c0.447,0.848,0.963,1.74,1.549,2.676l0.132,0.162
			l-0.07,0.697c-0.269,0.221-0.46,0.343-0.574,0.369c-0.836,0.572-1.557,1.105-2.162,1.601c-0.472,0.386-0.888,0.783-1.25,1.191
			c-0.075,0.129-0.293,0.341-0.657,0.639l-0.762-0.354c-0.114-1.21-0.366-2.465-0.754-3.765c-0.389-1.299-0.946-2.967-1.669-5.004
			l-0.164-0.406c-0.585-1.566-1.397-3.643-2.436-6.231c-1.04-2.588-2.089-5.188-3.151-7.804c-1.061-2.614-1.99-4.854-2.786-6.72
			c-0.796-1.865-1.205-2.811-1.227-2.838c-0.099-0.121-0.252-0.226-0.46-0.315c-0.208-0.088-0.901-0.291-2.081-0.606l-0.279-0.917
			c0.391-0.319,1.148-0.917,2.274-1.793c1.256-0.937,2.011-1.511,2.267-1.72c0.188-0.154,0.467-0.404,0.835-0.75
			c0.314-0.302,0.738-0.705,1.27-1.208l0.716,0.257c1.551,1.292,3.158,2.596,4.818,3.911c1.661,1.315,3.372,2.617,5.134,3.905
			c1.762,1.288,3.535,2.562,5.318,3.821c1.784,1.26,3.387,2.375,4.81,3.345c1.713,1.16,3.087,2.069,4.121,2.729
			c1.034,0.66,1.923,1.196,2.667,1.61c0.744,0.415,1.403,0.733,1.98,0.958c0.577,0.224,1.241,0.411,1.992,0.561L138.885,90.392z
			 M109.457,78.611l-0.059-0.154l-0.021,0.017l1.278,3.168c0.85,2.136,1.586,3.983,2.209,5.541c0.623,1.558,1.096,2.699,1.419,3.422
			c0.121-0.099,0.483-0.384,1.087-0.855c0.603-0.47,1.321-1.048,2.156-1.731l2.463-2.015c-2.566-1.9-4.8-3.51-6.701-4.831
			C111.387,79.851,110.11,78.998,109.457,78.611z"/>
		<path d="M144.662,43.959c0.68-0.247,1.187-0.445,1.521-0.595c0.335-0.15,0.782-0.384,1.341-0.703
			c0.409-0.231,0.838-0.496,1.29-0.793c0.452-0.296,1.12-0.756,2.006-1.38l0.727,0.487c-0.129,0.934-0.14,1.68-0.032,2.239
			c0.108,0.559,0.267,1.129,0.477,1.709c0.247,0.68,0.681,1.638,1.305,2.875c0.623,1.236,1.356,2.614,2.201,4.134
			c1.21,2.233,2.576,4.687,4.098,7.363c1.083,1.904,2.226,3.896,3.427,5.973c0.888,1.456,1.611,2.63,2.168,3.523
			c0.558,0.893,0.938,1.463,1.138,1.709c0.314,0.342,0.608,0.594,0.881,0.759c0.274,0.165,0.837,0.435,1.691,0.809l-0.034,0.89
			c-0.348,0.198-1.219,0.653-2.614,1.366c-0.882,0.421-1.375,0.662-1.48,0.722c-0.152,0.086-1.017,0.657-2.596,1.715l-0.748,0.426
			c-0.666-0.361-2.275-1.237-4.825-2.627c-2.552-1.39-4.793-2.606-6.727-3.647c-1.933-1.042-3.873-2.088-5.822-3.141
			c-1.949-1.052-3.388-1.814-4.316-2.287c-0.256-0.134-1.17-0.615-2.741-1.442c-1.073-0.55-2.139-1.104-3.197-1.663l-0.071-0.02
			c0.103,0.182,0.557,0.989,1.362,2.422s1.792,3.177,2.961,5.233l5.294,9.203c0.749,1.315,1.402,2.404,1.962,3.266
			c0.56,0.862,1.141,1.592,1.741,2.191l-0.053,0.75c-1.574,0.715-2.837,1.343-3.79,1.885c-0.695,0.396-1.305,0.802-1.828,1.219
			l-0.661,0.526l-0.859-0.562c0.123-1.05,0.097-2.026-0.076-2.928c-0.172-0.902-0.523-1.923-1.052-3.063
			c-0.44-0.95-1.258-2.51-2.452-4.682c-1.195-2.172-2.648-4.761-4.359-7.77c-1.316-2.312-2.458-4.304-3.427-5.973
			c-0.821-1.373-1.53-2.541-2.127-3.502c-0.597-0.96-0.965-1.511-1.105-1.652c-0.328-0.294-0.679-0.524-1.053-0.692
			c-0.375-0.166-0.974-0.376-1.798-0.628l0.044-0.925c0.317-0.181,0.817-0.444,1.5-0.793c1.624-0.803,2.549-1.269,2.776-1.398
			c0.74-0.421,1.276-0.746,1.607-0.974s0.791-0.58,1.38-1.055c0.554,0.305,0.99,0.553,1.307,0.742
			c0.318,0.19,0.891,0.51,1.716,0.959c0.826,0.451,2.162,1.171,4.006,2.163c1.844,0.992,3.207,1.717,4.089,2.176l0.242,0.162
			c2.333,1.254,3.948,2.131,4.843,2.632c0.896,0.501,2.036,1.118,3.423,1.85c1.386,0.732,3.024,1.581,4.915,2.547
			c1.889,0.966,3.203,1.639,3.94,2.02c-0.301-0.529-1.438-2.562-3.411-6.103l-2.63-4.625c-1.221-2.146-2.22-3.884-2.995-5.214
			c-0.776-1.329-1.433-2.431-1.97-3.306c-0.538-0.875-0.981-1.558-1.331-2.05c-0.349-0.491-0.758-1.024-1.225-1.599L144.662,43.959z
			"/>
		<path d="M175.134,59.311c-0.091,0.757-0.123,1.405-0.1,1.943c0.024,0.539,0.142,1.093,0.354,1.664
			c0.188,0.505,0.45,0.988,0.788,1.446c0.337,0.459,0.75,0.845,1.236,1.155c0.487,0.311,1.042,0.494,1.666,0.55
			s1.31-0.056,2.06-0.334c1.043-0.387,1.903-1.045,2.579-1.973c0.675-0.928,1.162-2.003,1.459-3.227
			c0.297-1.223,0.417-2.459,0.361-3.709s-0.266-2.364-0.629-3.343c-0.43-1.157-0.905-2.01-1.424-2.56
			c-0.52-0.549-1.015-0.885-1.487-1.006s-0.907-0.145-1.307-0.071c-0.399,0.074-0.843,0.202-1.332,0.383
			c-0.082,0.031-0.672,0.288-1.773,0.77c-0.709,0.338-1.558,0.728-2.544,1.167c-0.987,0.441-1.626,0.715-1.92,0.824
			c-0.946,0.352-1.949,0.608-3.011,0.771c-1.062,0.162-2.146,0.004-3.252-0.476c-0.959-0.385-1.797-0.993-2.513-1.822
			c-0.716-0.828-1.283-1.805-1.701-2.93c-0.49-1.321-0.753-2.666-0.789-4.034c-0.035-1.369,0.132-2.679,0.502-3.93
			c0.37-1.25,0.926-2.389,1.667-3.415c0.741-1.027,1.624-1.859,2.647-2.5c0.463-0.302,1.056-0.643,1.777-1.021
			c0.722-0.38,1.502-0.753,2.339-1.12c0.838-0.367,1.58-0.679,2.226-0.938c0.646-0.258,1.197-0.472,1.654-0.642
			c1.108-0.412,2.067-0.716,2.875-0.915c0.808-0.198,1.664-0.229,2.568-0.091c0.903,0.138,1.739,0.588,2.505,1.351
			c0.766,0.764,1.419,1.872,1.958,3.322l0.182,0.489c0.088,0.339,0.199,0.687,0.333,1.045l-1.736,0.645
			c-0.348,0.111-0.572,0.185-0.669,0.22c-0.489,0.182-0.905,0.35-1.246,0.505c-0.342,0.155-1.282,0.583-2.821,1.284l-0.538-0.551
			c-0.079-0.211-0.12-0.345-0.121-0.4c-0.072-0.344-0.157-0.647-0.253-0.908c-0.328-0.88-0.729-1.524-1.205-1.932
			c-0.477-0.408-0.941-0.648-1.395-0.721c-0.454-0.072-0.861-0.07-1.221,0.008c-0.361,0.079-0.704,0.178-1.03,0.299
			c-1.06,0.394-1.936,0.97-2.628,1.728s-1.205,1.64-1.537,2.644c-0.332,1.005-0.485,2.041-0.46,3.107
			c0.025,1.067,0.204,2.049,0.537,2.945c0.351,0.946,0.771,1.639,1.259,2.079c0.488,0.44,0.976,0.705,1.463,0.792
			c0.487,0.088,0.92,0.094,1.3,0.018c0.38-0.076,0.757-0.184,1.132-0.323c0.293-0.109,1.62-0.731,3.981-1.868
			c0.764-0.34,1.513-0.683,2.247-1.029s1.231-0.569,1.493-0.666c1.108-0.412,2.125-0.571,3.05-0.479
			c0.925,0.092,1.781,0.4,2.569,0.924c0.71,0.515,1.382,1.175,2.015,1.979c0.632,0.804,1.197,1.875,1.693,3.211
			c0.629,1.695,0.96,3.372,0.991,5.03c0.032,1.658-0.164,3.205-0.585,4.642s-1.019,2.716-1.789,3.836
			c-0.771,1.122-1.641,2.001-2.61,2.639c-0.418,0.322-1.055,0.693-1.91,1.113c-0.855,0.419-1.676,0.794-2.463,1.124
			c-0.787,0.329-1.643,0.684-2.567,1.065c-0.926,0.381-1.714,0.692-2.367,0.935c-1.076,0.399-2.013,0.636-2.811,0.71
			c-0.798,0.074-1.6-0.074-2.404-0.443c-0.939-0.431-1.703-1.065-2.293-1.903c-0.59-0.839-1.051-1.706-1.384-2.603
			c-0.303-0.815-0.503-1.552-0.599-2.212c-0.097-0.659-0.133-1.356-0.108-2.089c1.321-0.49,2.346-0.899,3.078-1.227
			c0.731-0.327,1.797-0.806,3.195-1.437L175.134,59.311z"/>
		<path d="M248.141,22.979c-2.216-0.012-3.737-0.013-4.565-0.005c-0.827,0.009-1.667,0.044-2.516,0.106
			c-0.972,0.071-1.582,0.195-1.83,0.37l-0.373,0.263c-0.115,0.567-0.139,2.325-0.07,5.276c0.068,2.951,0.271,6.715,0.608,11.294
			c0.181,2.463,0.342,4.474,0.483,6.033s0.285,2.813,0.433,3.761c0.148,0.948,0.302,1.735,0.461,2.359
			c0.159,0.625,0.399,1.458,0.72,2.498l-0.467,0.767c-0.619-0.112-1.155-0.177-1.61-0.196c-0.455-0.019-1.081,0.001-1.878,0.06
			c-0.868,0.063-1.546,0.14-2.037,0.228c-0.49,0.088-1.086,0.228-1.787,0.419l-0.546-0.667c0.175-0.937,0.291-2.096,0.346-3.478
			c0.055-1.381,0.059-2.868,0.012-4.46c-0.048-1.592-0.113-3.074-0.196-4.446c-0.084-1.371-0.182-2.829-0.295-4.372
			c-0.118-1.595-0.25-3.16-0.397-4.692c-0.147-1.533-0.3-3.016-0.458-4.452c-0.158-1.436-0.298-2.637-0.422-3.605
			c-0.124-0.967-0.239-1.595-0.348-1.883c-0.029-0.155-0.062-0.244-0.098-0.268c-0.037-0.023-0.203-0.024-0.497-0.002
			c-2.272,0.167-4.12,0.408-5.544,0.721c-1.425,0.314-2.88,1.032-4.367,2.152l-0.743-0.861l1.331-6.088
			c0.85-0.062,1.597-0.1,2.242-0.112c1.251-0.057,2.775-0.134,4.573-0.232c1.797-0.097,3.98-0.24,6.546-0.429
			c2.914-0.214,5.133-0.394,6.656-0.541c1.523-0.147,2.665-0.283,3.423-0.409c0.414-0.065,0.714-0.126,0.902-0.184
			c0.188-0.057,0.361-0.131,0.52-0.222c0.159-0.09,0.327-0.229,0.505-0.416c0.178-0.187,0.475-0.532,0.892-1.034l0.612-0.568
			l1.139,0.91L248.141,22.979z"/>
		<path d="M283.999,43.417c-0.742,1.954-1.663,3.661-2.766,5.12c-1.101,1.459-2.298,2.672-3.593,3.639
			c-1.294,0.967-2.585,1.685-3.873,2.156c-0.82,0.293-1.858,0.541-3.108,0.743c-1.252,0.203-2.552,0.359-3.902,0.468
			c-1.349,0.108-2.583,0.173-3.699,0.193c-1.116,0.02-1.961,0.01-2.533-0.028c-2.101-0.143-3.97-0.727-5.608-1.753
			c-1.639-1.027-2.99-2.369-4.054-4.027s-1.817-3.526-2.26-5.605c-0.443-2.078-0.588-4.245-0.435-6.5
			c0.1-1.475,0.357-3.022,0.772-4.641c0.415-1.619,1.06-3.235,1.938-4.85c0.876-1.614,2.032-3.104,3.467-4.471
			c1.435-1.367,3.161-2.409,5.181-3.126c0.52-0.208,1.027-0.388,1.525-0.537c0.498-0.149,1.044-0.286,1.636-0.412
			c0.593-0.125,1.343-0.258,2.251-0.396c0.907-0.139,2.101-0.332,3.581-0.581c1.358-0.222,2.705-0.287,4.039-0.196
			c2.065,0.14,3.934,0.724,5.607,1.753s3.077,2.379,4.209,4.051c1.134,1.671,1.955,3.575,2.463,5.71
			c0.51,2.135,0.682,4.408,0.518,6.819C285.194,39.306,284.742,41.463,283.999,43.417z M277.751,31.293
			c-0.408-1.571-0.957-2.937-1.645-4.099c-0.529-0.942-1.153-1.751-1.874-2.428c-0.723-0.677-1.459-1.232-2.215-1.667
			c-0.754-0.434-1.496-0.755-2.223-0.961c-0.727-0.207-1.401-0.331-2.025-0.373c-1.406-0.096-2.815,0.253-4.229,1.046
			c-1.413,0.793-2.717,1.956-3.91,3.486c-1.192,1.532-2.173,3.309-2.938,5.331c-0.765,2.023-1.223,4.144-1.373,6.365
			c-0.154,2.273,0.037,4.334,0.574,6.184c0.536,1.85,1.307,3.409,2.312,4.68c1.002,1.271,2.112,2.248,3.329,2.932
			c1.219,0.684,2.434,1.067,3.648,1.149c1.492,0.102,3.067-0.249,4.725-1.052s3.034-1.934,4.126-3.394
			c1.434-1.854,2.451-3.76,3.056-5.715c0.603-1.955,0.969-3.878,1.097-5.769c0.014-0.191,0.014-0.453,0.002-0.785l0.044-0.651
			C278.317,34.29,278.158,32.863,277.751,31.293z"/>
		<path d="M308.457,57.842c-3.071,2.007-6.158,2.619-9.261,1.837c-2.26-0.569-4.28-1.983-6.06-4.244
			c-0.841-0.857-1.492-1.837-1.949-2.939l-0.416-0.697l-0.271-0.31l-1.041-1.85c-0.441-3.232-0.234-6.542,0.618-9.932
			c0.179-0.708,0.396-1.424,0.649-2.15c2.079-4.838,5.652-8.09,10.716-9.755c3.441-1.913,7.274-2.606,11.5-2.08l2.961,0.746
			l2.482,1.567l0.417,0.266l1.776,1.281l0.409,0.614l0.569,0.413l1.356,1.982l-0.116,1.101c-0.717,0.5-1.554,0.899-2.507,1.197
			l-0.702,0.334l-0.648,0.321c-0.69,0.399-1.858,0.725-3.5,0.975l0.293-1.164c-1.892-2.952-4.66-4.886-8.302-5.804
			c-0.304-0.077-0.626-0.148-0.969-0.217c-4.203-0.898-7.4,1.866-9.592,8.29l-0.167,0.657c-1.802,7.15,0.291,12.619,6.278,16.404
			c0.675,0.528,1.356,0.879,2.049,1.054c1.315,0.331,2.699,0.106,4.15-0.676c0.184-0.438,0.364-1.012,0.541-1.72l0.422-1.669
			l0.165-0.228l0.172-0.683l0.254-0.689l-2.294-2.11l-0.961-0.242l-0.104-1.399l2.943-1.222l0.874-0.157
			c0.443-0.193,0.808-0.289,1.095-0.289c0.018,0.004,0.168-0.057,0.449-0.183c0.549-0.256,1.188-0.437,1.911-0.541l1.85-0.288
			l1.24-0.333l0.766-0.157l1.443,0.363c-0.585,0.894-1.058,1.734-1.416,2.522c-0.043,0.312-0.12,0.688-0.23,1.126
			c-0.106,0.421-0.238,0.873-0.396,1.354l-0.24,0.961c-0.091,0.354-0.293,0.841-0.61,1.46l-1.014,4.021l-0.292,0.733
			c-0.086,0.194-0.157,0.409-0.216,0.646c-0.124,0.489-0.219,1.075-0.282,1.758l-2.504,9.941c-1.81,1.481-4.13,2.367-6.966,2.658
			l-0.078-1.93c0.238-0.586,0.444-1.233,0.624-1.941l0.376-1.493l-0.063-0.285l0.174-1.113l0.26-0.607L308.457,57.842z"/>
		<path d="M346.233,43.604c-0.618-0.421-1.093-0.718-1.425-0.891c-0.335-0.173-0.792-0.378-1.371-0.614
			c-0.824-0.374-2.977-1.269-6.453-2.686c-0.5-0.204-0.823-0.312-0.969-0.324c-0.144-0.012-0.289,0.065-0.431,0.232
			c-0.099,0.148-0.358,0.681-0.778,1.599c-0.421,0.917-0.923,2.066-1.502,3.444c-0.827,1.935-1.556,3.676-2.186,5.222
			c1.819,0.742,3.465,1.403,4.938,1.984c1.473,0.582,2.341,0.916,2.605,1.005c0.708,0.195,1.258,0.269,1.644,0.219
			c0.386-0.049,0.939-0.198,1.661-0.449l0.715-0.301l0.457,1.088l-2.752,5.442c-0.829-0.451-1.522-0.827-2.075-1.127
			c-0.554-0.3-1.364-0.687-2.43-1.159c-0.421-0.209-1.575-0.698-3.459-1.466l-2.928-1.249l-0.551,1.353
			c-0.37,0.863-0.648,1.52-0.831,1.971c-0.585,1.434-1.146,2.848-1.688,4.242c-0.539,1.395-0.858,2.232-0.953,2.513
			c-0.066,0.255-0.049,0.421,0.05,0.5c0.101,0.078,0.681,0.333,1.744,0.767c1.401,0.571,2.536,1.014,3.402,1.33
			c0.77,0.276,1.415,0.492,1.933,0.647c0.521,0.155,0.918,0.261,1.195,0.317c0.415,0.039,0.808,0.01,1.176-0.084
			c0.366-0.094,1.002-0.352,1.905-0.772l0.595,1.031l-2.772,6.11c-0.853-0.348-1.622-0.717-2.307-1.109
			c-0.343-0.177-0.654-0.332-0.938-0.466c-0.537-0.294-1.638-0.799-3.3-1.514c-1.661-0.715-3.684-1.558-6.067-2.529
			c-0.967-0.394-1.866-0.751-2.703-1.073c-0.837-0.322-1.642-0.547-2.416-0.674l-0.157-0.994c0.516-0.484,0.92-0.958,1.213-1.422
			c0.291-0.463,0.644-1.108,1.055-1.936c0.36-0.698,0.772-1.569,1.233-2.61c0.462-1.042,0.966-2.185,1.51-3.428
			c1.006-2.332,1.88-4.407,2.622-6.227c1.66-4.075,2.896-7.143,3.709-9.207c0.812-2.063,1.364-3.57,1.658-4.521
			c0.287-0.935,0.458-1.64,0.512-2.116c0.053-0.476,0.029-0.94-0.067-1.393l0.638-0.669c1.209,0.585,2.313,1.102,3.313,1.547
			c1.003,0.446,2.591,1.111,4.765,1.997c1.191,0.486,2.43,0.972,3.715,1.458c0.662,0.269,1.234,0.484,1.723,0.646
			s0.868,0.279,1.141,0.351c0.157,0.027,0.275,0.057,0.355,0.09c0.505,0.148,0.963,0.218,1.381,0.209
			c0.415-0.008,1.213-0.167,2.392-0.476l0.521,1.001L346.233,43.604z"/>
		<path d="M377.97,60.665c-1.823-1.258-3.079-2.118-3.769-2.577c-0.687-0.459-1.399-0.903-2.138-1.331
			c-0.843-0.489-1.415-0.73-1.719-0.726l-0.457,0.006c-0.415,0.403-1.425,1.842-3.031,4.318c-1.608,2.476-3.563,5.699-5.867,9.67
			c-1.238,2.136-2.238,3.888-3.002,5.254c-0.763,1.368-1.351,2.484-1.763,3.351c-0.413,0.867-0.729,1.603-0.948,2.209
			c-0.223,0.606-0.492,1.428-0.815,2.468l-0.817,0.37c-0.448-0.441-0.854-0.797-1.219-1.07c-0.366-0.272-0.894-0.608-1.586-1.01
			c-0.753-0.437-1.354-0.756-1.81-0.96c-0.455-0.203-1.025-0.424-1.713-0.661l-0.075-0.858c0.674-0.675,1.422-1.568,2.247-2.678
			c0.824-1.109,1.665-2.335,2.523-3.677c0.858-1.342,1.64-2.603,2.345-3.782c0.705-1.179,1.445-2.438,2.223-3.777
			c0.802-1.384,1.575-2.75,2.317-4.099c0.742-1.349,1.453-2.66,2.132-3.936c0.678-1.275,1.24-2.346,1.684-3.215
			c0.443-0.868,0.701-1.453,0.773-1.752c0.065-0.144,0.087-0.236,0.071-0.276c-0.018-0.04-0.153-0.134-0.409-0.283
			c-1.971-1.143-3.633-1.986-4.985-2.53c-1.354-0.544-2.961-0.771-4.821-0.685l-0.128-1.13l4.532-4.277
			c0.736,0.427,1.374,0.818,1.913,1.171c1.067,0.659,2.368,1.454,3.908,2.387c1.539,0.934,3.424,2.045,5.648,3.337
			c2.527,1.466,4.461,2.568,5.804,3.306c1.341,0.738,2.36,1.269,3.058,1.592c0.378,0.18,0.659,0.298,0.849,0.356
			c0.187,0.059,0.372,0.095,0.553,0.11c0.184,0.015,0.399-0.004,0.654-0.059c0.252-0.054,0.69-0.171,1.318-0.35l0.825-0.124
			l0.427,1.394L377.97,60.665z"/>
		<path d="M383.919,78.392l8.671,7.074c1.469,1.198,2.453,1.958,2.955,2.277l0.413-0.505c0.577-0.652,0.876-0.991,0.897-1.019
			c0.792-0.97,1.569-1.958,2.333-2.961c0.763-1.004,1.486-1.98,2.168-2.927c0.684-0.946,1.294-1.846,1.831-2.697
			c0.537-0.852,0.967-1.665,1.283-2.438l0.81,0.122l0.283,0.231c0.211,0.262,0.445,0.52,0.699,0.772
			c0.254,0.252,0.744,0.675,1.473,1.269c0.715,0.582,1.244,0.993,1.589,1.229c0.347,0.237,0.847,0.544,1.504,0.923l-0.136,0.866
			c-0.864,0.619-2.313,2.012-4.351,4.177c-2.036,2.166-4.235,4.697-6.6,7.594c-2.31,2.83-4.034,4.958-5.174,6.383
			c-1.142,1.425-2.162,2.737-3.06,3.935c-0.897,1.197-1.61,2.227-2.134,3.09c-0.524,0.863-0.959,1.726-1.304,2.589l-0.829,0.232
			c-0.394-0.455-0.783-0.863-1.173-1.225c-0.388-0.363-0.975-0.862-1.754-1.5c-0.743-0.604-1.251-1.008-1.524-1.208
			s-0.762-0.476-1.465-0.825l0.327-0.812c0.76-0.546,1.475-1.12,2.142-1.718c0.67-0.6,1.379-1.317,2.129-2.153
			c0.748-0.836,1.63-1.84,2.642-3.012s2.37-2.79,4.077-4.854l-5.819-4.75c-0.178-0.143-1.286-1.025-3.329-2.647
			c-1.571-1.237-2.398-1.889-2.479-1.955l-2.819,3.457c-1.11,1.361-2.042,2.537-2.794,3.527c-0.754,0.991-1.353,1.815-1.799,2.472
			c-0.445,0.657-0.796,1.224-1.05,1.701c-0.256,0.477-0.587,1.144-0.994,2.001l-0.858-0.061c-0.374-0.395-0.691-0.721-0.953-0.979
			c-0.26-0.258-0.754-0.684-1.482-1.277c-0.553-0.451-1.089-0.854-1.606-1.209c-0.518-0.355-0.982-0.679-1.396-0.97l-0.134-0.784
			c0.644-0.461,1.225-0.924,1.74-1.391c0.514-0.466,1.118-1.068,1.81-1.806c2.409-2.568,5.439-6.088,9.089-10.562
			c3.331-4.083,5.712-7.083,7.143-9.002c1.432-1.918,2.453-3.626,3.067-5.122l0.802-0.156c0.581,0.609,1.132,1.149,1.655,1.621
			c0.524,0.473,1.036,0.912,1.534,1.319c0.512,0.417,0.894,0.706,1.146,0.866c0.25,0.16,0.705,0.441,1.364,0.845l-0.068,0.785
			c-1.688,1.407-3.265,2.915-4.733,4.522C388.23,73.325,386.312,75.541,383.919,78.392z"/>
		<path d="M425.121,102.61c-0.384-0.641-0.691-1.11-0.919-1.407c-0.23-0.297-0.56-0.675-0.984-1.133
			c-0.593-0.685-2.168-2.402-4.729-5.149c-0.368-0.395-0.614-0.628-0.742-0.7c-0.126-0.072-0.289-0.062-0.488,0.029
			c-0.151,0.093-0.612,0.467-1.378,1.123c-0.768,0.656-1.705,1.487-2.812,2.494c-1.563,1.409-2.955,2.683-4.176,3.822
			c1.339,1.437,2.556,2.729,3.646,3.875c1.093,1.146,1.738,1.815,1.941,2.007c0.562,0.475,1.027,0.771,1.399,0.889
			c0.372,0.117,0.938,0.214,1.697,0.29l0.773,0.027l-0.041,1.18l-4.784,3.781c-0.563-0.758-1.034-1.39-1.41-1.895
			s-0.948-1.196-1.717-2.072c-0.295-0.367-1.136-1.295-2.523-2.784l-2.132-2.364l-1.067,0.996c-0.699,0.628-1.227,1.108-1.583,1.44
			c-1.132,1.055-2.236,2.102-3.313,3.141c-1.077,1.039-1.717,1.666-1.921,1.879c-0.168,0.204-0.223,0.361-0.164,0.474
			c0.058,0.113,0.477,0.589,1.26,1.429c1.032,1.107,1.875,1.986,2.528,2.636c0.583,0.574,1.077,1.041,1.482,1.399
			s0.723,0.622,0.951,0.791c0.36,0.209,0.729,0.348,1.101,0.417c0.374,0.069,1.059,0.102,2.055,0.1l0.106,1.185l-5.083,4.38
			c-0.628-0.674-1.172-1.333-1.628-1.977c-0.234-0.304-0.453-0.576-0.654-0.817c-0.363-0.493-1.149-1.413-2.358-2.759
			c-1.206-1.347-2.688-2.962-4.443-4.844c-0.711-0.764-1.378-1.467-2.002-2.11c-0.622-0.644-1.258-1.186-1.908-1.626l0.274-0.969
			c0.673-0.222,1.238-0.482,1.698-0.78c0.459-0.297,1.05-0.735,1.772-1.312c0.618-0.483,1.358-1.1,2.215-1.851
			s1.793-1.577,2.81-2.476c1.894-1.693,3.558-3.209,4.996-4.549c3.219-3,5.631-5.265,7.233-6.796c1.604-1.53,2.74-2.666,3.406-3.405
			c0.653-0.728,1.104-1.296,1.353-1.706c0.248-0.409,0.423-0.84,0.525-1.292l0.86-0.339c0.849,1.039,1.634,1.971,2.356,2.796
			c0.721,0.826,1.882,2.097,3.482,3.814c0.879,0.941,1.798,1.903,2.761,2.884c0.484,0.521,0.915,0.958,1.291,1.31
			c0.374,0.352,0.67,0.617,0.887,0.797c0.132,0.091,0.226,0.168,0.287,0.232c0.394,0.346,0.779,0.603,1.161,0.77
			s1.174,0.358,2.371,0.573l0.053,1.127L425.121,102.61z"/>
		<path d="M421.587,151.241l-4.544-6.468c0.133-0.964,0.387-1.871,0.767-2.722s0.952-1.971,1.721-3.36
			c0.082-0.185,0.14-0.3,0.173-0.345c0.018-0.034,0.244-0.438,0.68-1.21c1.225-2.221,1.954-3.541,2.188-3.962
			c0.286-0.562,0.556-1.117,0.808-1.666c0.252-0.549,0.471-1.175,0.655-1.879c0.186-0.704,0.25-1.392,0.193-2.064
			c-0.058-0.672-0.275-1.278-0.655-1.819c-0.24-0.341-0.522-0.696-0.845-1.064c-0.323-0.369-0.513-0.576-0.565-0.623l-0.618,0.435
			c-0.736,0.496-1.368,0.928-1.894,1.298c-1.11,0.78-2.17,1.54-3.18,2.281c-1.01,0.741-1.767,1.299-2.269,1.673
			c-1.041,0.817-1.814,1.477-2.321,1.982c-0.508,0.504-1.051,1.099-1.632,1.784l-0.169,0.214l-0.808,0.121
			c-0.266-0.621-0.477-1.073-0.634-1.356c-0.155-0.284-0.469-0.759-0.938-1.428c-0.501-0.712-0.939-1.322-1.319-1.832
			c-0.378-0.509-0.874-1.048-1.486-1.617l0.421-0.806c0.597-0.121,1.195-0.312,1.796-0.576c0.603-0.263,1.461-0.734,2.579-1.413
			c0.679-0.393,1.688-1.027,3.027-1.905c1.341-0.876,2.757-1.84,4.251-2.89c1.928-1.311,4.441-3.056,7.544-5.235
			c1.723-1.209,3.28-2.325,4.678-3.349c1.394-1.023,2.461-1.857,3.199-2.502c0.42-0.401,0.744-0.806,0.979-1.214
			c0.234-0.409,0.467-1.024,0.697-1.845l1.039-0.156c0.298,0.727,0.573,1.287,0.829,1.681c0.256,0.395,0.599,0.897,1.029,1.509
			c1.008,1.437,1.881,2.648,2.613,3.631c0.734,0.983,1.384,1.817,1.95,2.504c0.03,0.042,0.199,0.253,0.509,0.631
			c0.653,0.751,1.271,1.502,1.853,2.253c0.58,0.75,1.016,1.332,1.305,1.745c1.449,2.063,1.906,4.081,1.366,6.053
			c-0.537,1.972-1.703,3.588-3.496,4.848c-1.266,0.89-2.567,1.511-3.902,1.864c-1.335,0.354-2.64,0.484-3.916,0.393
			c-1.277-0.092-2.477-0.349-3.603-0.77c-1.124-0.421-1.77-0.69-1.938-0.807l-0.029-0.042c-0.029,0.021-0.049,0.278-0.061,0.776
			c-0.034,0.618-0.164,1.257-0.391,1.917c-0.228,0.659-0.555,1.398-0.979,2.216c-0.423,0.818-1.025,1.927-1.807,3.326
			c-1.114,2.015-1.965,3.617-2.554,4.806c-0.589,1.189-0.992,2.142-1.211,2.859c-0.221,0.717-0.337,1.277-0.351,1.68
			s0.063,1.088,0.23,2.053L421.587,151.241z M424.582,122.328c0.064,0.124,0.181,0.351,0.349,0.679
			c0.167,0.329,0.39,0.692,0.671,1.091c0.959,1.366,2.008,2.323,3.148,2.872c1.14,0.549,2.262,0.792,3.364,0.729
			c1.104-0.063,2.124-0.297,3.063-0.701c0.937-0.404,1.734-0.836,2.39-1.295c1.734-1.22,2.837-2.541,3.304-3.964
			c0.467-1.422,0.271-2.746-0.589-3.969c-0.52-0.74-1.2-1.271-2.043-1.593s-1.658-0.439-2.447-0.353
			c-0.79,0.087-1.65,0.367-2.581,0.841c-0.932,0.474-2.265,1.308-3.997,2.504L424.582,122.328z"/>
		<path d="M434.16,176.021c0.88-0.14,1.801-0.314,2.764-0.524c0.965-0.21,2.304-0.605,4.021-1.185
			c1.779-0.605,3.675-1.284,5.688-2.035c2.012-0.752,4.467-1.697,7.365-2.833c3.804-1.493,6.65-2.666,8.538-3.519
			c1.888-0.853,3.601-1.823,5.135-2.911l0.64,0.058c0.134,0.34,0.232,0.638,0.295,0.894c0.106,0.368,0.238,0.798,0.393,1.288
			c0.155,0.49,0.366,1.076,0.634,1.755c0.223,0.566,0.411,1.005,0.572,1.316c0.16,0.311,0.317,0.623,0.479,0.934
			c0.158,0.311,0.273,0.555,0.343,0.733l-0.116,0.774c-1.184,0.222-2.14,0.415-2.868,0.579c-0.73,0.165-1.682,0.44-2.856,0.827
			c-3.879,1.259-9.031,3.15-15.457,5.672c-2.364,0.927-4.253,1.686-5.664,2.278c-1.412,0.591-2.666,1.158-3.761,1.7
			c-0.622,0.318-1.122,0.604-1.5,0.854s-0.888,0.605-1.529,1.063l-0.76-0.151l-0.217-0.839c-0.38-1.253-0.744-2.324-1.093-3.214
			c-0.217-0.55-0.388-0.96-0.512-1.229c-0.124-0.27-0.283-0.581-0.479-0.934c-0.104-0.126-0.236-0.392-0.396-0.797L434.16,176.021z"
			/>
		<path d="M480.638,201.718c0.062,0.721,0.122,1.262,0.182,1.624c0.059,0.362,0.169,0.854,0.332,1.477
			c0.12,0.455,0.265,0.938,0.434,1.451c0.171,0.513,0.442,1.277,0.817,2.294l-0.658,0.577c-0.87-0.366-1.589-0.569-2.155-0.609
			c-0.567-0.04-1.16-0.034-1.774,0.02c-0.721,0.062-1.76,0.235-3.114,0.518c-1.354,0.283-2.876,0.636-4.562,1.06
			c-2.471,0.592-5.193,1.278-8.173,2.057c-2.12,0.555-4.339,1.144-6.656,1.769c-1.636,0.482-2.957,0.877-3.963,1.185
			c-1.008,0.309-1.655,0.528-1.945,0.658c-0.411,0.215-0.73,0.434-0.96,0.655c-0.229,0.222-0.637,0.697-1.219,1.425l-0.851-0.263
			c-0.101-0.387-0.315-1.346-0.644-2.878c-0.18-0.959-0.286-1.499-0.315-1.616c-0.045-0.168-0.374-1.152-0.988-2.951l-0.219-0.833
			c0.521-0.55,1.784-1.878,3.784-3.983c2.002-2.105,3.756-3.958,5.261-5.556c1.506-1.598,3.018-3.203,4.538-4.813
			c1.52-1.612,2.628-2.805,3.322-3.58c0.197-0.213,0.898-0.972,2.104-2.275c0.807-0.895,1.618-1.781,2.431-2.659l0.038-0.064
			c-0.203,0.053-1.099,0.283-2.691,0.691c-1.593,0.407-3.532,0.911-5.82,1.509l-10.259,2.738c-1.463,0.383-2.684,0.734-3.66,1.053
			c-0.979,0.319-1.832,0.691-2.566,1.117l-0.711-0.246c-0.286-1.705-0.565-3.088-0.843-4.148c-0.203-0.774-0.439-1.467-0.707-2.08
			l-0.337-0.774l0.765-0.686c0.982,0.39,1.931,0.618,2.849,0.684c0.915,0.065,1.992-0.009,3.23-0.226
			c1.031-0.18,2.75-0.567,5.156-1.161c2.405-0.593,5.284-1.328,8.631-2.204c2.575-0.673,4.794-1.263,6.656-1.769
			c1.54-0.438,2.849-0.822,3.932-1.15s1.711-0.542,1.882-0.64c0.368-0.241,0.682-0.521,0.941-0.839
			c0.258-0.319,0.614-0.845,1.071-1.575l0.882,0.281c0.093,0.354,0.219,0.905,0.378,1.654c0.358,1.776,0.569,2.79,0.636,3.042
			c0.215,0.825,0.39,1.426,0.525,1.804c0.135,0.378,0.354,0.914,0.662,1.606c-0.438,0.456-0.79,0.813-1.054,1.071
			c-0.266,0.258-0.723,0.729-1.37,1.41c-0.649,0.682-1.691,1.786-3.124,3.312c-1.436,1.526-2.487,2.655-3.158,3.388l-0.221,0.192
			c-1.812,1.931-3.077,3.264-3.794,4c-0.714,0.735-1.604,1.678-2.669,2.829c-1.065,1.151-2.31,2.514-3.729,4.091
			c-1.421,1.576-2.411,2.67-2.971,3.284c0.589-0.154,2.849-0.728,6.776-1.719l5.148-1.347c2.391-0.625,4.327-1.141,5.812-1.547
			c1.484-0.407,2.717-0.756,3.701-1.05c0.984-0.294,1.759-0.546,2.323-0.756c0.565-0.211,1.186-0.468,1.862-0.771L480.638,201.718z"
			/>
		<path d="M459.392,253.934c-0.666-0.37-1.255-0.646-1.761-0.828c-0.508-0.182-1.064-0.283-1.673-0.303
			c-0.54-0.018-1.085,0.043-1.639,0.181c-0.553,0.138-1.064,0.374-1.537,0.707c-0.471,0.332-0.851,0.776-1.14,1.333
			c-0.288,0.556-0.445,1.234-0.471,2.033c-0.038,1.112,0.246,2.157,0.851,3.134c0.603,0.977,1.413,1.834,2.433,2.573
			c1.021,0.738,2.119,1.318,3.296,1.74c1.18,0.421,2.29,0.649,3.333,0.684c1.232,0.041,2.203-0.076,2.908-0.348
			c0.705-0.273,1.203-0.604,1.494-0.995c0.291-0.391,0.479-0.785,0.562-1.183c0.082-0.397,0.132-0.857,0.149-1.378
			c0.002-0.087-0.012-0.731-0.041-1.933c-0.044-0.784-0.083-1.716-0.116-2.796c-0.036-1.081-0.048-1.776-0.036-2.089
			c0.031-1.008,0.176-2.035,0.428-3.079c0.252-1.045,0.809-1.988,1.671-2.829c0.721-0.742,1.599-1.288,2.639-1.636
			c1.037-0.349,2.155-0.504,3.354-0.464c1.407,0.046,2.752,0.312,4.034,0.798c1.279,0.486,2.427,1.137,3.445,1.953
			c1.018,0.816,1.86,1.762,2.529,2.837c0.67,1.074,1.106,2.207,1.312,3.396c0.104,0.543,0.195,1.22,0.271,2.032
			c0.079,0.812,0.128,1.675,0.149,2.589c0.024,0.915,0.032,1.719,0.026,2.415s-0.016,1.287-0.032,1.774
			c-0.039,1.182-0.12,2.184-0.242,3.006c-0.124,0.822-0.419,1.626-0.89,2.411c-0.469,0.785-1.203,1.387-2.199,1.807
			c-0.996,0.419-2.268,0.604-3.815,0.553l-0.521-0.017c-0.347-0.046-0.711-0.076-1.093-0.088l0.062-1.851
			c0.029-0.365,0.045-0.599,0.049-0.704c0.016-0.521,0.018-0.969,0.004-1.343c-0.014-0.375-0.053-1.407-0.12-3.097l0.715-0.29
			c0.227,0.008,0.364,0.021,0.417,0.04c0.345,0.063,0.658,0.1,0.936,0.109c0.939,0.031,1.688-0.097,2.244-0.383
			c0.558-0.287,0.955-0.626,1.195-1.018c0.238-0.392,0.39-0.77,0.455-1.133c0.062-0.363,0.102-0.719,0.112-1.066
			c0.037-1.13-0.164-2.159-0.603-3.086c-0.439-0.928-1.062-1.736-1.865-2.423c-0.805-0.688-1.704-1.222-2.7-1.603
			c-0.997-0.381-1.974-0.587-2.93-0.618c-1.008-0.033-1.808,0.092-2.4,0.378c-0.593,0.284-1.021,0.636-1.287,1.054
			c-0.266,0.417-0.438,0.816-0.51,1.197c-0.073,0.38-0.116,0.771-0.131,1.17c-0.01,0.313,0.063,1.777,0.223,4.392
			c0.023,0.836,0.058,1.659,0.101,2.47c0.044,0.811,0.062,1.354,0.052,1.633c-0.04,1.182-0.276,2.183-0.713,3.003
			c-0.436,0.821-1.046,1.497-1.827,2.028c-0.746,0.462-1.612,0.834-2.595,1.115c-0.984,0.281-2.189,0.398-3.615,0.351
			c-1.807-0.06-3.484-0.388-5.029-0.987c-1.546-0.599-2.904-1.366-4.074-2.3c-1.171-0.935-2.128-1.971-2.874-3.109
			s-1.23-2.276-1.453-3.415c-0.14-0.51-0.242-1.239-0.307-2.189c-0.065-0.951-0.101-1.853-0.106-2.705
			c-0.008-0.853-0.012-1.78-0.014-2.78c-0.002-1.001,0.008-1.849,0.031-2.543c0.037-1.147,0.174-2.105,0.407-2.871
			c0.234-0.767,0.674-1.453,1.321-2.058c0.754-0.706,1.63-1.173,2.631-1.401c0.998-0.228,1.977-0.327,2.931-0.295
			c0.87,0.028,1.629,0.123,2.276,0.284c0.646,0.16,1.303,0.391,1.973,0.691c-0.045,1.408-0.058,2.513-0.029,3.314
			c0.025,0.801,0.064,1.968,0.118,3.501L459.392,253.934z"/>
		<path d="M476.092,297.69c0.271-0.696,0.455-1.226,0.55-1.589c0.094-0.364,0.192-0.854,0.293-1.472
			c0.182-0.887,0.575-3.184,1.18-6.891c0.088-0.532,0.12-0.87,0.1-1.015c-0.02-0.145-0.128-0.268-0.322-0.37
			c-0.165-0.062-0.742-0.197-1.73-0.402c-0.988-0.206-2.221-0.438-3.693-0.696c-2.071-0.375-3.93-0.696-5.578-0.965
			c-0.316,1.939-0.594,3.691-0.832,5.256c-0.238,1.564-0.372,2.485-0.4,2.763c-0.031,0.735,0.021,1.285,0.154,1.651
			s0.403,0.872,0.809,1.52l0.451,0.629l-0.957,0.689l-5.92-1.47c0.256-0.91,0.467-1.668,0.638-2.275
			c0.17-0.607,0.364-1.482,0.587-2.626c0.11-0.458,0.329-1.691,0.657-3.699l0.565-3.132l-1.441-0.236
			c-0.923-0.169-1.626-0.292-2.106-0.371c-1.527-0.25-3.032-0.482-4.513-0.698c-1.48-0.215-2.366-0.338-2.661-0.369
			c-0.264-0.008-0.422,0.046-0.477,0.161c-0.053,0.114-0.173,0.738-0.358,1.871c-0.244,1.494-0.423,2.697-0.537,3.613
			c-0.097,0.812-0.164,1.488-0.199,2.029c-0.035,0.54-0.051,0.952-0.043,1.235c0.055,0.415,0.169,0.79,0.345,1.127
			c0.173,0.336,0.566,0.899,1.177,1.686l-0.872,0.809l-6.573-1.339c0.147-0.91,0.336-1.742,0.566-2.498
			c0.097-0.372,0.178-0.711,0.244-1.017c0.168-0.59,0.414-1.774,0.74-3.553c0.327-1.78,0.697-3.939,1.112-6.479
			c0.168-1.03,0.317-1.988,0.443-2.875c0.128-0.887,0.167-1.722,0.12-2.504l0.933-0.376c0.587,0.396,1.139,0.684,1.656,0.866
			c0.516,0.181,1.225,0.38,2.122,0.598c0.762,0.195,1.701,0.401,2.819,0.62s2.345,0.454,3.678,0.707
			c2.496,0.461,4.715,0.851,6.654,1.167c4.343,0.709,7.611,1.231,9.803,1.562c2.192,0.333,3.785,0.535,4.777,0.609
			c0.975,0.071,1.699,0.08,2.176,0.026c0.477-0.055,0.924-0.18,1.345-0.376l0.793,0.474c-0.301,1.307-0.557,2.499-0.77,3.575
			c-0.21,1.076-0.506,2.771-0.884,5.089c-0.207,1.27-0.405,2.585-0.593,3.947c-0.114,0.703-0.196,1.311-0.244,1.823
			c-0.049,0.512-0.078,0.908-0.089,1.188c0.009,0.16,0.006,0.283-0.008,0.369c-0.033,0.523,0,0.987,0.103,1.392
			c0.101,0.403,0.434,1.145,0.998,2.225l-0.86,0.732L476.092,297.69z"/>
		<path d="M435.432,324.634l2.347-7.548c0.843-0.485,1.717-0.837,2.622-1.056c0.906-0.22,2.145-0.45,3.711-0.691
			c0.197-0.047,0.323-0.073,0.378-0.073c0.04-0.007,0.497-0.074,1.375-0.201c2.506-0.387,3.996-0.615,4.475-0.686
			c0.618-0.117,1.223-0.244,1.812-0.379c0.588-0.137,1.217-0.346,1.888-0.629s1.256-0.653,1.752-1.108s0.843-0.999,1.04-1.63
			c0.124-0.399,0.232-0.838,0.326-1.319c0.095-0.48,0.145-0.757,0.15-0.828l-0.723-0.225c-0.843-0.28-1.571-0.515-2.186-0.706
			c-1.296-0.403-2.544-0.777-3.748-1.124c-1.203-0.347-2.107-0.604-2.709-0.774c-1.284-0.326-2.278-0.536-2.987-0.628
			c-0.709-0.093-1.512-0.161-2.409-0.203l-0.272-0.002l-0.59-0.566c0.33-0.59,0.559-1.033,0.687-1.33
			c0.13-0.297,0.315-0.836,0.558-1.617c0.258-0.83,0.473-1.551,0.646-2.162c0.171-0.612,0.295-1.333,0.372-2.166l0.896-0.158
			c0.459,0.397,0.977,0.754,1.552,1.07c0.577,0.315,1.475,0.708,2.693,1.179c0.729,0.298,1.847,0.71,3.358,1.235
			c1.512,0.525,3.141,1.058,4.885,1.6c2.215,0.725,5.132,1.65,8.753,2.775c2.01,0.624,3.845,1.177,5.509,1.657
			c1.661,0.48,2.975,0.815,3.936,1.005c0.572,0.086,1.092,0.098,1.559,0.034c0.467-0.064,1.095-0.256,1.887-0.575l0.758,0.728
			c-0.394,0.679-0.668,1.24-0.823,1.683c-0.157,0.443-0.347,1.021-0.567,1.736c-0.521,1.677-0.948,3.107-1.279,4.288
			c-0.331,1.181-0.595,2.206-0.791,3.073c-0.014,0.049-0.079,0.312-0.189,0.788c-0.195,0.978-0.411,1.925-0.651,2.843
			s-0.436,1.618-0.585,2.1c-0.748,2.408-2.067,4.001-3.957,4.78c-1.89,0.778-3.883,0.842-5.974,0.192
			c-1.479-0.46-2.766-1.11-3.86-1.951c-1.095-0.842-1.996-1.795-2.703-2.862s-1.236-2.174-1.591-3.322
			c-0.353-1.147-0.533-1.823-0.543-2.027l0.016-0.049c-0.033-0.01-0.25,0.131-0.651,0.426c-0.511,0.351-1.097,0.638-1.757,0.861
			c-0.661,0.222-1.444,0.416-2.353,0.58c-0.907,0.164-2.153,0.364-3.738,0.6c-2.274,0.349-4.063,0.653-5.365,0.914
			c-1.299,0.26-2.301,0.522-3.002,0.787c-0.703,0.265-1.217,0.514-1.546,0.75c-0.326,0.234-0.822,0.714-1.484,1.437L435.432,324.634
			z M460.153,309.344c-0.058,0.127-0.166,0.358-0.325,0.691c-0.157,0.333-0.309,0.732-0.453,1.198
			c-0.496,1.594-0.612,3.009-0.35,4.248c0.26,1.237,0.754,2.274,1.477,3.109c0.724,0.835,1.533,1.501,2.425,1.997
			c0.894,0.496,1.723,0.863,2.486,1.1c2.026,0.63,3.745,0.695,5.156,0.197c1.412-0.5,2.339-1.463,2.784-2.891
			c0.268-0.864,0.271-1.728,0.012-2.591c-0.26-0.864-0.663-1.582-1.215-2.153c-0.551-0.573-1.297-1.083-2.242-1.53
			c-0.945-0.449-2.42-0.994-4.422-1.635L460.153,309.344z"/>
		<path d="M461.196,357.03c-0.618,0.845-1.232,1.932-1.843,3.258c-0.334,0.727-0.547,1.218-0.636,1.474s-0.157,0.727-0.205,1.414
			l-1.246-0.286c-0.236-0.568-0.454-1-0.655-1.292c-0.201-0.293-0.531-0.729-0.994-1.305c-0.461-0.576-1.168-1.361-2.118-2.353
			c-0.951-0.993-2.158-2.208-3.621-3.646c-0.77-0.738-2.151-2.042-4.142-3.915c-1.991-1.874-3.956-3.7-5.893-5.481
			c-1.938-1.781-3.67-3.363-5.195-4.745c-1.528-1.382-2.355-2.103-2.481-2.161c-0.08-0.036-0.232-0.059-0.458-0.067
			c-0.093-0.005-0.343,0.005-0.746,0.03c-0.404,0.024-0.723,0.042-0.955,0.049l-0.819-0.779c0.502-0.593,0.829-1.031,0.979-1.315
			c0.149-0.286,0.434-0.878,0.847-1.779c0.349-0.759,0.647-1.429,0.897-2.014c0.25-0.583,0.455-1.259,0.616-2.027l0.874-0.028
			l0.475,0.218c0.112,0.09,0.191,0.145,0.238,0.167c0.27,0.124,0.604,0.239,1.004,0.346c0.4,0.107,1.032,0.255,1.895,0.441
			c0.862,0.186,1.768,0.377,2.721,0.576c0.951,0.198,2.777,0.565,5.48,1.1l0.048,0.021c1.651,0.319,3.447,0.643,5.382,0.969
			c1.938,0.326,3.997,0.666,6.181,1.019c2.181,0.352,4.052,0.625,5.61,0.815c1.56,0.19,2.771,0.322,3.637,0.395
			c0.764,0.045,1.415,0.024,1.953-0.063c0.539-0.087,1.219-0.277,2.041-0.568l0.628,0.633c-0.173,0.379-0.39,0.806-0.646,1.282
			c-0.051,0.11-0.238,0.455-0.562,1.034c-0.323,0.578-0.544,0.994-0.66,1.247c-0.413,0.9-0.821,1.909-1.221,3.027l-0.212,0.649
			l-0.606,0.381c-1.164-0.382-3.06-0.858-5.69-1.425c-2.628-0.568-5.577-1.159-8.846-1.772c-3.27-0.613-6.217-1.122-8.845-1.527
			c-2.269-0.354-3.434-0.546-3.497-0.575l0.06-0.001c-0.656-0.493-1.015-0.753-1.077-0.782l0.097,0.102
			c0.297,0.27,1.601,1.492,3.914,3.666l0.433,0.43c5.125,4.673,9.011,8.126,11.659,10.359c0.506,0.442,1.236,1.038,2.195,1.785
			c0.541,0.402,1.106,0.81,1.69,1.223c0.585,0.413,1.176,0.784,1.771,1.115L461.196,357.03z"/>
		<path d="M423.476,349.69c0.647,0.611,1.349,1.234,2.103,1.87s1.886,1.455,3.392,2.46c1.565,1.041,3.261,2.128,5.084,3.263
			c1.825,1.134,4.071,2.502,6.74,4.104c3.505,2.101,6.171,3.641,7.999,4.615c1.829,0.977,3.643,1.738,5.44,2.291l0.344,0.54
			c-0.187,0.314-0.362,0.572-0.527,0.779c-0.227,0.31-0.486,0.676-0.779,1.099c-0.294,0.421-0.628,0.945-1.004,1.573
			c-0.313,0.521-0.546,0.939-0.693,1.256c-0.149,0.317-0.299,0.632-0.449,0.949c-0.147,0.314-0.271,0.555-0.37,0.721l-0.685,0.38
			c-0.897-0.804-1.634-1.443-2.211-1.92c-0.575-0.477-1.374-1.063-2.398-1.758c-3.362-2.302-8.007-5.229-13.927-8.78
			c-2.178-1.306-3.932-2.34-5.261-3.096c-1.33-0.758-2.545-1.405-3.642-1.941c-0.632-0.299-1.164-0.521-1.593-0.667
			c-0.43-0.146-1.021-0.333-1.776-0.563l-0.344-0.693l0.531-0.684c0.762-1.065,1.388-2.008,1.88-2.828
			c0.304-0.507,0.524-0.892,0.662-1.154c0.138-0.263,0.285-0.579,0.446-0.948c0.036-0.162,0.166-0.428,0.39-0.801L423.476,349.69z"
			/>
		<path d="M423.759,397.947l0.616-0.414c1.418,0.214,2.646,0.223,3.686,0.026c1.041-0.196,1.938-0.488,2.688-0.876
			c0.748-0.389,1.374-0.801,1.876-1.237c0.502-0.438,0.901-0.849,1.199-1.233c0.69-0.896,1.159-2.066,1.405-3.512
			c0.248-1.444,0.191-3.059-0.167-4.841c-0.36-1.782-1.156-3.614-2.385-5.496c-1.228-1.881-2.896-3.634-5.002-5.259
			c-1.9-1.466-3.772-2.542-5.615-3.228c-1.843-0.687-3.577-1.015-5.203-0.983c-1.628,0.029-3.091,0.367-4.389,1.013
			c-1.301,0.645-2.396,1.545-3.287,2.702c-0.575,0.743-1.05,1.672-1.426,2.787c-0.378,1.114-0.667,2.353-0.87,3.712
			c-0.203,1.358-0.304,2.741-0.302,4.148s0.112,3.008,0.331,4.802l-1.201,0.062c-0.636-0.885-1.527-2.091-2.679-3.616
			c-1.152-1.525-2.205-2.907-3.158-4.148l6.438-8.345c0.063-0.083,0.186-0.247,0.364-0.493c0.18-0.246,0.436-0.614,0.768-1.104
			c0.366-0.53,0.639-0.926,0.815-1.184c0.178-0.259,0.31-0.442,0.394-0.553c0.945-1.226,1.794-2.225,2.542-2.998
			c0.75-0.771,1.556-1.418,2.42-1.938c0.862-0.521,1.812-0.886,2.853-1.094c1.039-0.209,2.24-0.271,3.603-0.187
			c3.837,0.237,7.656,1.821,11.456,4.753c1.06,0.818,2.156,1.817,3.288,2.998s2.178,2.58,3.136,4.198
			c0.959,1.619,1.618,3.434,1.977,5.446c0.358,2.011,0.217,4.075-0.429,6.192c-0.197,0.682-0.512,1.569-0.949,2.661
			c-0.435,1.091-0.927,2.221-1.479,3.39c-0.549,1.168-1.104,2.249-1.663,3.245c-0.56,0.997-1.026,1.736-1.398,2.217
			c-1.349,1.75-2.915,3.049-4.703,3.899c-1.787,0.851-3.939,1.283-6.453,1.298l-0.51-0.492L423.759,397.947z"/>
		<path d="M404.43,422.447c0.634-0.395,1.097-0.709,1.39-0.943c0.294-0.234,0.666-0.569,1.116-1.004
			c0.674-0.604,2.363-2.209,5.066-4.818c0.388-0.375,0.615-0.626,0.687-0.754c0.069-0.128,0.058-0.291-0.037-0.489
			c-0.097-0.149-0.479-0.603-1.148-1.357c-0.669-0.756-1.518-1.678-2.543-2.766c-1.438-1.539-2.734-2.908-3.895-4.109
			c-1.413,1.365-2.684,2.604-3.812,3.716c-1.126,1.111-1.783,1.77-1.971,1.976c-0.465,0.569-0.754,1.041-0.864,1.414
			c-0.112,0.373-0.198,0.94-0.262,1.702l-0.012,0.774l-1.182-0.021l-3.864-4.717c0.748-0.577,1.37-1.059,1.87-1.443
			c0.498-0.385,1.18-0.97,2.042-1.753c0.362-0.302,1.275-1.159,2.738-2.572l2.325-2.173l-1.014-1.051
			c-0.641-0.688-1.129-1.207-1.467-1.557c-1.075-1.114-2.143-2.2-3.199-3.257c-1.058-1.059-1.695-1.688-1.914-1.889
			c-0.205-0.163-0.364-0.215-0.477-0.155s-0.58,0.487-1.405,1.284c-1.089,1.052-1.953,1.909-2.591,2.574
			c-0.565,0.593-1.022,1.095-1.374,1.508c-0.351,0.411-0.608,0.733-0.774,0.963c-0.202,0.365-0.334,0.735-0.397,1.109
			c-0.061,0.375-0.083,1.06-0.062,2.057l-1.184,0.126l-4.469-5.003c0.663-0.642,1.312-1.195,1.949-1.664
			c0.299-0.24,0.566-0.463,0.805-0.668c0.486-0.373,1.392-1.175,2.717-2.406c1.325-1.23,2.914-2.74,4.767-4.528
			c0.75-0.725,1.441-1.404,2.073-2.038c0.634-0.635,1.163-1.281,1.593-1.938l0.975,0.257c0.233,0.669,0.504,1.229,0.809,1.685
			c0.306,0.453,0.754,1.036,1.345,1.748c0.492,0.611,1.122,1.339,1.888,2.183c0.767,0.844,1.608,1.766,2.526,2.766
			c1.725,1.862,3.27,3.502,4.637,4.915c3.055,3.166,5.362,5.537,6.922,7.114c1.557,1.577,2.713,2.692,3.463,3.345
			c0.74,0.64,1.317,1.081,1.73,1.322c0.413,0.24,0.847,0.407,1.302,0.502l0.352,0.855c-1.023,0.867-1.94,1.668-2.754,2.404
			c-0.812,0.735-2.063,1.92-3.75,3.55c-0.928,0.894-1.873,1.83-2.837,2.81c-0.513,0.495-0.941,0.934-1.286,1.315
			c-0.345,0.381-0.606,0.681-0.781,0.899c-0.089,0.133-0.164,0.23-0.227,0.29c-0.339,0.401-0.589,0.793-0.75,1.178
			c-0.159,0.384-0.337,1.178-0.529,2.379l-1.129,0.073L404.43,422.447z"/>
	</g>
	<polygon id="Cross" points="336.551,174.762 265.733,174.762 265.733,90.84 238.266,99.081 238.266,174.762 175.691,174.762 
		167.449,202.229 238.266,202.229 238.266,413.16 265.733,404.917 265.733,202.229 328.311,202.229 	"/>
	<g id="Fish">
		<path fill="none" stroke="#000000" stroke-width="5.04" stroke-linecap="round" stroke-miterlimit="10" d="M186.48,466.845
			c0,0,47.651,53.629,131.041-13.407"/>
		<path fill="none" stroke="#000000" stroke-width="5.04" stroke-linecap="round" stroke-miterlimit="10" d="M186.48,466.845
			c0,0,47.651-53.629,131.041,13.407"/>
	</g>
</g>
</svg>
